<svg width="261" height="258" viewBox="0 0 261 258" fill="none" xmlns="http://www.w3.org/2000/svg">
<g filter="url(#filter0_d_55_7661)">
<g filter="url(#filter1_i_55_7661)">
<path d="M55.5369 150V0H124.774C142.679 0 156.313 3.64286 165.676 10.9286C175.203 18.0714 179.967 27.2857 179.967 38.5714C179.967 48 177.01 55.5714 171.096 61.2857C165.347 66.8571 158.284 70.6429 149.906 72.6429C159.762 74.3571 167.893 78.6429 174.3 85.5C180.706 92.2143 183.909 100.071 183.909 109.071C183.909 120.929 178.981 130.714 169.125 138.429C159.269 146.143 145.307 150 127.238 150H55.5369Z" fill="#FF7777"/>
</g>
</g>
<g filter="url(#filter2_d_55_7661)">
<g filter="url(#filter3_i_55_7661)">
<path d="M64.6278 150V0H133.865C151.77 0 165.404 3.64286 174.767 10.9286C184.294 18.0714 189.058 27.2857 189.058 38.5714C189.058 48 186.101 55.5714 180.187 61.2857C174.438 66.8571 167.375 70.6429 158.997 72.6429C168.853 74.3571 176.984 78.6429 183.391 85.5C189.797 92.2143 193 100.071 193 109.071C193 120.929 188.072 130.714 178.216 138.429C168.36 146.143 154.398 150 136.329 150H64.6278Z" fill="#0047FF"/>
</g>
</g>
<g filter="url(#filter4_i_55_7661)">
<path d="M77.1278 150V0H146.365C164.27 0 177.904 3.64286 187.267 10.9286C196.794 18.0714 201.558 27.2857 201.558 38.5714C201.558 48 198.601 55.5714 192.687 61.2857C186.938 66.8571 179.875 70.6429 171.497 72.6429C181.353 74.3571 189.484 78.6429 195.891 85.5C202.297 92.2143 205.5 100.071 205.5 109.071C205.5 120.929 200.572 130.714 190.716 138.429C180.86 146.143 166.898 150 148.829 150H77.1278Z" fill="white"/>
</g>
<g filter="url(#filter5_i_55_7661)">
<path d="M85.8451 38.2437C83.901 40.1878 83.901 43.3399 85.8451 45.284L117.526 76.965C119.47 78.9092 122.622 78.9092 124.566 76.965C126.511 75.0209 126.511 71.8689 124.566 69.9248L96.4055 41.7639L124.566 13.6029C126.511 11.6588 126.511 8.50677 124.566 6.56267C122.622 4.61856 119.47 4.61856 117.526 6.56267L85.8451 38.2437ZM202.506 36.7857H89.3652V46.7421H202.506V36.7857Z" fill="#0047FF"/>
</g>
<g filter="url(#filter6_i_55_7661)">
<path d="M190.573 113.941C192.37 112.144 192.37 109.23 190.573 107.432L161.283 78.1432C159.486 76.3458 156.572 76.3458 154.775 78.1432C152.977 79.9405 152.977 82.8545 154.775 84.6519L180.81 110.687L154.775 136.721C152.977 138.519 152.977 141.433 154.775 143.23C156.572 145.028 159.486 145.028 161.283 143.23L190.573 113.941ZM77.091 115.289L187.318 115.289L187.318 106.084L77.091 106.084L77.091 115.289Z" fill="#0047FF"/>
</g>
<path d="M47.524 218V186.71H60.712C62.784 186.71 64.548 187.074 66.004 187.802C67.488 188.502 68.622 189.51 69.406 190.826C70.218 192.114 70.624 193.682 70.624 195.53C70.624 196.958 70.232 198.302 69.448 199.562C68.692 200.794 67.474 201.816 65.794 202.628V199.982C67.334 200.57 68.552 201.298 69.448 202.166C70.344 203.034 70.974 204 71.338 205.064C71.702 206.128 71.884 207.248 71.884 208.424C71.884 211.42 70.89 213.772 68.902 215.48C66.942 217.16 64.212 218 60.712 218H47.524ZM53.236 212.96H61.3C62.784 212.96 63.96 212.554 64.828 211.742C65.724 210.902 66.172 209.796 66.172 208.424C66.172 207.052 65.724 205.946 64.828 205.106C63.96 204.266 62.784 203.846 61.3 203.846H53.236V212.96ZM53.236 198.848H61.006C62.182 198.848 63.12 198.512 63.82 197.84C64.52 197.14 64.87 196.244 64.87 195.152C64.87 194.06 64.52 193.192 63.82 192.548C63.12 191.904 62.182 191.582 61.006 191.582H53.236V198.848ZM81.3511 218.504C79.7551 218.504 78.3691 218.238 77.1931 217.706C76.0171 217.174 75.1071 216.418 74.4631 215.438C73.8191 214.43 73.4971 213.268 73.4971 211.952C73.4971 210.692 73.7771 209.572 74.3371 208.592C74.8971 207.584 75.7651 206.744 76.9411 206.072C78.1171 205.4 79.6011 204.924 81.3931 204.644L88.8691 203.426V207.626L82.4431 208.718C81.3511 208.914 80.5391 209.264 80.0071 209.768C79.4751 210.272 79.2091 210.93 79.2091 211.742C79.2091 212.526 79.5031 213.156 80.0911 213.632C80.7071 214.08 81.4631 214.304 82.3591 214.304C83.5071 214.304 84.5151 214.066 85.3831 213.59C86.2791 213.086 86.9651 212.4 87.4411 211.532C87.9451 210.664 88.1971 209.712 88.1971 208.676V202.796C88.1971 201.816 87.8051 201.004 87.0211 200.36C86.2651 199.688 85.2571 199.352 83.9971 199.352C82.8211 199.352 81.7711 199.674 80.8471 200.318C79.9511 200.934 79.2931 201.76 78.8731 202.796L74.3791 200.612C74.8271 199.408 75.5271 198.372 76.4791 197.504C77.4591 196.608 78.6071 195.908 79.9231 195.404C81.2391 194.9 82.6671 194.648 84.2071 194.648C86.0831 194.648 87.7351 194.998 89.1631 195.698C90.5911 196.37 91.6971 197.322 92.4811 198.554C93.2931 199.758 93.6991 201.172 93.6991 202.796V218H88.4911V214.094L89.6671 214.01C89.0791 214.99 88.3791 215.816 87.5671 216.488C86.7551 217.132 85.8311 217.636 84.7951 218C83.7591 218.336 82.6111 218.504 81.3511 218.504ZM108.192 227.24C106.484 227.24 104.902 226.96 103.446 226.4C101.99 225.84 100.73 225.056 99.6663 224.048C98.6303 223.068 97.8743 221.906 97.3983 220.562L102.522 218.63C102.858 219.694 103.516 220.548 104.496 221.192C105.504 221.864 106.736 222.2 108.192 222.2C109.312 222.2 110.292 221.99 111.132 221.57C112 221.15 112.672 220.534 113.148 219.722C113.624 218.938 113.862 217.986 113.862 216.866V211.658L114.912 212.918C114.128 214.29 113.078 215.326 111.762 216.026C110.446 216.726 108.948 217.076 107.268 217.076C105.14 217.076 103.236 216.586 101.556 215.606C99.8763 214.626 98.5603 213.282 97.6083 211.574C96.6563 209.866 96.1803 207.948 96.1803 205.82C96.1803 203.664 96.6563 201.746 97.6083 200.066C98.5603 198.386 99.8623 197.07 101.514 196.118C103.166 195.138 105.042 194.648 107.142 194.648C108.85 194.648 110.348 195.012 111.636 195.74C112.952 196.44 114.044 197.462 114.912 198.806L114.156 200.192V195.152H119.364V216.866C119.364 218.854 118.874 220.632 117.894 222.2C116.942 223.768 115.626 225 113.946 225.896C112.294 226.792 110.376 227.24 108.192 227.24ZM107.94 211.994C109.116 211.994 110.138 211.742 111.006 211.238C111.902 210.706 112.602 209.978 113.106 209.054C113.61 208.13 113.862 207.066 113.862 205.862C113.862 204.686 113.596 203.636 113.064 202.712C112.56 201.76 111.86 201.018 110.964 200.486C110.096 199.954 109.088 199.688 107.94 199.688C106.792 199.688 105.756 199.954 104.832 200.486C103.908 201.018 103.18 201.76 102.648 202.712C102.144 203.636 101.892 204.686 101.892 205.862C101.892 207.038 102.144 208.088 102.648 209.012C103.18 209.936 103.894 210.664 104.79 211.196C105.714 211.728 106.764 211.994 107.94 211.994ZM122.823 218V195.152H128.325V218H122.823ZM122.823 192.59V186.71H128.325V192.59H122.823ZM132.187 218V186.71H145.375C147.447 186.71 149.211 187.074 150.667 187.802C152.151 188.502 153.285 189.51 154.069 190.826C154.881 192.114 155.287 193.682 155.287 195.53C155.287 196.958 154.895 198.302 154.111 199.562C153.355 200.794 152.137 201.816 150.457 202.628V199.982C151.997 200.57 153.215 201.298 154.111 202.166C155.007 203.034 155.637 204 156.001 205.064C156.365 206.128 156.547 207.248 156.547 208.424C156.547 211.42 155.553 213.772 153.565 215.48C151.605 217.16 148.875 218 145.375 218H132.187ZM137.899 212.96H145.963C147.447 212.96 148.623 212.554 149.491 211.742C150.387 210.902 150.835 209.796 150.835 208.424C150.835 207.052 150.387 205.946 149.491 205.106C148.623 204.266 147.447 203.846 145.963 203.846H137.899V212.96ZM137.899 198.848H145.669C146.845 198.848 147.783 198.512 148.483 197.84C149.183 197.14 149.533 196.244 149.533 195.152C149.533 194.06 149.183 193.192 148.483 192.548C147.783 191.904 146.845 191.582 145.669 191.582H137.899V198.848ZM166.014 218.504C164.418 218.504 163.032 218.238 161.856 217.706C160.68 217.174 159.77 216.418 159.126 215.438C158.482 214.43 158.16 213.268 158.16 211.952C158.16 210.692 158.44 209.572 159 208.592C159.56 207.584 160.428 206.744 161.604 206.072C162.78 205.4 164.264 204.924 166.056 204.644L173.532 203.426V207.626L167.106 208.718C166.014 208.914 165.202 209.264 164.67 209.768C164.138 210.272 163.872 210.93 163.872 211.742C163.872 212.526 164.166 213.156 164.754 213.632C165.37 214.08 166.126 214.304 167.022 214.304C168.17 214.304 169.178 214.066 170.046 213.59C170.942 213.086 171.628 212.4 172.104 211.532C172.608 210.664 172.86 209.712 172.86 208.676V202.796C172.86 201.816 172.468 201.004 171.684 200.36C170.928 199.688 169.92 199.352 168.66 199.352C167.484 199.352 166.434 199.674 165.51 200.318C164.614 200.934 163.956 201.76 163.536 202.796L159.042 200.612C159.49 199.408 160.19 198.372 161.142 197.504C162.122 196.608 163.27 195.908 164.586 195.404C165.902 194.9 167.33 194.648 168.87 194.648C170.746 194.648 172.398 194.998 173.826 195.698C175.254 196.37 176.36 197.322 177.144 198.554C177.956 199.758 178.362 201.172 178.362 202.796V218H173.154V214.094L174.33 214.01C173.742 214.99 173.042 215.816 172.23 216.488C171.418 217.132 170.494 217.636 169.458 218C168.422 218.336 167.274 218.504 166.014 218.504ZM192.855 227.24C191.147 227.24 189.565 226.96 188.109 226.4C186.653 225.84 185.393 225.056 184.329 224.048C183.293 223.068 182.537 221.906 182.061 220.562L187.185 218.63C187.521 219.694 188.179 220.548 189.159 221.192C190.167 221.864 191.399 222.2 192.855 222.2C193.975 222.2 194.955 221.99 195.795 221.57C196.663 221.15 197.335 220.534 197.811 219.722C198.287 218.938 198.525 217.986 198.525 216.866V211.658L199.575 212.918C198.791 214.29 197.741 215.326 196.425 216.026C195.109 216.726 193.611 217.076 191.931 217.076C189.803 217.076 187.899 216.586 186.219 215.606C184.539 214.626 183.223 213.282 182.271 211.574C181.319 209.866 180.843 207.948 180.843 205.82C180.843 203.664 181.319 201.746 182.271 200.066C183.223 198.386 184.525 197.07 186.177 196.118C187.829 195.138 189.705 194.648 191.805 194.648C193.513 194.648 195.011 195.012 196.299 195.74C197.615 196.44 198.707 197.462 199.575 198.806L198.819 200.192V195.152H204.027V216.866C204.027 218.854 203.537 220.632 202.557 222.2C201.605 223.768 200.289 225 198.609 225.896C196.957 226.792 195.039 227.24 192.855 227.24ZM192.603 211.994C193.779 211.994 194.801 211.742 195.669 211.238C196.565 210.706 197.265 209.978 197.769 209.054C198.273 208.13 198.525 207.066 198.525 205.862C198.525 204.686 198.259 203.636 197.727 202.712C197.223 201.76 196.523 201.018 195.627 200.486C194.759 199.954 193.751 199.688 192.603 199.688C191.455 199.688 190.419 199.954 189.495 200.486C188.571 201.018 187.843 201.76 187.311 202.712C186.807 203.636 186.555 204.686 186.555 205.862C186.555 207.038 186.807 208.088 187.311 209.012C187.843 209.936 188.557 210.664 189.453 211.196C190.377 211.728 191.427 211.994 192.603 211.994ZM207.486 218V195.152H212.988V218H207.486ZM207.486 192.59V186.71H212.988V192.59H207.486Z" fill="#0047FF"/>
<path d="M19.5581 252V238H21.2381L28.6981 249.22V238H30.3781V252H28.6981L21.2381 240.78V252H19.5581ZM37.7672 252.24C36.8339 252.24 35.9939 252.027 35.2472 251.6C34.5005 251.173 33.9072 250.573 33.4672 249.8C33.0405 249.013 32.8272 248.093 32.8272 247.04C32.8272 245.987 33.0472 245.073 33.4872 244.3C33.9272 243.513 34.5205 242.907 35.2672 242.48C36.0272 242.053 36.8739 241.84 37.8072 241.84C38.7405 241.84 39.5805 242.053 40.3272 242.48C41.0739 242.907 41.6605 243.513 42.0872 244.3C42.5272 245.073 42.7472 245.987 42.7472 247.04C42.7472 248.093 42.5272 249.013 42.0872 249.8C41.6472 250.573 41.0472 251.173 40.2872 251.6C39.5405 252.027 38.7005 252.24 37.7672 252.24ZM37.7672 250.8C38.3405 250.8 38.8739 250.66 39.3672 250.38C39.8605 250.1 40.2605 249.68 40.5672 249.12C40.8739 248.56 41.0272 247.867 41.0272 247.04C41.0272 246.213 40.8739 245.52 40.5672 244.96C40.2739 244.4 39.8805 243.98 39.3872 243.7C38.8939 243.42 38.3672 243.28 37.8072 243.28C37.2339 243.28 36.7005 243.42 36.2072 243.7C35.7139 243.98 35.3139 244.4 35.0072 244.96C34.7005 245.52 34.5472 246.213 34.5472 247.04C34.5472 247.867 34.7005 248.56 35.0072 249.12C35.3139 249.68 35.7072 250.1 36.1872 250.38C36.6805 250.66 37.2072 250.8 37.7672 250.8ZM46.712 252L43.812 242.08H45.492L47.592 249.86L49.912 242.08H51.812L54.152 249.86L56.232 242.08H57.932L55.032 252H53.312L50.872 243.82L48.432 252H46.712ZM69.5431 252.24C68.5965 252.24 67.7565 252.027 67.0231 251.6C66.2898 251.16 65.7098 250.553 65.2831 249.78C64.8698 249.007 64.6631 248.093 64.6631 247.04C64.6631 246 64.8698 245.093 65.2831 244.32C65.6965 243.533 66.2698 242.927 67.0031 242.5C67.7498 242.06 68.6098 241.84 69.5831 241.84C70.5431 241.84 71.3698 242.06 72.0631 242.5C72.7698 242.927 73.3098 243.493 73.6831 244.2C74.0565 244.907 74.2431 245.667 74.2431 246.48C74.2431 246.627 74.2365 246.773 74.2231 246.92C74.2231 247.067 74.2231 247.233 74.2231 247.42H66.3231C66.3631 248.18 66.5365 248.813 66.8431 249.32C67.1631 249.813 67.5565 250.187 68.0231 250.44C68.5031 250.693 69.0098 250.82 69.5431 250.82C70.2365 250.82 70.8165 250.66 71.2831 250.34C71.7498 250.02 72.0898 249.587 72.3031 249.04H73.9631C73.6965 249.96 73.1831 250.727 72.4231 251.34C71.6765 251.94 70.7165 252.24 69.5431 252.24ZM69.5431 243.26C68.7431 243.26 68.0298 243.507 67.4031 244C66.7898 244.48 66.4365 245.187 66.3431 246.12H72.5831C72.5431 245.227 72.2365 244.527 71.6631 244.02C71.0898 243.513 70.3831 243.26 69.5431 243.26ZM78.9392 252L75.1792 242.08H76.9392L79.9192 250.38L82.9192 242.08H84.6392L80.8792 252H78.9392ZM90.4611 252.24C89.5144 252.24 88.6744 252.027 87.9411 251.6C87.2078 251.16 86.6278 250.553 86.2011 249.78C85.7878 249.007 85.5811 248.093 85.5811 247.04C85.5811 246 85.7878 245.093 86.2011 244.32C86.6144 243.533 87.1878 242.927 87.9211 242.5C88.6678 242.06 89.5278 241.84 90.5011 241.84C91.4611 241.84 92.2878 242.06 92.9811 242.5C93.6878 242.927 94.2278 243.493 94.6011 244.2C94.9744 244.907 95.1611 245.667 95.1611 246.48C95.1611 246.627 95.1544 246.773 95.1411 246.92C95.1411 247.067 95.1411 247.233 95.1411 247.42H87.2411C87.2811 248.18 87.4544 248.813 87.7611 249.32C88.0811 249.813 88.4744 250.187 88.9411 250.44C89.4211 250.693 89.9278 250.82 90.4611 250.82C91.1544 250.82 91.7344 250.66 92.2011 250.34C92.6678 250.02 93.0078 249.587 93.2211 249.04H94.8811C94.6144 249.96 94.1011 250.727 93.3411 251.34C92.5944 251.94 91.6344 252.24 90.4611 252.24ZM90.4611 243.26C89.6611 243.26 88.9478 243.507 88.3211 244C87.7078 244.48 87.3544 245.187 87.2611 246.12H93.5011C93.4611 245.227 93.1544 244.527 92.5811 244.02C92.0078 243.513 91.3011 243.26 90.4611 243.26ZM97.3878 252V242.08H98.9078L99.0478 243.98C99.3545 243.327 99.8211 242.807 100.448 242.42C101.074 242.033 101.848 241.84 102.768 241.84V243.6H102.308C101.721 243.6 101.181 243.707 100.688 243.92C100.194 244.12 99.8011 244.467 99.5078 244.96C99.2145 245.453 99.0678 246.133 99.0678 247V252H97.3878ZM105.733 256.4L108.193 251.04H107.613L103.673 242.08H105.493L108.773 249.8L112.253 242.08H113.993L107.493 256.4H105.733ZM119.349 252.24C118.416 252.24 117.576 252.027 116.829 251.6C116.083 251.173 115.489 250.573 115.049 249.8C114.623 249.013 114.409 248.093 114.409 247.04C114.409 245.987 114.629 245.073 115.069 244.3C115.509 243.513 116.103 242.907 116.849 242.48C117.609 242.053 118.456 241.84 119.389 241.84C120.323 241.84 121.163 242.053 121.909 242.48C122.656 242.907 123.243 243.513 123.669 244.3C124.109 245.073 124.329 245.987 124.329 247.04C124.329 248.093 124.109 249.013 123.669 249.8C123.229 250.573 122.629 251.173 121.869 251.6C121.123 252.027 120.283 252.24 119.349 252.24ZM119.349 250.8C119.923 250.8 120.456 250.66 120.949 250.38C121.443 250.1 121.843 249.68 122.149 249.12C122.456 248.56 122.609 247.867 122.609 247.04C122.609 246.213 122.456 245.52 122.149 244.96C121.856 244.4 121.463 243.98 120.969 243.7C120.476 243.42 119.949 243.28 119.389 243.28C118.816 243.28 118.283 243.42 117.789 243.7C117.296 243.98 116.896 244.4 116.589 244.96C116.283 245.52 116.129 246.213 116.129 247.04C116.129 247.867 116.283 248.56 116.589 249.12C116.896 249.68 117.289 250.1 117.769 250.38C118.263 250.66 118.789 250.8 119.349 250.8ZM126.665 252V242.08H128.185L128.285 243.86C128.605 243.233 129.065 242.74 129.665 242.38C130.265 242.02 130.945 241.84 131.705 241.84C132.878 241.84 133.812 242.2 134.505 242.92C135.212 243.627 135.565 244.72 135.565 246.2V252H133.885V246.38C133.885 244.313 133.032 243.28 131.325 243.28C130.472 243.28 129.758 243.593 129.185 244.22C128.625 244.833 128.345 245.713 128.345 246.86V252H126.665ZM142.57 252.24C141.624 252.24 140.784 252.027 140.05 251.6C139.317 251.16 138.737 250.553 138.31 249.78C137.897 249.007 137.69 248.093 137.69 247.04C137.69 246 137.897 245.093 138.31 244.32C138.724 243.533 139.297 242.927 140.03 242.5C140.777 242.06 141.637 241.84 142.61 241.84C143.57 241.84 144.397 242.06 145.09 242.5C145.797 242.927 146.337 243.493 146.71 244.2C147.084 244.907 147.27 245.667 147.27 246.48C147.27 246.627 147.264 246.773 147.25 246.92C147.25 247.067 147.25 247.233 147.25 247.42H139.35C139.39 248.18 139.564 248.813 139.87 249.32C140.19 249.813 140.584 250.187 141.05 250.44C141.53 250.693 142.037 250.82 142.57 250.82C143.264 250.82 143.844 250.66 144.31 250.34C144.777 250.02 145.117 249.587 145.33 249.04H146.99C146.724 249.96 146.21 250.727 145.45 251.34C144.704 251.94 143.744 252.24 142.57 252.24ZM142.57 243.26C141.77 243.26 141.057 243.507 140.43 244C139.817 244.48 139.464 245.187 139.37 246.12H145.61C145.57 245.227 145.264 244.527 144.69 244.02C144.117 243.513 143.41 243.26 142.57 243.26ZM159.35 252.24C158.403 252.24 157.55 252.027 156.79 251.6C156.043 251.16 155.45 250.553 155.01 249.78C154.583 248.993 154.37 248.08 154.37 247.04C154.37 246 154.583 245.093 155.01 244.32C155.45 243.533 156.043 242.927 156.79 242.5C157.55 242.06 158.403 241.84 159.35 241.84C160.523 241.84 161.51 242.147 162.31 242.76C163.123 243.373 163.637 244.193 163.85 245.22H162.13C161.997 244.607 161.67 244.133 161.15 243.8C160.63 243.453 160.023 243.28 159.33 243.28C158.77 243.28 158.243 243.42 157.75 243.7C157.257 243.98 156.857 244.4 156.55 244.96C156.243 245.52 156.09 246.213 156.09 247.04C156.09 247.867 156.243 248.56 156.55 249.12C156.857 249.68 157.257 250.107 157.75 250.4C158.243 250.68 158.77 250.82 159.33 250.82C160.023 250.82 160.63 250.653 161.15 250.32C161.67 249.973 161.997 249.487 162.13 248.86H163.85C163.65 249.86 163.143 250.673 162.33 251.3C161.517 251.927 160.523 252.24 159.35 252.24ZM169.496 252.24C168.67 252.24 167.983 252.1 167.436 251.82C166.89 251.54 166.483 251.167 166.216 250.7C165.95 250.233 165.816 249.727 165.816 249.18C165.816 248.167 166.203 247.387 166.976 246.84C167.75 246.293 168.803 246.02 170.136 246.02H172.816V245.9C172.816 245.033 172.59 244.38 172.136 243.94C171.683 243.487 171.076 243.26 170.316 243.26C169.663 243.26 169.096 243.427 168.616 243.76C168.15 244.08 167.856 244.553 167.736 245.18H166.016C166.083 244.46 166.323 243.853 166.736 243.36C167.163 242.867 167.69 242.493 168.316 242.24C168.943 241.973 169.61 241.84 170.316 241.84C171.703 241.84 172.743 242.213 173.436 242.96C174.143 243.693 174.496 244.673 174.496 245.9V252H172.996L172.896 250.22C172.616 250.78 172.203 251.26 171.656 251.66C171.123 252.047 170.403 252.24 169.496 252.24ZM169.756 250.82C170.396 250.82 170.943 250.653 171.396 250.32C171.863 249.987 172.216 249.553 172.456 249.02C172.696 248.487 172.816 247.927 172.816 247.34V247.32H170.276C169.29 247.32 168.59 247.493 168.176 247.84C167.776 248.173 167.576 248.593 167.576 249.1C167.576 249.62 167.763 250.04 168.136 250.36C168.523 250.667 169.063 250.82 169.756 250.82ZM177.017 252V242.08H178.537L178.637 243.86C178.957 243.233 179.417 242.74 180.017 242.38C180.617 242.02 181.297 241.84 182.057 241.84C183.23 241.84 184.163 242.2 184.857 242.92C185.563 243.627 185.917 244.72 185.917 246.2V252H184.237V246.38C184.237 244.313 183.383 243.28 181.677 243.28C180.823 243.28 180.11 243.593 179.537 244.22C178.977 244.833 178.697 245.713 178.697 246.86V252H177.017ZM197.555 252.24C196.368 252.24 195.382 251.94 194.595 251.34C193.808 250.74 193.348 249.927 193.215 248.9H194.935C195.042 249.42 195.315 249.873 195.755 250.26C196.208 250.633 196.815 250.82 197.575 250.82C198.282 250.82 198.802 250.673 199.135 250.38C199.468 250.073 199.635 249.713 199.635 249.3C199.635 248.7 199.415 248.3 198.975 248.1C198.548 247.9 197.942 247.72 197.155 247.56C196.622 247.453 196.088 247.3 195.555 247.1C195.022 246.9 194.575 246.62 194.215 246.26C193.855 245.887 193.675 245.4 193.675 244.8C193.675 243.933 193.995 243.227 194.635 242.68C195.288 242.12 196.168 241.84 197.275 241.84C198.328 241.84 199.188 242.107 199.855 242.64C200.535 243.16 200.928 243.907 201.035 244.88H199.375C199.308 244.373 199.088 243.98 198.715 243.7C198.355 243.407 197.868 243.26 197.255 243.26C196.655 243.26 196.188 243.387 195.855 243.64C195.535 243.893 195.375 244.227 195.375 244.64C195.375 245.04 195.582 245.353 195.995 245.58C196.422 245.807 196.995 246 197.715 246.16C198.328 246.293 198.908 246.46 199.455 246.66C200.015 246.847 200.468 247.133 200.815 247.52C201.175 247.893 201.355 248.44 201.355 249.16C201.368 250.053 201.028 250.793 200.335 251.38C199.655 251.953 198.728 252.24 197.555 252.24ZM203.755 252V237.6H205.435V243.78C205.768 243.167 206.242 242.693 206.855 242.36C207.468 242.013 208.135 241.84 208.855 241.84C210.002 241.84 210.922 242.2 211.615 242.92C212.308 243.627 212.655 244.72 212.655 246.2V252H210.995V246.38C210.995 244.313 210.162 243.28 208.495 243.28C207.628 243.28 206.902 243.593 206.315 244.22C205.728 244.833 205.435 245.713 205.435 246.86V252H203.755ZM218.5 252.24C217.674 252.24 216.987 252.1 216.44 251.82C215.894 251.54 215.487 251.167 215.22 250.7C214.954 250.233 214.82 249.727 214.82 249.18C214.82 248.167 215.207 247.387 215.98 246.84C216.754 246.293 217.807 246.02 219.14 246.02H221.82V245.9C221.82 245.033 221.594 244.38 221.14 243.94C220.687 243.487 220.08 243.26 219.32 243.26C218.667 243.26 218.1 243.427 217.62 243.76C217.154 244.08 216.86 244.553 216.74 245.18H215.02C215.087 244.46 215.327 243.853 215.74 243.36C216.167 242.867 216.694 242.493 217.32 242.24C217.947 241.973 218.614 241.84 219.32 241.84C220.707 241.84 221.747 242.213 222.44 242.96C223.147 243.693 223.5 244.673 223.5 245.9V252H222L221.9 250.22C221.62 250.78 221.207 251.26 220.66 251.66C220.127 252.047 219.407 252.24 218.5 252.24ZM218.76 250.82C219.4 250.82 219.947 250.653 220.4 250.32C220.867 249.987 221.22 249.553 221.46 249.02C221.7 248.487 221.82 247.927 221.82 247.34V247.32H219.28C218.294 247.32 217.594 247.493 217.18 247.84C216.78 248.173 216.58 248.593 216.58 249.1C216.58 249.62 216.767 250.04 217.14 250.36C217.527 250.667 218.067 250.82 218.76 250.82ZM226.021 252V242.08H227.541L227.681 243.98C227.987 243.327 228.454 242.807 229.081 242.42C229.707 242.033 230.481 241.84 231.401 241.84V243.6H230.941C230.354 243.6 229.814 243.707 229.321 243.92C228.827 244.12 228.434 244.467 228.141 244.96C227.847 245.453 227.701 246.133 227.701 247V252H226.021ZM237.375 252.24C236.428 252.24 235.588 252.027 234.855 251.6C234.122 251.16 233.542 250.553 233.115 249.78C232.702 249.007 232.495 248.093 232.495 247.04C232.495 246 232.702 245.093 233.115 244.32C233.528 243.533 234.102 242.927 234.835 242.5C235.582 242.06 236.442 241.84 237.415 241.84C238.375 241.84 239.202 242.06 239.895 242.5C240.602 242.927 241.142 243.493 241.515 244.2C241.888 244.907 242.075 245.667 242.075 246.48C242.075 246.627 242.068 246.773 242.055 246.92C242.055 247.067 242.055 247.233 242.055 247.42H234.155C234.195 248.18 234.368 248.813 234.675 249.32C234.995 249.813 235.388 250.187 235.855 250.44C236.335 250.693 236.842 250.82 237.375 250.82C238.068 250.82 238.648 250.66 239.115 250.34C239.582 250.02 239.922 249.587 240.135 249.04H241.795C241.528 249.96 241.015 250.727 240.255 251.34C239.508 251.94 238.548 252.24 237.375 252.24ZM237.375 243.26C236.575 243.26 235.862 243.507 235.235 244C234.622 244.48 234.268 245.187 234.175 246.12H240.415C240.375 245.227 240.068 244.527 239.495 244.02C238.922 243.513 238.215 243.26 237.375 243.26Z" fill="#262626"/>
<defs>
<filter id="filter0_d_55_7661" x="51.5369" y="0" width="136.372" height="158" filterUnits="userSpaceOnUse" color-interpolation-filters="sRGB">
<feFlood flood-opacity="0" result="BackgroundImageFix"/>
<feColorMatrix in="SourceAlpha" type="matrix" values="0 0 0 0 0 0 0 0 0 0 0 0 0 0 0 0 0 0 127 0" result="hardAlpha"/>
<feOffset dy="4"/>
<feGaussianBlur stdDeviation="2"/>
<feComposite in2="hardAlpha" operator="out"/>
<feColorMatrix type="matrix" values="0 0 0 0 0 0 0 0 0 0 0 0 0 0 0 0 0 0 0.25 0"/>
<feBlend mode="normal" in2="BackgroundImageFix" result="effect1_dropShadow_55_7661"/>
<feBlend mode="normal" in="SourceGraphic" in2="effect1_dropShadow_55_7661" result="shape"/>
</filter>
<filter id="filter1_i_55_7661" x="55.5369" y="0" width="128.372" height="154" filterUnits="userSpaceOnUse" color-interpolation-filters="sRGB">
<feFlood flood-opacity="0" result="BackgroundImageFix"/>
<feBlend mode="normal" in="SourceGraphic" in2="BackgroundImageFix" result="shape"/>
<feColorMatrix in="SourceAlpha" type="matrix" values="0 0 0 0 0 0 0 0 0 0 0 0 0 0 0 0 0 0 127 0" result="hardAlpha"/>
<feOffset dy="4"/>
<feGaussianBlur stdDeviation="2"/>
<feComposite in2="hardAlpha" operator="arithmetic" k2="-1" k3="1"/>
<feColorMatrix type="matrix" values="0 0 0 0 0 0 0 0 0 0 0 0 0 0 0 0 0 0 0.25 0"/>
<feBlend mode="normal" in2="shape" result="effect1_innerShadow_55_7661"/>
</filter>
<filter id="filter2_d_55_7661" x="60.6278" y="0" width="136.372" height="158" filterUnits="userSpaceOnUse" color-interpolation-filters="sRGB">
<feFlood flood-opacity="0" result="BackgroundImageFix"/>
<feColorMatrix in="SourceAlpha" type="matrix" values="0 0 0 0 0 0 0 0 0 0 0 0 0 0 0 0 0 0 127 0" result="hardAlpha"/>
<feOffset dy="4"/>
<feGaussianBlur stdDeviation="2"/>
<feComposite in2="hardAlpha" operator="out"/>
<feColorMatrix type="matrix" values="0 0 0 0 0 0 0 0 0 0 0 0 0 0 0 0 0 0 0.25 0"/>
<feBlend mode="normal" in2="BackgroundImageFix" result="effect1_dropShadow_55_7661"/>
<feBlend mode="normal" in="SourceGraphic" in2="effect1_dropShadow_55_7661" result="shape"/>
</filter>
<filter id="filter3_i_55_7661" x="64.6278" y="0" width="128.372" height="154" filterUnits="userSpaceOnUse" color-interpolation-filters="sRGB">
<feFlood flood-opacity="0" result="BackgroundImageFix"/>
<feBlend mode="normal" in="SourceGraphic" in2="BackgroundImageFix" result="shape"/>
<feColorMatrix in="SourceAlpha" type="matrix" values="0 0 0 0 0 0 0 0 0 0 0 0 0 0 0 0 0 0 127 0" result="hardAlpha"/>
<feOffset dy="4"/>
<feGaussianBlur stdDeviation="2"/>
<feComposite in2="hardAlpha" operator="arithmetic" k2="-1" k3="1"/>
<feColorMatrix type="matrix" values="0 0 0 0 0 0 0 0 0 0 0 0 0 0 0 0 0 0 0.25 0"/>
<feBlend mode="normal" in2="shape" result="effect1_innerShadow_55_7661"/>
</filter>
<filter id="filter4_i_55_7661" x="77.1278" y="0" width="128.372" height="154" filterUnits="userSpaceOnUse" color-interpolation-filters="sRGB">
<feFlood flood-opacity="0" result="BackgroundImageFix"/>
<feBlend mode="normal" in="SourceGraphic" in2="BackgroundImageFix" result="shape"/>
<feColorMatrix in="SourceAlpha" type="matrix" values="0 0 0 0 0 0 0 0 0 0 0 0 0 0 0 0 0 0 127 0" result="hardAlpha"/>
<feOffset dy="4"/>
<feGaussianBlur stdDeviation="2"/>
<feComposite in2="hardAlpha" operator="arithmetic" k2="-1" k3="1"/>
<feColorMatrix type="matrix" values="0 0 0 0 0 0 0 0 0 0 0 0 0 0 0 0 0 0 0.25 0"/>
<feBlend mode="normal" in2="shape" result="effect1_innerShadow_55_7661"/>
</filter>
<filter id="filter5_i_55_7661" x="84.3871" y="5.10458" width="118.119" height="77.3185" filterUnits="userSpaceOnUse" color-interpolation-filters="sRGB">
<feFlood flood-opacity="0" result="BackgroundImageFix"/>
<feBlend mode="normal" in="SourceGraphic" in2="BackgroundImageFix" result="shape"/>
<feColorMatrix in="SourceAlpha" type="matrix" values="0 0 0 0 0 0 0 0 0 0 0 0 0 0 0 0 0 0 127 0" result="hardAlpha"/>
<feOffset dy="4"/>
<feGaussianBlur stdDeviation="2"/>
<feComposite in2="hardAlpha" operator="arithmetic" k2="-1" k3="1"/>
<feColorMatrix type="matrix" values="0 0 0 0 0 0 0 0 0 0 0 0 0 0 0 0 0 0 0.25 0"/>
<feBlend mode="normal" in2="shape" result="effect1_innerShadow_55_7661"/>
</filter>
<filter id="filter6_i_55_7661" x="77.0909" y="76.7952" width="114.83" height="71.783" filterUnits="userSpaceOnUse" color-interpolation-filters="sRGB">
<feFlood flood-opacity="0" result="BackgroundImageFix"/>
<feBlend mode="normal" in="SourceGraphic" in2="BackgroundImageFix" result="shape"/>
<feColorMatrix in="SourceAlpha" type="matrix" values="0 0 0 0 0 0 0 0 0 0 0 0 0 0 0 0 0 0 127 0" result="hardAlpha"/>
<feOffset dy="4"/>
<feGaussianBlur stdDeviation="2"/>
<feComposite in2="hardAlpha" operator="arithmetic" k2="-1" k3="1"/>
<feColorMatrix type="matrix" values="0 0 0 0 0 0 0 0 0 0 0 0 0 0 0 0 0 0 0.25 0"/>
<feBlend mode="normal" in2="shape" result="effect1_innerShadow_55_7661"/>
</filter>
</defs>
</svg>
