<svg width="180" height="49" viewBox="0 0 180 49" fill="none" xmlns="http://www.w3.org/2000/svg">
<path d="M1.728 25.0029V7.12293H4.992V22.1229H12.648V25.0029H1.728ZM19.9193 25.2909C18.6393 25.2909 17.4713 24.9949 16.4153 24.4029C15.3753 23.8109 14.5433 23.0029 13.9193 21.9789C13.3113 20.9549 13.0072 19.7869 13.0072 18.4749C13.0072 17.1629 13.3113 15.9949 13.9193 14.9709C14.5433 13.9469 15.3753 13.1389 16.4153 12.5469C17.4553 11.9549 18.6233 11.6589 19.9193 11.6589C21.1993 11.6589 22.3593 11.9549 23.3993 12.5469C24.4393 13.1389 25.2633 13.9469 25.8713 14.9709C26.4953 15.9789 26.8073 17.1469 26.8073 18.4749C26.8073 19.7869 26.4953 20.9549 25.8713 21.9789C25.2473 23.0029 24.4153 23.8109 23.3753 24.4029C22.3353 24.9949 21.1833 25.2909 19.9193 25.2909ZM19.9193 22.4109C20.6233 22.4109 21.2393 22.2429 21.7673 21.9069C22.3113 21.5709 22.7353 21.1069 23.0393 20.5149C23.3593 19.9069 23.5193 19.2269 23.5193 18.4749C23.5193 17.7069 23.3593 17.0349 23.0393 16.4589C22.7353 15.8669 22.3113 15.4029 21.7673 15.0669C21.2393 14.7149 20.6233 14.5389 19.9193 14.5389C19.1993 14.5389 18.5673 14.7149 18.0233 15.0669C17.4793 15.4029 17.0473 15.8669 16.7273 16.4589C16.4233 17.0349 16.2713 17.7069 16.2713 18.4749C16.2713 19.2269 16.4233 19.9069 16.7273 20.5149C17.0473 21.1069 17.4793 21.5709 18.0233 21.9069C18.5673 22.2429 19.1993 22.4109 19.9193 22.4109ZM34.5675 30.2829C33.5915 30.2829 32.6875 30.1229 31.8555 29.8029C31.0235 29.4829 30.3035 29.0349 29.6955 28.4589C29.1035 27.8989 28.6715 27.2349 28.3995 26.4669L31.3275 25.3629C31.5195 25.9709 31.8955 26.4589 32.4555 26.8269C33.0315 27.2109 33.7355 27.4029 34.5675 27.4029C35.2075 27.4029 35.7675 27.2829 36.2475 27.0429C36.7435 26.8029 37.1275 26.4509 37.3995 25.9869C37.6715 25.5389 37.8075 24.9949 37.8075 24.3549V21.3789L38.4075 22.0989C37.9595 22.8829 37.3595 23.4749 36.6075 23.8749C35.8555 24.2749 34.9995 24.4749 34.0395 24.4749C32.8235 24.4749 31.7355 24.1949 30.7755 23.6349C29.8155 23.0749 29.0635 22.3069 28.5195 21.3309C27.9755 20.3549 27.7035 19.2589 27.7035 18.0429C27.7035 16.8109 27.9755 15.7149 28.5195 14.7549C29.0635 13.7949 29.8075 13.0429 30.7515 12.4989C31.6955 11.9389 32.7675 11.6589 33.9675 11.6589C34.9435 11.6589 35.7995 11.8669 36.5355 12.2829C37.2875 12.6829 37.9115 13.2669 38.4075 14.0349L37.9755 14.8269V11.9469H40.9515V24.3549C40.9515 25.4909 40.6715 26.5069 40.1115 27.4029C39.5675 28.2989 38.8155 29.0029 37.8555 29.5149C36.9115 30.0269 35.8155 30.2829 34.5675 30.2829ZM34.4235 21.5709C35.0955 21.5709 35.6795 21.4269 36.1755 21.1389C36.6875 20.8349 37.0875 20.4189 37.3755 19.8909C37.6635 19.3629 37.8075 18.7549 37.8075 18.0669C37.8075 17.3949 37.6555 16.7949 37.3515 16.2669C37.0635 15.7229 36.6635 15.2989 36.1515 14.9949C35.6555 14.6909 35.0795 14.5389 34.4235 14.5389C33.7675 14.5389 33.1755 14.6909 32.6475 14.9949C32.1195 15.2989 31.7035 15.7229 31.3995 16.2669C31.1115 16.7949 30.9675 17.3949 30.9675 18.0669C30.9675 18.7389 31.1115 19.3389 31.3995 19.8669C31.7035 20.3949 32.1115 20.8109 32.6235 21.1149C33.1515 21.4189 33.7515 21.5709 34.4235 21.5709ZM42.9277 25.0029V11.9469H46.0717V25.0029H42.9277ZM42.9277 10.4829V7.12293H46.0717V10.4829H42.9277ZM48.0146 25.0029V11.9469H50.9666V14.5149L50.7266 14.0589C51.0306 13.2749 51.5266 12.6829 52.2146 12.2829C52.9186 11.8669 53.7346 11.6589 54.6626 11.6589C55.6226 11.6589 56.4706 11.8669 57.2066 12.2829C57.9586 12.6989 58.5426 13.2829 58.9586 14.0349C59.3746 14.7709 59.5826 15.6269 59.5826 16.6029V25.0029H56.4386V17.3469C56.4386 16.7709 56.3266 16.2749 56.1026 15.8589C55.8786 15.4429 55.5666 15.1229 55.1666 14.8989C54.7826 14.6589 54.3266 14.5389 53.7986 14.5389C53.2866 14.5389 52.8306 14.6589 52.4306 14.8989C52.0306 15.1229 51.7186 15.4429 51.4946 15.8589C51.2706 16.2749 51.1586 16.7709 51.1586 17.3469V25.0029H48.0146Z" fill="#0047FF"/>
<path d="M2.616 44.5738L0.312 36.1618H1.392L3.204 43.3738L5.268 36.1618H6.384L8.388 43.3738L10.224 36.1618H11.304L8.952 44.5618H7.8L5.796 37.6258L3.744 44.5618L2.616 44.5738ZM14.4962 44.7058C13.9282 44.7058 13.4242 44.5778 12.9842 44.3218C12.5442 44.0578 12.1962 43.6938 11.9402 43.2298C11.6922 42.7658 11.5682 42.2178 11.5682 41.5858C11.5682 40.9618 11.6922 40.4178 11.9402 39.9538C12.1882 39.4818 12.5322 39.1178 12.9722 38.8618C13.4202 38.5978 13.9362 38.4658 14.5202 38.4658C15.0962 38.4658 15.5922 38.5978 16.0082 38.8618C16.4322 39.1178 16.7562 39.4578 16.9802 39.8818C17.2042 40.3058 17.3162 40.7618 17.3162 41.2498C17.3162 41.3378 17.3122 41.4258 17.3042 41.5138C17.3042 41.6018 17.3042 41.7018 17.3042 41.8138H12.5642C12.5882 42.2698 12.6922 42.6498 12.8762 42.9538C13.0682 43.2498 13.3042 43.4738 13.5842 43.6258C13.8722 43.7778 14.1762 43.8538 14.4962 43.8538C14.9122 43.8538 15.2602 43.7578 15.5402 43.5658C15.8202 43.3738 16.0242 43.1138 16.1522 42.7858H17.1482C16.9882 43.3378 16.6802 43.7978 16.2242 44.1658C15.7762 44.5258 15.2002 44.7058 14.4962 44.7058ZM14.4962 39.3178C14.0162 39.3178 13.5882 39.4658 13.2122 39.7618C12.8442 40.0498 12.6322 40.4738 12.5762 41.0338H16.3202C16.2962 40.4978 16.1122 40.0778 15.7682 39.7738C15.4242 39.4698 15.0002 39.3178 14.4962 39.3178ZM18.6522 44.5618V35.9218H19.6602V44.5618H18.6522ZM24.0484 44.7058C23.4804 44.7058 22.9684 44.5778 22.5124 44.3218C22.0644 44.0578 21.7084 43.6938 21.4444 43.2298C21.1884 42.7578 21.0604 42.2098 21.0604 41.5858C21.0604 40.9618 21.1884 40.4178 21.4444 39.9538C21.7084 39.4818 22.0644 39.1178 22.5124 38.8618C22.9684 38.5978 23.4804 38.4658 24.0484 38.4658C24.7524 38.4658 25.3444 38.6498 25.8244 39.0178C26.3124 39.3858 26.6204 39.8778 26.7484 40.4938H25.7164C25.6364 40.1258 25.4404 39.8418 25.1284 39.6418C24.8164 39.4338 24.4524 39.3298 24.0364 39.3298C23.7004 39.3298 23.3844 39.4138 23.0884 39.5818C22.7924 39.7498 22.5524 40.0018 22.3684 40.3378C22.1844 40.6738 22.0924 41.0898 22.0924 41.5858C22.0924 42.0818 22.1844 42.4978 22.3684 42.8338C22.5524 43.1698 22.7924 43.4258 23.0884 43.6018C23.3844 43.7698 23.7004 43.8538 24.0364 43.8538C24.4524 43.8538 24.8164 43.7538 25.1284 43.5538C25.4404 43.3458 25.6364 43.0538 25.7164 42.6778H26.7484C26.6284 43.2778 26.3244 43.7658 25.8364 44.1418C25.3484 44.5178 24.7524 44.7058 24.0484 44.7058ZM30.8681 44.7058C30.3081 44.7058 29.8041 44.5778 29.3561 44.3218C28.9081 44.0658 28.5521 43.7058 28.2881 43.2418C28.0321 42.7698 27.9041 42.2178 27.9041 41.5858C27.9041 40.9538 28.0361 40.4058 28.3001 39.9418C28.5641 39.4698 28.9201 39.1058 29.3681 38.8498C29.8241 38.5938 30.3321 38.4658 30.8921 38.4658C31.4521 38.4658 31.9561 38.5938 32.4041 38.8498C32.8521 39.1058 33.2041 39.4698 33.4601 39.9418C33.7241 40.4058 33.8561 40.9538 33.8561 41.5858C33.8561 42.2178 33.7241 42.7698 33.4601 43.2418C33.1961 43.7058 32.8361 44.0658 32.3801 44.3218C31.9321 44.5778 31.4281 44.7058 30.8681 44.7058ZM30.8681 43.8418C31.2121 43.8418 31.5321 43.7578 31.8281 43.5898C32.1241 43.4218 32.3641 43.1698 32.5481 42.8338C32.7321 42.4978 32.8241 42.0818 32.8241 41.5858C32.8241 41.0898 32.7321 40.6738 32.5481 40.3378C32.3721 40.0018 32.1361 39.7498 31.8401 39.5818C31.5441 39.4138 31.2281 39.3298 30.8921 39.3298C30.5481 39.3298 30.2281 39.4138 29.9321 39.5818C29.6361 39.7498 29.3961 40.0018 29.2121 40.3378C29.0281 40.6738 28.9361 41.0898 28.9361 41.5858C28.9361 42.0818 29.0281 42.4978 29.2121 42.8338C29.3961 43.1698 29.6321 43.4218 29.9201 43.5898C30.2161 43.7578 30.5321 43.8418 30.8681 43.8418ZM35.2577 44.5618V38.6098H36.1697L36.2417 39.4738C36.4337 39.1538 36.6897 38.9058 37.0097 38.7298C37.3297 38.5538 37.6897 38.4658 38.0897 38.4658C38.5617 38.4658 38.9657 38.5618 39.3017 38.7538C39.6457 38.9458 39.9097 39.2378 40.0937 39.6298C40.3017 39.2698 40.5857 38.9858 40.9457 38.7778C41.3137 38.5698 41.7097 38.4658 42.1337 38.4658C42.8457 38.4658 43.4137 38.6818 43.8377 39.1138C44.2617 39.5378 44.4737 40.1938 44.4737 41.0818V44.5618H43.4777V41.1898C43.4777 40.5738 43.3537 40.1098 43.1057 39.7978C42.8577 39.4858 42.5017 39.3298 42.0377 39.3298C41.5577 39.3298 41.1577 39.5178 40.8377 39.8938C40.5257 40.2618 40.3697 40.7898 40.3697 41.4778V44.5618H39.3617V41.1898C39.3617 40.5738 39.2377 40.1098 38.9897 39.7978C38.7417 39.4858 38.3857 39.3298 37.9217 39.3298C37.4497 39.3298 37.0537 39.5178 36.7337 39.8938C36.4217 40.2618 36.2657 40.7898 36.2657 41.4778V44.5618H35.2577ZM48.6681 44.7058C48.1001 44.7058 47.5961 44.5778 47.1561 44.3218C46.7161 44.0578 46.3681 43.6938 46.1121 43.2298C45.8641 42.7658 45.7401 42.2178 45.7401 41.5858C45.7401 40.9618 45.8641 40.4178 46.1121 39.9538C46.3601 39.4818 46.7041 39.1178 47.1441 38.8618C47.5921 38.5978 48.1081 38.4658 48.6921 38.4658C49.2681 38.4658 49.7641 38.5978 50.1801 38.8618C50.6041 39.1178 50.9281 39.4578 51.1521 39.8818C51.3761 40.3058 51.4881 40.7618 51.4881 41.2498C51.4881 41.3378 51.4841 41.4258 51.4761 41.5138C51.4761 41.6018 51.4761 41.7018 51.4761 41.8138H46.7361C46.7601 42.2698 46.8641 42.6498 47.0481 42.9538C47.2401 43.2498 47.4761 43.4738 47.7561 43.6258C48.0441 43.7778 48.3481 43.8538 48.6681 43.8538C49.0841 43.8538 49.4321 43.7578 49.7121 43.5658C49.9921 43.3738 50.1961 43.1138 50.3241 42.7858H51.3201C51.1601 43.3378 50.8521 43.7978 50.3961 44.1658C49.9481 44.5258 49.3721 44.7058 48.6681 44.7058ZM48.6681 39.3178C48.1881 39.3178 47.7601 39.4658 47.3841 39.7618C47.0161 40.0498 46.8041 40.4738 46.7481 41.0338H50.4921C50.4681 40.4978 50.2841 40.0778 49.9401 39.7738C49.5961 39.4698 49.1721 39.3178 48.6681 39.3178ZM59.1799 44.7058C58.6919 44.7058 58.2559 44.6058 57.8719 44.4058C57.4959 44.2058 57.2079 43.9258 57.0079 43.5658L56.9119 44.5618H55.9999V35.9218H57.0079V39.5938C57.1999 39.3058 57.4719 39.0458 57.8239 38.8138C58.1839 38.5818 58.6399 38.4658 59.1919 38.4658C59.7839 38.4658 60.2999 38.6018 60.7399 38.8738C61.1799 39.1458 61.5199 39.5178 61.7599 39.9898C62.0079 40.4618 62.1319 40.9978 62.1319 41.5978C62.1319 42.1978 62.0079 42.7338 61.7599 43.2058C61.5199 43.6698 61.1759 44.0378 60.7279 44.3098C60.2879 44.5738 59.7719 44.7058 59.1799 44.7058ZM59.0719 43.8298C59.4719 43.8298 59.8239 43.7378 60.1279 43.5538C60.4319 43.3618 60.6719 43.0978 60.8479 42.7618C61.0239 42.4258 61.1119 42.0338 61.1119 41.5858C61.1119 41.1378 61.0239 40.7458 60.8479 40.4098C60.6719 40.0738 60.4319 39.8138 60.1279 39.6298C59.8239 39.4378 59.4719 39.3418 59.0719 39.3418C58.6719 39.3418 58.3199 39.4378 58.0159 39.6298C57.7119 39.8138 57.4719 40.0738 57.2959 40.4098C57.1199 40.7458 57.0319 41.1378 57.0319 41.5858C57.0319 42.0338 57.1199 42.4258 57.2959 42.7618C57.4719 43.0978 57.7119 43.3618 58.0159 43.5538C58.3199 43.7378 58.6719 43.8298 59.0719 43.8298ZM65.515 44.7058C65.019 44.7058 64.607 44.6218 64.279 44.4538C63.951 44.2858 63.707 44.0618 63.547 43.7818C63.387 43.5018 63.307 43.1978 63.307 42.8698C63.307 42.2618 63.539 41.7938 64.003 41.4658C64.467 41.1378 65.099 40.9738 65.899 40.9738H67.507V40.9018C67.507 40.3818 67.371 39.9898 67.099 39.7258C66.827 39.4538 66.463 39.3178 66.007 39.3178C65.615 39.3178 65.275 39.4178 64.987 39.6178C64.707 39.8098 64.531 40.0938 64.459 40.4698H63.427C63.467 40.0378 63.611 39.6738 63.859 39.3778C64.115 39.0818 64.431 38.8578 64.807 38.7058C65.183 38.5458 65.583 38.4658 66.007 38.4658C66.839 38.4658 67.463 38.6898 67.879 39.1378C68.303 39.5778 68.515 40.1658 68.515 40.9018V44.5618H67.615L67.555 43.4938C67.387 43.8298 67.139 44.1178 66.811 44.3578C66.491 44.5898 66.059 44.7058 65.515 44.7058ZM65.671 43.8538C66.055 43.8538 66.383 43.7538 66.655 43.5538C66.935 43.3538 67.147 43.0938 67.291 42.7738C67.435 42.4538 67.507 42.1178 67.507 41.7658V41.7538H65.983C65.391 41.7538 64.971 41.8578 64.723 42.0658C64.483 42.2658 64.363 42.5178 64.363 42.8218C64.363 43.1338 64.475 43.3858 64.699 43.5778C64.931 43.7618 65.255 43.8538 65.671 43.8538ZM72.7632 44.7058C72.1952 44.7058 71.6832 44.5778 71.2272 44.3218C70.7792 44.0578 70.4232 43.6938 70.1592 43.2298C69.9032 42.7578 69.7752 42.2098 69.7752 41.5858C69.7752 40.9618 69.9032 40.4178 70.1592 39.9538C70.4232 39.4818 70.7792 39.1178 71.2272 38.8618C71.6832 38.5978 72.1952 38.4658 72.7632 38.4658C73.4672 38.4658 74.0592 38.6498 74.5392 39.0178C75.0272 39.3858 75.3352 39.8778 75.4632 40.4938H74.4312C74.3512 40.1258 74.1552 39.8418 73.8432 39.6418C73.5312 39.4338 73.1672 39.3298 72.7512 39.3298C72.4152 39.3298 72.0992 39.4138 71.8032 39.5818C71.5072 39.7498 71.2672 40.0018 71.0832 40.3378C70.8992 40.6738 70.8072 41.0898 70.8072 41.5858C70.8072 42.0818 70.8992 42.4978 71.0832 42.8338C71.2672 43.1698 71.5072 43.4258 71.8032 43.6018C72.0992 43.7698 72.4152 43.8538 72.7512 43.8538C73.1672 43.8538 73.5312 43.7538 73.8432 43.5538C74.1552 43.3458 74.3512 43.0538 74.4312 42.6778H75.4632C75.3432 43.2778 75.0392 43.7658 74.5512 44.1418C74.0632 44.5178 73.4672 44.7058 72.7632 44.7058ZM76.871 44.5618V35.9218H77.879V41.1178L80.315 38.6098H81.551L78.911 41.2978L81.887 44.5618H80.603L77.879 41.4778V44.5618H76.871ZM83.1338 42.2338L83.0138 36.1618H84.1058L83.9858 42.2338H83.1338ZM83.5898 44.6218C83.3898 44.6218 83.2218 44.5578 83.0858 44.4298C82.9578 44.2938 82.8938 44.1298 82.8938 43.9378C82.8938 43.7458 82.9578 43.5858 83.0858 43.4578C83.2218 43.3218 83.3898 43.2538 83.5898 43.2538C83.7818 43.2538 83.9418 43.3218 84.0698 43.4578C84.2058 43.5858 84.2738 43.7458 84.2738 43.9378C84.2738 44.1298 84.2058 44.2938 84.0698 44.4298C83.9418 44.5578 83.7818 44.6218 83.5898 44.6218ZM89.0702 44.5618V38.6098H89.9822L90.0662 39.7498C90.2502 39.3578 90.5302 39.0458 90.9062 38.8138C91.2822 38.5818 91.7462 38.4658 92.2982 38.4658V39.5218H92.0222C91.6702 39.5218 91.3462 39.5858 91.0502 39.7138C90.7542 39.8338 90.5182 40.0418 90.3422 40.3378C90.1662 40.6338 90.0782 41.0418 90.0782 41.5618V44.5618H89.0702ZM95.8829 44.7058C95.3149 44.7058 94.8109 44.5778 94.3709 44.3218C93.9309 44.0578 93.5829 43.6938 93.3269 43.2298C93.0789 42.7658 92.9549 42.2178 92.9549 41.5858C92.9549 40.9618 93.0789 40.4178 93.3269 39.9538C93.5749 39.4818 93.9189 39.1178 94.3589 38.8618C94.8069 38.5978 95.3229 38.4658 95.9069 38.4658C96.4829 38.4658 96.9789 38.5978 97.3949 38.8618C97.8189 39.1178 98.1429 39.4578 98.3669 39.8818C98.5909 40.3058 98.7029 40.7618 98.7029 41.2498C98.7029 41.3378 98.6989 41.4258 98.6909 41.5138C98.6909 41.6018 98.6909 41.7018 98.6909 41.8138H93.9509C93.9749 42.2698 94.0789 42.6498 94.2629 42.9538C94.4549 43.2498 94.6909 43.4738 94.9709 43.6258C95.2589 43.7778 95.5629 43.8538 95.8829 43.8538C96.2989 43.8538 96.6469 43.7578 96.9269 43.5658C97.2069 43.3738 97.4109 43.1138 97.5389 42.7858H98.5349C98.3749 43.3378 98.0669 43.7978 97.6109 44.1658C97.1629 44.5258 96.5869 44.7058 95.8829 44.7058ZM95.8829 39.3178C95.4029 39.3178 94.9749 39.4658 94.5989 39.7618C94.2309 40.0498 94.0189 40.4738 93.9629 41.0338H97.7069C97.6829 40.4978 97.4989 40.0778 97.1549 39.7738C96.8109 39.4698 96.3869 39.3178 95.8829 39.3178ZM102.019 44.7058C101.523 44.7058 101.111 44.6218 100.783 44.4538C100.455 44.2858 100.211 44.0618 100.051 43.7818C99.8909 43.5018 99.8109 43.1978 99.8109 42.8698C99.8109 42.2618 100.043 41.7938 100.507 41.4658C100.971 41.1378 101.603 40.9738 102.403 40.9738H104.011V40.9018C104.011 40.3818 103.875 39.9898 103.603 39.7258C103.331 39.4538 102.967 39.3178 102.511 39.3178C102.119 39.3178 101.779 39.4178 101.491 39.6178C101.211 39.8098 101.035 40.0938 100.963 40.4698H99.9309C99.9709 40.0378 100.115 39.6738 100.363 39.3778C100.619 39.0818 100.935 38.8578 101.311 38.7058C101.687 38.5458 102.087 38.4658 102.511 38.4658C103.343 38.4658 103.967 38.6898 104.383 39.1378C104.807 39.5778 105.019 40.1658 105.019 40.9018V44.5618H104.119L104.059 43.4938C103.891 43.8298 103.643 44.1178 103.315 44.3578C102.995 44.5898 102.563 44.7058 102.019 44.7058ZM102.175 43.8538C102.559 43.8538 102.887 43.7538 103.159 43.5538C103.439 43.3538 103.651 43.0938 103.795 42.7738C103.939 42.4538 104.011 42.1178 104.011 41.7658V41.7538H102.487C101.895 41.7538 101.475 41.8578 101.227 42.0658C100.987 42.2658 100.867 42.5178 100.867 42.8218C100.867 43.1338 100.979 43.3858 101.203 43.5778C101.435 43.7618 101.759 43.8538 102.175 43.8538ZM109.231 44.7058C108.639 44.7058 108.119 44.5698 107.671 44.2978C107.231 44.0258 106.887 43.6538 106.639 43.1818C106.399 42.7098 106.279 42.1738 106.279 41.5738C106.279 40.9738 106.403 40.4418 106.651 39.9778C106.899 39.5058 107.243 39.1378 107.683 38.8738C108.123 38.6018 108.643 38.4658 109.243 38.4658C109.731 38.4658 110.163 38.5658 110.539 38.7658C110.915 38.9658 111.207 39.2458 111.415 39.6058V35.9218H112.423V44.5618H111.511L111.415 43.5778C111.223 43.8658 110.947 44.1258 110.587 44.3578C110.227 44.5898 109.775 44.7058 109.231 44.7058ZM109.339 43.8298C109.739 43.8298 110.091 43.7378 110.395 43.5538C110.707 43.3618 110.947 43.0978 111.115 42.7618C111.291 42.4258 111.379 42.0338 111.379 41.5858C111.379 41.1378 111.291 40.7458 111.115 40.4098C110.947 40.0738 110.707 39.8138 110.395 39.6298C110.091 39.4378 109.739 39.3418 109.339 39.3418C108.947 39.3418 108.595 39.4378 108.283 39.6298C107.979 39.8138 107.739 40.0738 107.563 40.4098C107.395 40.7458 107.311 41.1378 107.311 41.5858C107.311 42.0338 107.395 42.4258 107.563 42.7618C107.739 43.0978 107.979 43.3618 108.283 43.5538C108.595 43.7378 108.947 43.8298 109.339 43.8298ZM114.714 47.2018L116.19 43.9858H115.842L113.478 38.6098H114.57L116.538 43.2418L118.626 38.6098H119.67L115.77 47.2018H114.714ZM126.262 44.5618C125.718 44.5618 125.29 44.4298 124.978 44.1658C124.666 43.9018 124.51 43.4258 124.51 42.7378V39.4618H123.478V38.6098H124.51L124.642 37.1818H125.518V38.6098H127.27V39.4618H125.518V42.7378C125.518 43.1138 125.594 43.3698 125.746 43.5058C125.898 43.6338 126.166 43.6978 126.55 43.6978H127.174V44.5618H126.262ZM131.099 44.7058C130.539 44.7058 130.035 44.5778 129.587 44.3218C129.139 44.0658 128.783 43.7058 128.519 43.2418C128.263 42.7698 128.135 42.2178 128.135 41.5858C128.135 40.9538 128.267 40.4058 128.531 39.9418C128.795 39.4698 129.151 39.1058 129.599 38.8498C130.055 38.5938 130.563 38.4658 131.123 38.4658C131.683 38.4658 132.187 38.5938 132.635 38.8498C133.083 39.1058 133.435 39.4698 133.691 39.9418C133.955 40.4058 134.087 40.9538 134.087 41.5858C134.087 42.2178 133.955 42.7698 133.691 43.2418C133.427 43.7058 133.067 44.0658 132.611 44.3218C132.163 44.5778 131.659 44.7058 131.099 44.7058ZM131.099 43.8418C131.443 43.8418 131.763 43.7578 132.059 43.5898C132.355 43.4218 132.595 43.1698 132.779 42.8338C132.963 42.4978 133.055 42.0818 133.055 41.5858C133.055 41.0898 132.963 40.6738 132.779 40.3378C132.603 40.0018 132.367 39.7498 132.071 39.5818C131.775 39.4138 131.459 39.3298 131.123 39.3298C130.779 39.3298 130.459 39.4138 130.163 39.5818C129.867 39.7498 129.627 40.0018 129.443 40.3378C129.259 40.6738 129.167 41.0898 129.167 41.5858C129.167 42.0818 129.259 42.4978 129.443 42.8338C129.627 43.1698 129.863 43.4218 130.151 43.5898C130.447 43.7578 130.763 43.8418 131.099 43.8418ZM140.944 44.7058C140.232 44.7058 139.64 44.5258 139.168 44.1658C138.696 43.8058 138.42 43.3178 138.34 42.7018H139.372C139.436 43.0138 139.6 43.2858 139.864 43.5178C140.136 43.7418 140.5 43.8538 140.956 43.8538C141.38 43.8538 141.692 43.7658 141.892 43.5898C142.092 43.4058 142.192 43.1898 142.192 42.9418C142.192 42.5818 142.06 42.3418 141.796 42.2218C141.54 42.1018 141.176 41.9938 140.704 41.8978C140.384 41.8338 140.064 41.7418 139.744 41.6218C139.424 41.5018 139.156 41.3338 138.94 41.1178C138.724 40.8938 138.616 40.6018 138.616 40.2418C138.616 39.7218 138.808 39.2978 139.192 38.9698C139.584 38.6338 140.112 38.4658 140.776 38.4658C141.408 38.4658 141.924 38.6258 142.324 38.9458C142.732 39.2578 142.968 39.7058 143.032 40.2898H142.036C141.996 39.9858 141.864 39.7498 141.64 39.5818C141.424 39.4058 141.132 39.3178 140.764 39.3178C140.404 39.3178 140.124 39.3938 139.924 39.5458C139.732 39.6978 139.636 39.8978 139.636 40.1458C139.636 40.3858 139.76 40.5738 140.008 40.7098C140.264 40.8458 140.608 40.9618 141.04 41.0578C141.408 41.1378 141.756 41.2378 142.084 41.3578C142.42 41.4698 142.692 41.6418 142.9 41.8738C143.116 42.0978 143.224 42.4258 143.224 42.8578C143.232 43.3938 143.028 43.8378 142.612 44.1898C142.204 44.5338 141.648 44.7058 140.944 44.7058ZM144.664 44.5618V35.9218H145.672V39.6298C145.872 39.2618 146.156 38.9778 146.524 38.7778C146.892 38.5698 147.292 38.4658 147.724 38.4658C148.412 38.4658 148.964 38.6818 149.38 39.1138C149.796 39.5378 150.004 40.1938 150.004 41.0818V44.5618H149.008V41.1898C149.008 39.9498 148.508 39.3298 147.508 39.3298C146.988 39.3298 146.552 39.5178 146.2 39.8938C145.848 40.2618 145.672 40.7898 145.672 41.4778V44.5618H144.664ZM153.511 44.7058C153.015 44.7058 152.603 44.6218 152.275 44.4538C151.947 44.2858 151.703 44.0618 151.543 43.7818C151.383 43.5018 151.303 43.1978 151.303 42.8698C151.303 42.2618 151.535 41.7938 151.999 41.4658C152.463 41.1378 153.095 40.9738 153.895 40.9738H155.503V40.9018C155.503 40.3818 155.367 39.9898 155.095 39.7258C154.823 39.4538 154.459 39.3178 154.003 39.3178C153.611 39.3178 153.271 39.4178 152.983 39.6178C152.703 39.8098 152.527 40.0938 152.455 40.4698H151.423C151.463 40.0378 151.607 39.6738 151.855 39.3778C152.111 39.0818 152.427 38.8578 152.803 38.7058C153.179 38.5458 153.579 38.4658 154.003 38.4658C154.835 38.4658 155.459 38.6898 155.875 39.1378C156.299 39.5778 156.511 40.1658 156.511 40.9018V44.5618H155.611L155.551 43.4938C155.383 43.8298 155.135 44.1178 154.807 44.3578C154.487 44.5898 154.055 44.7058 153.511 44.7058ZM153.667 43.8538C154.051 43.8538 154.379 43.7538 154.651 43.5538C154.931 43.3538 155.143 43.0938 155.287 42.7738C155.431 42.4538 155.503 42.1178 155.503 41.7658V41.7538H153.979C153.387 41.7538 152.967 41.8578 152.719 42.0658C152.479 42.2658 152.359 42.5178 152.359 42.8218C152.359 43.1338 152.471 43.3858 152.695 43.5778C152.927 43.7618 153.251 43.8538 153.667 43.8538ZM158.023 44.5618V38.6098H158.935L159.019 39.7498C159.203 39.3578 159.483 39.0458 159.859 38.8138C160.235 38.5818 160.699 38.4658 161.251 38.4658V39.5218H160.975C160.623 39.5218 160.299 39.5858 160.003 39.7138C159.707 39.8338 159.471 40.0418 159.295 40.3378C159.119 40.6338 159.031 41.0418 159.031 41.5618V44.5618H158.023ZM164.836 44.7058C164.268 44.7058 163.764 44.5778 163.324 44.3218C162.884 44.0578 162.536 43.6938 162.28 43.2298C162.032 42.7658 161.908 42.2178 161.908 41.5858C161.908 40.9618 162.032 40.4178 162.28 39.9538C162.528 39.4818 162.872 39.1178 163.312 38.8618C163.76 38.5978 164.276 38.4658 164.86 38.4658C165.436 38.4658 165.932 38.5978 166.348 38.8618C166.772 39.1178 167.096 39.4578 167.32 39.8818C167.544 40.3058 167.656 40.7618 167.656 41.2498C167.656 41.3378 167.652 41.4258 167.644 41.5138C167.644 41.6018 167.644 41.7018 167.644 41.8138H162.904C162.928 42.2698 163.032 42.6498 163.216 42.9538C163.408 43.2498 163.644 43.4738 163.924 43.6258C164.212 43.7778 164.516 43.8538 164.836 43.8538C165.252 43.8538 165.6 43.7578 165.88 43.5658C166.16 43.3738 166.364 43.1138 166.492 42.7858H167.488C167.328 43.3378 167.02 43.7978 166.564 44.1658C166.116 44.5258 165.54 44.7058 164.836 44.7058ZM164.836 39.3178C164.356 39.3178 163.928 39.4658 163.552 39.7618C163.184 40.0498 162.972 40.4738 162.916 41.0338H166.66C166.636 40.4978 166.452 40.0778 166.108 39.7738C165.764 39.4698 165.34 39.3178 164.836 39.3178ZM169.742 42.2098L169.694 40.2778H170.066C170.514 40.2778 170.93 40.2338 171.314 40.1458C171.706 40.0578 172.022 39.8858 172.262 39.6298C172.502 39.3738 172.622 38.9898 172.622 38.4778C172.622 37.9818 172.466 37.5898 172.154 37.3018C171.85 37.0138 171.446 36.8698 170.942 36.8698C170.43 36.8698 170.026 37.0098 169.73 37.2898C169.434 37.5698 169.286 37.9458 169.286 38.4178H168.326C168.326 37.9378 168.434 37.5178 168.65 37.1578C168.874 36.7978 169.182 36.5178 169.574 36.3178C169.966 36.1178 170.422 36.0178 170.942 36.0178C171.462 36.0178 171.922 36.1178 172.322 36.3178C172.722 36.5178 173.034 36.8018 173.258 37.1698C173.482 37.5378 173.594 37.9738 173.594 38.4778C173.594 39.0698 173.466 39.5498 173.21 39.9178C172.962 40.2858 172.614 40.5538 172.166 40.7218C171.726 40.8898 171.222 40.9738 170.654 40.9738L170.618 42.2098H169.742ZM170.174 44.6218C169.974 44.6218 169.806 44.5578 169.67 44.4298C169.542 44.2938 169.478 44.1298 169.478 43.9378C169.478 43.7458 169.542 43.5858 169.67 43.4578C169.806 43.3218 169.974 43.2538 170.174 43.2538C170.374 43.2538 170.538 43.3218 170.666 43.4578C170.794 43.5858 170.858 43.7458 170.858 43.9378C170.858 44.1298 170.794 44.2938 170.666 44.4298C170.538 44.5578 170.374 44.6218 170.174 44.6218Z" fill="#262626"/>
</svg>
