<svg width="180" height="49" viewBox="0 0 180 49" fill="none" xmlns="http://www.w3.org/2000/svg">
<path d="M61.228 25.0029V7.12293H64.492V22.1229H72.148V25.0029H61.228ZM79.4193 25.2909C78.1393 25.2909 76.9713 24.9949 75.9153 24.4029C74.8753 23.8109 74.0433 23.0029 73.4193 21.9789C72.8113 20.9549 72.5072 19.7869 72.5072 18.4749C72.5072 17.1629 72.8113 15.9949 73.4193 14.9709C74.0433 13.9469 74.8753 13.1389 75.9153 12.5469C76.9553 11.9549 78.1233 11.6589 79.4193 11.6589C80.6993 11.6589 81.8593 11.9549 82.8993 12.5469C83.9393 13.1389 84.7633 13.9469 85.3713 14.9709C85.9953 15.9789 86.3073 17.1469 86.3073 18.4749C86.3073 19.7869 85.9953 20.9549 85.3713 21.9789C84.7473 23.0029 83.9153 23.8109 82.8753 24.4029C81.8353 24.9949 80.6833 25.2909 79.4193 25.2909ZM79.4193 22.4109C80.1233 22.4109 80.7393 22.2429 81.2673 21.9069C81.8113 21.5709 82.2353 21.1069 82.5393 20.5149C82.8593 19.9069 83.0193 19.2269 83.0193 18.4749C83.0193 17.7069 82.8593 17.0349 82.5393 16.4589C82.2353 15.8669 81.8113 15.4029 81.2673 15.0669C80.7393 14.7149 80.1233 14.5389 79.4193 14.5389C78.6993 14.5389 78.0673 14.7149 77.5233 15.0669C76.9793 15.4029 76.5473 15.8669 76.2273 16.4589C75.9233 17.0349 75.7713 17.7069 75.7713 18.4749C75.7713 19.2269 75.9233 19.9069 76.2273 20.5149C76.5473 21.1069 76.9793 21.5709 77.5233 21.9069C78.0673 22.2429 78.6993 22.4109 79.4193 22.4109ZM94.0675 30.2829C93.0915 30.2829 92.1875 30.1229 91.3555 29.8029C90.5235 29.4829 89.8035 29.0349 89.1955 28.4589C88.6035 27.8989 88.1715 27.2349 87.8995 26.4669L90.8275 25.3629C91.0195 25.9709 91.3955 26.4589 91.9555 26.8269C92.5315 27.2109 93.2355 27.4029 94.0675 27.4029C94.7075 27.4029 95.2675 27.2829 95.7475 27.0429C96.2435 26.8029 96.6275 26.4509 96.8995 25.9869C97.1715 25.5389 97.3075 24.9949 97.3075 24.3549V21.3789L97.9075 22.0989C97.4595 22.8829 96.8595 23.4749 96.1075 23.8749C95.3555 24.2749 94.4995 24.4749 93.5395 24.4749C92.3235 24.4749 91.2355 24.1949 90.2755 23.6349C89.3155 23.0749 88.5635 22.3069 88.0195 21.3309C87.4755 20.3549 87.2035 19.2589 87.2035 18.0429C87.2035 16.8109 87.4755 15.7149 88.0195 14.7549C88.5635 13.7949 89.3075 13.0429 90.2515 12.4989C91.1955 11.9389 92.2675 11.6589 93.4675 11.6589C94.4435 11.6589 95.2995 11.8669 96.0355 12.2829C96.7875 12.6829 97.4115 13.2669 97.9075 14.0349L97.4755 14.8269V11.9469H100.452V24.3549C100.452 25.4909 100.172 26.5069 99.6115 27.4029C99.0675 28.2989 98.3155 29.0029 97.3555 29.5149C96.4115 30.0269 95.3155 30.2829 94.0675 30.2829ZM93.9235 21.5709C94.5955 21.5709 95.1795 21.4269 95.6755 21.1389C96.1875 20.8349 96.5875 20.4189 96.8755 19.8909C97.1635 19.3629 97.3075 18.7549 97.3075 18.0669C97.3075 17.3949 97.1555 16.7949 96.8515 16.2669C96.5635 15.7229 96.1635 15.2989 95.6515 14.9949C95.1555 14.6909 94.5795 14.5389 93.9235 14.5389C93.2675 14.5389 92.6755 14.6909 92.1475 14.9949C91.6195 15.2989 91.2035 15.7229 90.8995 16.2669C90.6115 16.7949 90.4675 17.3949 90.4675 18.0669C90.4675 18.7389 90.6115 19.3389 90.8995 19.8669C91.2035 20.3949 91.6115 20.8109 92.1235 21.1149C92.6515 21.4189 93.2515 21.5709 93.9235 21.5709ZM102.428 25.0029V11.9469H105.572V25.0029H102.428ZM102.428 10.4829V7.12293H105.572V10.4829H102.428ZM107.515 25.0029V11.9469H110.467V14.5149L110.227 14.0589C110.531 13.2749 111.027 12.6829 111.715 12.2829C112.419 11.8669 113.235 11.6589 114.163 11.6589C115.123 11.6589 115.971 11.8669 116.707 12.2829C117.459 12.6989 118.043 13.2829 118.459 14.0349C118.875 14.7709 119.083 15.6269 119.083 16.6029V25.0029H115.939V17.3469C115.939 16.7709 115.827 16.2749 115.603 15.8589C115.379 15.4429 115.067 15.1229 114.667 14.8989C114.283 14.6589 113.827 14.5389 113.299 14.5389C112.787 14.5389 112.331 14.6589 111.931 14.8989C111.531 15.1229 111.219 15.4429 110.995 15.8589C110.771 16.2749 110.659 16.7709 110.659 17.3469V25.0029H107.515Z" fill="#0047FF"/>
<path d="M5.55741 44.5738L3.25341 36.1618H4.33341L6.14541 43.3738L8.20941 36.1618H9.32541L11.3294 43.3738L13.1654 36.1618H14.2454L11.8934 44.5618H10.7414L8.73741 37.6258L6.68541 44.5618L5.55741 44.5738ZM17.4376 44.7058C16.8696 44.7058 16.3656 44.5778 15.9256 44.3218C15.4856 44.0578 15.1376 43.6938 14.8816 43.2298C14.6336 42.7658 14.5096 42.2178 14.5096 41.5858C14.5096 40.9618 14.6336 40.4178 14.8816 39.9538C15.1296 39.4818 15.4736 39.1178 15.9136 38.8618C16.3616 38.5978 16.8776 38.4658 17.4616 38.4658C18.0376 38.4658 18.5336 38.5978 18.9496 38.8618C19.3736 39.1178 19.6976 39.4578 19.9216 39.8818C20.1456 40.3058 20.2576 40.7618 20.2576 41.2498C20.2576 41.3378 20.2536 41.4258 20.2456 41.5138C20.2456 41.6018 20.2456 41.7018 20.2456 41.8138H15.5056C15.5296 42.2698 15.6336 42.6498 15.8176 42.9538C16.0096 43.2498 16.2456 43.4738 16.5256 43.6258C16.8136 43.7778 17.1176 43.8538 17.4376 43.8538C17.8536 43.8538 18.2016 43.7578 18.4816 43.5658C18.7616 43.3738 18.9656 43.1138 19.0936 42.7858H20.0896C19.9296 43.3378 19.6216 43.7978 19.1656 44.1658C18.7176 44.5258 18.1416 44.7058 17.4376 44.7058ZM17.4376 39.3178C16.9576 39.3178 16.5296 39.4658 16.1536 39.7618C15.7856 40.0498 15.5736 40.4738 15.5176 41.0338H19.2616C19.2376 40.4978 19.0536 40.0778 18.7096 39.7738C18.3656 39.4698 17.9416 39.3178 17.4376 39.3178ZM21.5936 44.5618V35.9218H22.6016V44.5618H21.5936ZM26.9898 44.7058C26.4218 44.7058 25.9098 44.5778 25.4538 44.3218C25.0058 44.0578 24.6498 43.6938 24.3858 43.2298C24.1298 42.7578 24.0018 42.2098 24.0018 41.5858C24.0018 40.9618 24.1298 40.4178 24.3858 39.9538C24.6498 39.4818 25.0058 39.1178 25.4538 38.8618C25.9098 38.5978 26.4218 38.4658 26.9898 38.4658C27.6938 38.4658 28.2858 38.6498 28.7658 39.0178C29.2538 39.3858 29.5618 39.8778 29.6898 40.4938H28.6578C28.5778 40.1258 28.3818 39.8418 28.0698 39.6418C27.7578 39.4338 27.3938 39.3298 26.9778 39.3298C26.6418 39.3298 26.3258 39.4138 26.0298 39.5818C25.7338 39.7498 25.4938 40.0018 25.3098 40.3378C25.1258 40.6738 25.0338 41.0898 25.0338 41.5858C25.0338 42.0818 25.1258 42.4978 25.3098 42.8338C25.4938 43.1698 25.7338 43.4258 26.0298 43.6018C26.3258 43.7698 26.6418 43.8538 26.9778 43.8538C27.3938 43.8538 27.7578 43.7538 28.0698 43.5538C28.3818 43.3458 28.5778 43.0538 28.6578 42.6778H29.6898C29.5698 43.2778 29.2658 43.7658 28.7778 44.1418C28.2898 44.5178 27.6938 44.7058 26.9898 44.7058ZM33.8095 44.7058C33.2495 44.7058 32.7455 44.5778 32.2975 44.3218C31.8495 44.0658 31.4935 43.7058 31.2295 43.2418C30.9735 42.7698 30.8455 42.2178 30.8455 41.5858C30.8455 40.9538 30.9775 40.4058 31.2415 39.9418C31.5055 39.4698 31.8615 39.1058 32.3095 38.8498C32.7655 38.5938 33.2735 38.4658 33.8335 38.4658C34.3935 38.4658 34.8975 38.5938 35.3455 38.8498C35.7935 39.1058 36.1455 39.4698 36.4015 39.9418C36.6655 40.4058 36.7975 40.9538 36.7975 41.5858C36.7975 42.2178 36.6655 42.7698 36.4015 43.2418C36.1375 43.7058 35.7775 44.0658 35.3215 44.3218C34.8735 44.5778 34.3695 44.7058 33.8095 44.7058ZM33.8095 43.8418C34.1535 43.8418 34.4735 43.7578 34.7695 43.5898C35.0655 43.4218 35.3055 43.1698 35.4895 42.8338C35.6735 42.4978 35.7655 42.0818 35.7655 41.5858C35.7655 41.0898 35.6735 40.6738 35.4895 40.3378C35.3135 40.0018 35.0775 39.7498 34.7815 39.5818C34.4855 39.4138 34.1695 39.3298 33.8335 39.3298C33.4895 39.3298 33.1695 39.4138 32.8735 39.5818C32.5775 39.7498 32.3375 40.0018 32.1535 40.3378C31.9695 40.6738 31.8775 41.0898 31.8775 41.5858C31.8775 42.0818 31.9695 42.4978 32.1535 42.8338C32.3375 43.1698 32.5735 43.4218 32.8615 43.5898C33.1575 43.7578 33.4735 43.8418 33.8095 43.8418ZM38.1991 44.5618V38.6098H39.1111L39.1831 39.4738C39.3751 39.1538 39.6311 38.9058 39.9511 38.7298C40.2711 38.5538 40.6311 38.4658 41.0311 38.4658C41.5031 38.4658 41.9071 38.5618 42.2431 38.7538C42.5871 38.9458 42.8511 39.2378 43.0351 39.6298C43.2431 39.2698 43.5271 38.9858 43.8871 38.7778C44.2551 38.5698 44.6511 38.4658 45.0751 38.4658C45.7871 38.4658 46.3551 38.6818 46.7791 39.1138C47.2031 39.5378 47.4151 40.1938 47.4151 41.0818V44.5618H46.4191V41.1898C46.4191 40.5738 46.2951 40.1098 46.0471 39.7978C45.7991 39.4858 45.4431 39.3298 44.9791 39.3298C44.4991 39.3298 44.0991 39.5178 43.7791 39.8938C43.4671 40.2618 43.3111 40.7898 43.3111 41.4778V44.5618H42.3031V41.1898C42.3031 40.5738 42.1791 40.1098 41.9311 39.7978C41.6831 39.4858 41.3271 39.3298 40.8631 39.3298C40.3911 39.3298 39.9951 39.5178 39.6751 39.8938C39.3631 40.2618 39.2071 40.7898 39.2071 41.4778V44.5618H38.1991ZM51.6095 44.7058C51.0415 44.7058 50.5375 44.5778 50.0975 44.3218C49.6575 44.0578 49.3095 43.6938 49.0535 43.2298C48.8055 42.7658 48.6815 42.2178 48.6815 41.5858C48.6815 40.9618 48.8055 40.4178 49.0535 39.9538C49.3015 39.4818 49.6455 39.1178 50.0855 38.8618C50.5335 38.5978 51.0495 38.4658 51.6335 38.4658C52.2095 38.4658 52.7055 38.5978 53.1215 38.8618C53.5455 39.1178 53.8695 39.4578 54.0935 39.8818C54.3175 40.3058 54.4295 40.7618 54.4295 41.2498C54.4295 41.3378 54.4255 41.4258 54.4175 41.5138C54.4175 41.6018 54.4175 41.7018 54.4175 41.8138H49.6775C49.7015 42.2698 49.8055 42.6498 49.9895 42.9538C50.1815 43.2498 50.4175 43.4738 50.6975 43.6258C50.9855 43.7778 51.2895 43.8538 51.6095 43.8538C52.0255 43.8538 52.3735 43.7578 52.6535 43.5658C52.9335 43.3738 53.1375 43.1138 53.2655 42.7858H54.2615C54.1015 43.3378 53.7935 43.7978 53.3375 44.1658C52.8895 44.5258 52.3135 44.7058 51.6095 44.7058ZM51.6095 39.3178C51.1295 39.3178 50.7015 39.4658 50.3255 39.7618C49.9575 40.0498 49.7455 40.4738 49.6895 41.0338H53.4335C53.4095 40.4978 53.2255 40.0778 52.8815 39.7738C52.5375 39.4698 52.1135 39.3178 51.6095 39.3178ZM62.1213 44.7058C61.6333 44.7058 61.1973 44.6058 60.8133 44.4058C60.4373 44.2058 60.1493 43.9258 59.9493 43.5658L59.8533 44.5618H58.9413V35.9218H59.9493V39.5938C60.1413 39.3058 60.4133 39.0458 60.7653 38.8138C61.1253 38.5818 61.5813 38.4658 62.1333 38.4658C62.7253 38.4658 63.2413 38.6018 63.6813 38.8738C64.1213 39.1458 64.4613 39.5178 64.7013 39.9898C64.9493 40.4618 65.0733 40.9978 65.0733 41.5978C65.0733 42.1978 64.9493 42.7338 64.7013 43.2058C64.4613 43.6698 64.1173 44.0378 63.6693 44.3098C63.2293 44.5738 62.7133 44.7058 62.1213 44.7058ZM62.0133 43.8298C62.4133 43.8298 62.7653 43.7378 63.0693 43.5538C63.3733 43.3618 63.6133 43.0978 63.7893 42.7618C63.9653 42.4258 64.0533 42.0338 64.0533 41.5858C64.0533 41.1378 63.9653 40.7458 63.7893 40.4098C63.6133 40.0738 63.3733 39.8138 63.0693 39.6298C62.7653 39.4378 62.4133 39.3418 62.0133 39.3418C61.6133 39.3418 61.2613 39.4378 60.9573 39.6298C60.6533 39.8138 60.4133 40.0738 60.2373 40.4098C60.0613 40.7458 59.9733 41.1378 59.9733 41.5858C59.9733 42.0338 60.0613 42.4258 60.2373 42.7618C60.4133 43.0978 60.6533 43.3618 60.9573 43.5538C61.2613 43.7378 61.6133 43.8298 62.0133 43.8298ZM68.4564 44.7058C67.9604 44.7058 67.5484 44.6218 67.2204 44.4538C66.8924 44.2858 66.6484 44.0618 66.4884 43.7818C66.3284 43.5018 66.2484 43.1978 66.2484 42.8698C66.2484 42.2618 66.4804 41.7938 66.9444 41.4658C67.4084 41.1378 68.0404 40.9738 68.8404 40.9738H70.4484V40.9018C70.4484 40.3818 70.3124 39.9898 70.0404 39.7258C69.7684 39.4538 69.4044 39.3178 68.9484 39.3178C68.5564 39.3178 68.2164 39.4178 67.9284 39.6178C67.6484 39.8098 67.4724 40.0938 67.4004 40.4698H66.3684C66.4084 40.0378 66.5524 39.6738 66.8004 39.3778C67.0564 39.0818 67.3724 38.8578 67.7484 38.7058C68.1244 38.5458 68.5244 38.4658 68.9484 38.4658C69.7804 38.4658 70.4044 38.6898 70.8204 39.1378C71.2444 39.5778 71.4564 40.1658 71.4564 40.9018V44.5618H70.5564L70.4964 43.4938C70.3284 43.8298 70.0804 44.1178 69.7524 44.3578C69.4324 44.5898 69.0004 44.7058 68.4564 44.7058ZM68.6124 43.8538C68.9964 43.8538 69.3244 43.7538 69.5964 43.5538C69.8764 43.3538 70.0884 43.0938 70.2324 42.7738C70.3764 42.4538 70.4484 42.1178 70.4484 41.7658V41.7538H68.9244C68.3324 41.7538 67.9124 41.8578 67.6644 42.0658C67.4244 42.2658 67.3044 42.5178 67.3044 42.8218C67.3044 43.1338 67.4164 43.3858 67.6404 43.5778C67.8724 43.7618 68.1964 43.8538 68.6124 43.8538ZM75.7046 44.7058C75.1366 44.7058 74.6246 44.5778 74.1686 44.3218C73.7206 44.0578 73.3646 43.6938 73.1006 43.2298C72.8446 42.7578 72.7166 42.2098 72.7166 41.5858C72.7166 40.9618 72.8446 40.4178 73.1006 39.9538C73.3646 39.4818 73.7206 39.1178 74.1686 38.8618C74.6246 38.5978 75.1366 38.4658 75.7046 38.4658C76.4086 38.4658 77.0006 38.6498 77.4806 39.0178C77.9686 39.3858 78.2766 39.8778 78.4046 40.4938H77.3726C77.2926 40.1258 77.0966 39.8418 76.7846 39.6418C76.4726 39.4338 76.1086 39.3298 75.6926 39.3298C75.3566 39.3298 75.0406 39.4138 74.7446 39.5818C74.4486 39.7498 74.2086 40.0018 74.0246 40.3378C73.8406 40.6738 73.7486 41.0898 73.7486 41.5858C73.7486 42.0818 73.8406 42.4978 74.0246 42.8338C74.2086 43.1698 74.4486 43.4258 74.7446 43.6018C75.0406 43.7698 75.3566 43.8538 75.6926 43.8538C76.1086 43.8538 76.4726 43.7538 76.7846 43.5538C77.0966 43.3458 77.2926 43.0538 77.3726 42.6778H78.4046C78.2846 43.2778 77.9806 43.7658 77.4926 44.1418C77.0046 44.5178 76.4086 44.7058 75.7046 44.7058ZM79.8124 44.5618V35.9218H80.8204V41.1178L83.2564 38.6098H84.4924L81.8524 41.2978L84.8284 44.5618H83.5444L80.8204 41.4778V44.5618H79.8124ZM86.0753 42.2338L85.9553 36.1618H87.0473L86.9273 42.2338H86.0753ZM86.5312 44.6218C86.3313 44.6218 86.1633 44.5578 86.0273 44.4298C85.8993 44.2938 85.8353 44.1298 85.8353 43.9378C85.8353 43.7458 85.8993 43.5858 86.0273 43.4578C86.1633 43.3218 86.3313 43.2538 86.5312 43.2538C86.7233 43.2538 86.8833 43.3218 87.0113 43.4578C87.1473 43.5858 87.2153 43.7458 87.2153 43.9378C87.2153 44.1298 87.1473 44.2938 87.0113 44.4298C86.8833 44.5578 86.7233 44.6218 86.5312 44.6218ZM92.0116 44.5618V38.6098H92.9236L93.0076 39.7498C93.1916 39.3578 93.4716 39.0458 93.8476 38.8138C94.2236 38.5818 94.6876 38.4658 95.2396 38.4658V39.5218H94.9636C94.6116 39.5218 94.2876 39.5858 93.9916 39.7138C93.6956 39.8338 93.4596 40.0418 93.2836 40.3378C93.1076 40.6338 93.0196 41.0418 93.0196 41.5618V44.5618H92.0116ZM98.8243 44.7058C98.2563 44.7058 97.7523 44.5778 97.3123 44.3218C96.8723 44.0578 96.5243 43.6938 96.2683 43.2298C96.0203 42.7658 95.8963 42.2178 95.8963 41.5858C95.8963 40.9618 96.0203 40.4178 96.2683 39.9538C96.5163 39.4818 96.8603 39.1178 97.3003 38.8618C97.7483 38.5978 98.2643 38.4658 98.8483 38.4658C99.4243 38.4658 99.9203 38.5978 100.336 38.8618C100.76 39.1178 101.084 39.4578 101.308 39.8818C101.532 40.3058 101.644 40.7618 101.644 41.2498C101.644 41.3378 101.64 41.4258 101.632 41.5138C101.632 41.6018 101.632 41.7018 101.632 41.8138H96.8923C96.9163 42.2698 97.0203 42.6498 97.2043 42.9538C97.3963 43.2498 97.6323 43.4738 97.9123 43.6258C98.2003 43.7778 98.5043 43.8538 98.8243 43.8538C99.2403 43.8538 99.5883 43.7578 99.8683 43.5658C100.148 43.3738 100.352 43.1138 100.48 42.7858H101.476C101.316 43.3378 101.008 43.7978 100.552 44.1658C100.104 44.5258 99.5283 44.7058 98.8243 44.7058ZM98.8243 39.3178C98.3443 39.3178 97.9163 39.4658 97.5403 39.7618C97.1723 40.0498 96.9603 40.4738 96.9043 41.0338H100.648C100.624 40.4978 100.44 40.0778 100.096 39.7738C99.7523 39.4698 99.3283 39.3178 98.8243 39.3178ZM104.96 44.7058C104.464 44.7058 104.052 44.6218 103.724 44.4538C103.396 44.2858 103.152 44.0618 102.992 43.7818C102.832 43.5018 102.752 43.1978 102.752 42.8698C102.752 42.2618 102.984 41.7938 103.448 41.4658C103.912 41.1378 104.544 40.9738 105.344 40.9738H106.952V40.9018C106.952 40.3818 106.816 39.9898 106.544 39.7258C106.272 39.4538 105.908 39.3178 105.452 39.3178C105.06 39.3178 104.72 39.4178 104.432 39.6178C104.152 39.8098 103.976 40.0938 103.904 40.4698H102.872C102.912 40.0378 103.056 39.6738 103.304 39.3778C103.56 39.0818 103.876 38.8578 104.252 38.7058C104.628 38.5458 105.028 38.4658 105.452 38.4658C106.284 38.4658 106.908 38.6898 107.324 39.1378C107.748 39.5778 107.96 40.1658 107.96 40.9018V44.5618H107.06L107 43.4938C106.832 43.8298 106.584 44.1178 106.256 44.3578C105.936 44.5898 105.504 44.7058 104.96 44.7058ZM105.116 43.8538C105.5 43.8538 105.828 43.7538 106.1 43.5538C106.38 43.3538 106.592 43.0938 106.736 42.7738C106.88 42.4538 106.952 42.1178 106.952 41.7658V41.7538H105.428C104.836 41.7538 104.416 41.8578 104.168 42.0658C103.928 42.2658 103.808 42.5178 103.808 42.8218C103.808 43.1338 103.92 43.3858 104.144 43.5778C104.376 43.7618 104.7 43.8538 105.116 43.8538ZM112.173 44.7058C111.581 44.7058 111.061 44.5698 110.613 44.2978C110.173 44.0258 109.829 43.6538 109.581 43.1818C109.341 42.7098 109.221 42.1738 109.221 41.5738C109.221 40.9738 109.345 40.4418 109.593 39.9778C109.841 39.5058 110.185 39.1378 110.625 38.8738C111.065 38.6018 111.585 38.4658 112.185 38.4658C112.673 38.4658 113.105 38.5658 113.481 38.7658C113.857 38.9658 114.149 39.2458 114.357 39.6058V35.9218H115.365V44.5618H114.453L114.357 43.5778C114.165 43.8658 113.889 44.1258 113.529 44.3578C113.169 44.5898 112.717 44.7058 112.173 44.7058ZM112.281 43.8298C112.681 43.8298 113.033 43.7378 113.337 43.5538C113.649 43.3618 113.889 43.0978 114.057 42.7618C114.233 42.4258 114.321 42.0338 114.321 41.5858C114.321 41.1378 114.233 40.7458 114.057 40.4098C113.889 40.0738 113.649 39.8138 113.337 39.6298C113.033 39.4378 112.681 39.3418 112.281 39.3418C111.889 39.3418 111.537 39.4378 111.225 39.6298C110.921 39.8138 110.681 40.0738 110.505 40.4098C110.337 40.7458 110.253 41.1378 110.253 41.5858C110.253 42.0338 110.337 42.4258 110.505 42.7618C110.681 43.0978 110.921 43.3618 111.225 43.5538C111.537 43.7378 111.889 43.8298 112.281 43.8298ZM117.656 47.2018L119.132 43.9858H118.784L116.42 38.6098H117.512L119.48 43.2418L121.568 38.6098H122.612L118.712 47.2018H117.656ZM129.203 44.5618C128.659 44.5618 128.231 44.4298 127.919 44.1658C127.607 43.9018 127.451 43.4258 127.451 42.7378V39.4618H126.419V38.6098H127.451L127.583 37.1818H128.459V38.6098H130.211V39.4618H128.459V42.7378C128.459 43.1138 128.535 43.3698 128.687 43.5058C128.839 43.6338 129.107 43.6978 129.491 43.6978H130.115V44.5618H129.203ZM134.04 44.7058C133.48 44.7058 132.976 44.5778 132.528 44.3218C132.08 44.0658 131.724 43.7058 131.46 43.2418C131.204 42.7698 131.076 42.2178 131.076 41.5858C131.076 40.9538 131.208 40.4058 131.472 39.9418C131.736 39.4698 132.092 39.1058 132.54 38.8498C132.996 38.5938 133.504 38.4658 134.064 38.4658C134.624 38.4658 135.128 38.5938 135.576 38.8498C136.024 39.1058 136.376 39.4698 136.632 39.9418C136.896 40.4058 137.028 40.9538 137.028 41.5858C137.028 42.2178 136.896 42.7698 136.632 43.2418C136.368 43.7058 136.008 44.0658 135.552 44.3218C135.104 44.5778 134.6 44.7058 134.04 44.7058ZM134.04 43.8418C134.384 43.8418 134.704 43.7578 135 43.5898C135.296 43.4218 135.536 43.1698 135.72 42.8338C135.904 42.4978 135.996 42.0818 135.996 41.5858C135.996 41.0898 135.904 40.6738 135.72 40.3378C135.544 40.0018 135.308 39.7498 135.012 39.5818C134.716 39.4138 134.4 39.3298 134.064 39.3298C133.72 39.3298 133.4 39.4138 133.104 39.5818C132.808 39.7498 132.568 40.0018 132.384 40.3378C132.2 40.6738 132.108 41.0898 132.108 41.5858C132.108 42.0818 132.2 42.4978 132.384 42.8338C132.568 43.1698 132.804 43.4218 133.092 43.5898C133.388 43.7578 133.704 43.8418 134.04 43.8418ZM143.885 44.7058C143.173 44.7058 142.581 44.5258 142.109 44.1658C141.637 43.8058 141.361 43.3178 141.281 42.7018H142.313C142.377 43.0138 142.541 43.2858 142.805 43.5178C143.077 43.7418 143.441 43.8538 143.897 43.8538C144.321 43.8538 144.633 43.7658 144.833 43.5898C145.033 43.4058 145.133 43.1898 145.133 42.9418C145.133 42.5818 145.001 42.3418 144.737 42.2218C144.481 42.1018 144.117 41.9938 143.645 41.8978C143.325 41.8338 143.005 41.7418 142.685 41.6218C142.365 41.5018 142.097 41.3338 141.881 41.1178C141.665 40.8938 141.557 40.6018 141.557 40.2418C141.557 39.7218 141.749 39.2978 142.133 38.9698C142.525 38.6338 143.053 38.4658 143.717 38.4658C144.349 38.4658 144.865 38.6258 145.265 38.9458C145.673 39.2578 145.909 39.7058 145.973 40.2898H144.977C144.937 39.9858 144.805 39.7498 144.581 39.5818C144.365 39.4058 144.073 39.3178 143.705 39.3178C143.345 39.3178 143.065 39.3938 142.865 39.5458C142.673 39.6978 142.577 39.8978 142.577 40.1458C142.577 40.3858 142.701 40.5738 142.949 40.7098C143.205 40.8458 143.549 40.9618 143.981 41.0578C144.349 41.1378 144.697 41.2378 145.025 41.3578C145.361 41.4698 145.633 41.6418 145.841 41.8738C146.057 42.0978 146.165 42.4258 146.165 42.8578C146.173 43.3938 145.969 43.8378 145.553 44.1898C145.145 44.5338 144.589 44.7058 143.885 44.7058ZM147.605 44.5618V35.9218H148.613V39.6298C148.813 39.2618 149.097 38.9778 149.465 38.7778C149.833 38.5698 150.233 38.4658 150.665 38.4658C151.353 38.4658 151.905 38.6818 152.321 39.1138C152.737 39.5378 152.945 40.1938 152.945 41.0818V44.5618H151.949V41.1898C151.949 39.9498 151.449 39.3298 150.449 39.3298C149.929 39.3298 149.493 39.5178 149.141 39.8938C148.789 40.2618 148.613 40.7898 148.613 41.4778V44.5618H147.605ZM156.453 44.7058C155.957 44.7058 155.545 44.6218 155.217 44.4538C154.889 44.2858 154.645 44.0618 154.485 43.7818C154.325 43.5018 154.245 43.1978 154.245 42.8698C154.245 42.2618 154.477 41.7938 154.941 41.4658C155.405 41.1378 156.037 40.9738 156.837 40.9738H158.445V40.9018C158.445 40.3818 158.309 39.9898 158.037 39.7258C157.765 39.4538 157.401 39.3178 156.945 39.3178C156.553 39.3178 156.213 39.4178 155.925 39.6178C155.645 39.8098 155.469 40.0938 155.397 40.4698H154.365C154.405 40.0378 154.549 39.6738 154.797 39.3778C155.053 39.0818 155.369 38.8578 155.745 38.7058C156.121 38.5458 156.521 38.4658 156.945 38.4658C157.777 38.4658 158.401 38.6898 158.817 39.1378C159.241 39.5778 159.453 40.1658 159.453 40.9018V44.5618H158.553L158.493 43.4938C158.325 43.8298 158.077 44.1178 157.749 44.3578C157.429 44.5898 156.997 44.7058 156.453 44.7058ZM156.609 43.8538C156.993 43.8538 157.321 43.7538 157.593 43.5538C157.873 43.3538 158.085 43.0938 158.229 42.7738C158.373 42.4538 158.445 42.1178 158.445 41.7658V41.7538H156.921C156.329 41.7538 155.909 41.8578 155.661 42.0658C155.421 42.2658 155.301 42.5178 155.301 42.8218C155.301 43.1338 155.413 43.3858 155.637 43.5778C155.869 43.7618 156.193 43.8538 156.609 43.8538ZM160.965 44.5618V38.6098H161.877L161.961 39.7498C162.145 39.3578 162.425 39.0458 162.801 38.8138C163.177 38.5818 163.641 38.4658 164.193 38.4658V39.5218H163.917C163.565 39.5218 163.241 39.5858 162.945 39.7138C162.649 39.8338 162.413 40.0418 162.237 40.3378C162.061 40.6338 161.973 41.0418 161.973 41.5618V44.5618H160.965ZM167.777 44.7058C167.209 44.7058 166.705 44.5778 166.265 44.3218C165.825 44.0578 165.477 43.6938 165.221 43.2298C164.973 42.7658 164.849 42.2178 164.849 41.5858C164.849 40.9618 164.973 40.4178 165.221 39.9538C165.469 39.4818 165.813 39.1178 166.253 38.8618C166.701 38.5978 167.217 38.4658 167.801 38.4658C168.377 38.4658 168.873 38.5978 169.289 38.8618C169.713 39.1178 170.037 39.4578 170.261 39.8818C170.485 40.3058 170.597 40.7618 170.597 41.2498C170.597 41.3378 170.593 41.4258 170.585 41.5138C170.585 41.6018 170.585 41.7018 170.585 41.8138H165.845C165.869 42.2698 165.973 42.6498 166.157 42.9538C166.349 43.2498 166.585 43.4738 166.865 43.6258C167.153 43.7778 167.457 43.8538 167.777 43.8538C168.193 43.8538 168.541 43.7578 168.821 43.5658C169.101 43.3738 169.305 43.1138 169.433 42.7858H170.429C170.269 43.3378 169.961 43.7978 169.505 44.1658C169.057 44.5258 168.481 44.7058 167.777 44.7058ZM167.777 39.3178C167.297 39.3178 166.869 39.4658 166.493 39.7618C166.125 40.0498 165.913 40.4738 165.857 41.0338H169.601C169.577 40.4978 169.393 40.0778 169.049 39.7738C168.705 39.4698 168.281 39.3178 167.777 39.3178ZM172.683 42.2098L172.635 40.2778H173.007C173.455 40.2778 173.871 40.2338 174.255 40.1458C174.647 40.0578 174.963 39.8858 175.203 39.6298C175.443 39.3738 175.563 38.9898 175.563 38.4778C175.563 37.9818 175.407 37.5898 175.095 37.3018C174.791 37.0138 174.387 36.8698 173.883 36.8698C173.371 36.8698 172.967 37.0098 172.671 37.2898C172.375 37.5698 172.227 37.9458 172.227 38.4178H171.267C171.267 37.9378 171.375 37.5178 171.591 37.1578C171.815 36.7978 172.123 36.5178 172.515 36.3178C172.907 36.1178 173.363 36.0178 173.883 36.0178C174.403 36.0178 174.863 36.1178 175.263 36.3178C175.663 36.5178 175.975 36.8018 176.199 37.1698C176.423 37.5378 176.535 37.9738 176.535 38.4778C176.535 39.0698 176.407 39.5498 176.151 39.9178C175.903 40.2858 175.555 40.5538 175.107 40.7218C174.667 40.8898 174.163 40.9738 173.595 40.9738L173.559 42.2098H172.683ZM173.115 44.6218C172.915 44.6218 172.747 44.5578 172.611 44.4298C172.483 44.2938 172.419 44.1298 172.419 43.9378C172.419 43.7458 172.483 43.5858 172.611 43.4578C172.747 43.3218 172.915 43.2538 173.115 43.2538C173.315 43.2538 173.479 43.3218 173.607 43.4578C173.735 43.5858 173.799 43.7458 173.799 43.9378C173.799 44.1298 173.735 44.2938 173.607 44.4298C173.479 44.5578 173.315 44.6218 173.115 44.6218Z" fill="#262626"/>
</svg>
