<svg width="261" height="84" viewBox="0 0 261 84" fill="none" xmlns="http://www.w3.org/2000/svg">
<path d="M47.524 44V12.71H60.712C62.784 12.71 64.548 13.074 66.004 13.802C67.488 14.502 68.622 15.51 69.406 16.826C70.218 18.114 70.624 19.682 70.624 21.53C70.624 22.958 70.232 24.302 69.448 25.562C68.692 26.794 67.474 27.816 65.794 28.628V25.982C67.334 26.57 68.552 27.298 69.448 28.166C70.344 29.034 70.974 30 71.338 31.064C71.702 32.128 71.884 33.248 71.884 34.424C71.884 37.42 70.89 39.772 68.902 41.48C66.942 43.16 64.212 44 60.712 44H47.524ZM53.236 38.96H61.3C62.784 38.96 63.96 38.554 64.828 37.742C65.724 36.902 66.172 35.796 66.172 34.424C66.172 33.052 65.724 31.946 64.828 31.106C63.96 30.266 62.784 29.846 61.3 29.846H53.236V38.96ZM53.236 24.848H61.006C62.182 24.848 63.12 24.512 63.82 23.84C64.52 23.14 64.87 22.244 64.87 21.152C64.87 20.06 64.52 19.192 63.82 18.548C63.12 17.904 62.182 17.582 61.006 17.582H53.236V24.848ZM81.3511 44.504C79.7551 44.504 78.3691 44.238 77.1931 43.706C76.0171 43.174 75.1071 42.418 74.4631 41.438C73.8191 40.43 73.4971 39.268 73.4971 37.952C73.4971 36.692 73.7771 35.572 74.3371 34.592C74.8971 33.584 75.7651 32.744 76.9411 32.072C78.1171 31.4 79.6011 30.924 81.3931 30.644L88.8691 29.426V33.626L82.4431 34.718C81.3511 34.914 80.5391 35.264 80.0071 35.768C79.4751 36.272 79.2091 36.93 79.2091 37.742C79.2091 38.526 79.5031 39.156 80.0911 39.632C80.7071 40.08 81.4631 40.304 82.3591 40.304C83.5071 40.304 84.5151 40.066 85.3831 39.59C86.2791 39.086 86.9651 38.4 87.4411 37.532C87.9451 36.664 88.1971 35.712 88.1971 34.676V28.796C88.1971 27.816 87.8051 27.004 87.0211 26.36C86.2651 25.688 85.2571 25.352 83.9971 25.352C82.8211 25.352 81.7711 25.674 80.8471 26.318C79.9511 26.934 79.2931 27.76 78.8731 28.796L74.3791 26.612C74.8271 25.408 75.5271 24.372 76.4791 23.504C77.4591 22.608 78.6071 21.908 79.9231 21.404C81.2391 20.9 82.6671 20.648 84.2071 20.648C86.0831 20.648 87.7351 20.998 89.1631 21.698C90.5911 22.37 91.6971 23.322 92.4811 24.554C93.2931 25.758 93.6991 27.172 93.6991 28.796V44H88.4911V40.094L89.6671 40.01C89.0791 40.99 88.3791 41.816 87.5671 42.488C86.7551 43.132 85.8311 43.636 84.7951 44C83.7591 44.336 82.6111 44.504 81.3511 44.504ZM108.192 53.24C106.484 53.24 104.902 52.96 103.446 52.4C101.99 51.84 100.73 51.056 99.6663 50.048C98.6303 49.068 97.8743 47.906 97.3983 46.562L102.522 44.63C102.858 45.694 103.516 46.548 104.496 47.192C105.504 47.864 106.736 48.2 108.192 48.2C109.312 48.2 110.292 47.99 111.132 47.57C112 47.15 112.672 46.534 113.148 45.722C113.624 44.938 113.862 43.986 113.862 42.866V37.658L114.912 38.918C114.128 40.29 113.078 41.326 111.762 42.026C110.446 42.726 108.948 43.076 107.268 43.076C105.14 43.076 103.236 42.586 101.556 41.606C99.8763 40.626 98.5603 39.282 97.6083 37.574C96.6563 35.866 96.1803 33.948 96.1803 31.82C96.1803 29.664 96.6563 27.746 97.6083 26.066C98.5603 24.386 99.8623 23.07 101.514 22.118C103.166 21.138 105.042 20.648 107.142 20.648C108.85 20.648 110.348 21.012 111.636 21.74C112.952 22.44 114.044 23.462 114.912 24.806L114.156 26.192V21.152H119.364V42.866C119.364 44.854 118.874 46.632 117.894 48.2C116.942 49.768 115.626 51 113.946 51.896C112.294 52.792 110.376 53.24 108.192 53.24ZM107.94 37.994C109.116 37.994 110.138 37.742 111.006 37.238C111.902 36.706 112.602 35.978 113.106 35.054C113.61 34.13 113.862 33.066 113.862 31.862C113.862 30.686 113.596 29.636 113.064 28.712C112.56 27.76 111.86 27.018 110.964 26.486C110.096 25.954 109.088 25.688 107.94 25.688C106.792 25.688 105.756 25.954 104.832 26.486C103.908 27.018 103.18 27.76 102.648 28.712C102.144 29.636 101.892 30.686 101.892 31.862C101.892 33.038 102.144 34.088 102.648 35.012C103.18 35.936 103.894 36.664 104.79 37.196C105.714 37.728 106.764 37.994 107.94 37.994ZM122.823 44V21.152H128.325V44H122.823ZM122.823 18.59V12.71H128.325V18.59H122.823ZM132.187 44V12.71H145.375C147.447 12.71 149.211 13.074 150.667 13.802C152.151 14.502 153.285 15.51 154.069 16.826C154.881 18.114 155.287 19.682 155.287 21.53C155.287 22.958 154.895 24.302 154.111 25.562C153.355 26.794 152.137 27.816 150.457 28.628V25.982C151.997 26.57 153.215 27.298 154.111 28.166C155.007 29.034 155.637 30 156.001 31.064C156.365 32.128 156.547 33.248 156.547 34.424C156.547 37.42 155.553 39.772 153.565 41.48C151.605 43.16 148.875 44 145.375 44H132.187ZM137.899 38.96H145.963C147.447 38.96 148.623 38.554 149.491 37.742C150.387 36.902 150.835 35.796 150.835 34.424C150.835 33.052 150.387 31.946 149.491 31.106C148.623 30.266 147.447 29.846 145.963 29.846H137.899V38.96ZM137.899 24.848H145.669C146.845 24.848 147.783 24.512 148.483 23.84C149.183 23.14 149.533 22.244 149.533 21.152C149.533 20.06 149.183 19.192 148.483 18.548C147.783 17.904 146.845 17.582 145.669 17.582H137.899V24.848ZM166.014 44.504C164.418 44.504 163.032 44.238 161.856 43.706C160.68 43.174 159.77 42.418 159.126 41.438C158.482 40.43 158.16 39.268 158.16 37.952C158.16 36.692 158.44 35.572 159 34.592C159.56 33.584 160.428 32.744 161.604 32.072C162.78 31.4 164.264 30.924 166.056 30.644L173.532 29.426V33.626L167.106 34.718C166.014 34.914 165.202 35.264 164.67 35.768C164.138 36.272 163.872 36.93 163.872 37.742C163.872 38.526 164.166 39.156 164.754 39.632C165.37 40.08 166.126 40.304 167.022 40.304C168.17 40.304 169.178 40.066 170.046 39.59C170.942 39.086 171.628 38.4 172.104 37.532C172.608 36.664 172.86 35.712 172.86 34.676V28.796C172.86 27.816 172.468 27.004 171.684 26.36C170.928 25.688 169.92 25.352 168.66 25.352C167.484 25.352 166.434 25.674 165.51 26.318C164.614 26.934 163.956 27.76 163.536 28.796L159.042 26.612C159.49 25.408 160.19 24.372 161.142 23.504C162.122 22.608 163.27 21.908 164.586 21.404C165.902 20.9 167.33 20.648 168.87 20.648C170.746 20.648 172.398 20.998 173.826 21.698C175.254 22.37 176.36 23.322 177.144 24.554C177.956 25.758 178.362 27.172 178.362 28.796V44H173.154V40.094L174.33 40.01C173.742 40.99 173.042 41.816 172.23 42.488C171.418 43.132 170.494 43.636 169.458 44C168.422 44.336 167.274 44.504 166.014 44.504ZM192.855 53.24C191.147 53.24 189.565 52.96 188.109 52.4C186.653 51.84 185.393 51.056 184.329 50.048C183.293 49.068 182.537 47.906 182.061 46.562L187.185 44.63C187.521 45.694 188.179 46.548 189.159 47.192C190.167 47.864 191.399 48.2 192.855 48.2C193.975 48.2 194.955 47.99 195.795 47.57C196.663 47.15 197.335 46.534 197.811 45.722C198.287 44.938 198.525 43.986 198.525 42.866V37.658L199.575 38.918C198.791 40.29 197.741 41.326 196.425 42.026C195.109 42.726 193.611 43.076 191.931 43.076C189.803 43.076 187.899 42.586 186.219 41.606C184.539 40.626 183.223 39.282 182.271 37.574C181.319 35.866 180.843 33.948 180.843 31.82C180.843 29.664 181.319 27.746 182.271 26.066C183.223 24.386 184.525 23.07 186.177 22.118C187.829 21.138 189.705 20.648 191.805 20.648C193.513 20.648 195.011 21.012 196.299 21.74C197.615 22.44 198.707 23.462 199.575 24.806L198.819 26.192V21.152H204.027V42.866C204.027 44.854 203.537 46.632 202.557 48.2C201.605 49.768 200.289 51 198.609 51.896C196.957 52.792 195.039 53.24 192.855 53.24ZM192.603 37.994C193.779 37.994 194.801 37.742 195.669 37.238C196.565 36.706 197.265 35.978 197.769 35.054C198.273 34.13 198.525 33.066 198.525 31.862C198.525 30.686 198.259 29.636 197.727 28.712C197.223 27.76 196.523 27.018 195.627 26.486C194.759 25.954 193.751 25.688 192.603 25.688C191.455 25.688 190.419 25.954 189.495 26.486C188.571 27.018 187.843 27.76 187.311 28.712C186.807 29.636 186.555 30.686 186.555 31.862C186.555 33.038 186.807 34.088 187.311 35.012C187.843 35.936 188.557 36.664 189.453 37.196C190.377 37.728 191.427 37.994 192.603 37.994ZM207.486 44V21.152H212.988V44H207.486ZM207.486 18.59V12.71H212.988V18.59H207.486Z" fill="#0047FF"/>
<path d="M19.5581 78V64H21.2381L28.6981 75.22V64H30.3781V78H28.6981L21.2381 66.78V78H19.5581ZM37.7672 78.24C36.8339 78.24 35.9939 78.0267 35.2472 77.6C34.5005 77.1733 33.9072 76.5733 33.4672 75.8C33.0405 75.0133 32.8272 74.0933 32.8272 73.04C32.8272 71.9867 33.0472 71.0733 33.4872 70.3C33.9272 69.5133 34.5205 68.9067 35.2672 68.48C36.0272 68.0533 36.8739 67.84 37.8072 67.84C38.7405 67.84 39.5805 68.0533 40.3272 68.48C41.0739 68.9067 41.6605 69.5133 42.0872 70.3C42.5272 71.0733 42.7472 71.9867 42.7472 73.04C42.7472 74.0933 42.5272 75.0133 42.0872 75.8C41.6472 76.5733 41.0472 77.1733 40.2872 77.6C39.5405 78.0267 38.7005 78.24 37.7672 78.24ZM37.7672 76.8C38.3405 76.8 38.8739 76.66 39.3672 76.38C39.8605 76.1 40.2605 75.68 40.5672 75.12C40.8739 74.56 41.0272 73.8667 41.0272 73.04C41.0272 72.2133 40.8739 71.52 40.5672 70.96C40.2739 70.4 39.8805 69.98 39.3872 69.7C38.8939 69.42 38.3672 69.28 37.8072 69.28C37.2339 69.28 36.7005 69.42 36.2072 69.7C35.7139 69.98 35.3139 70.4 35.0072 70.96C34.7005 71.52 34.5472 72.2133 34.5472 73.04C34.5472 73.8667 34.7005 74.56 35.0072 75.12C35.3139 75.68 35.7072 76.1 36.1872 76.38C36.6805 76.66 37.2072 76.8 37.7672 76.8ZM46.712 78L43.812 68.08H45.492L47.592 75.86L49.912 68.08H51.812L54.152 75.86L56.232 68.08H57.932L55.032 78H53.312L50.872 69.82L48.432 78H46.712ZM69.5431 78.24C68.5965 78.24 67.7565 78.0267 67.0231 77.6C66.2898 77.16 65.7098 76.5533 65.2831 75.78C64.8698 75.0067 64.6631 74.0933 64.6631 73.04C64.6631 72 64.8698 71.0933 65.2831 70.32C65.6965 69.5333 66.2698 68.9267 67.0031 68.5C67.7498 68.06 68.6098 67.84 69.5831 67.84C70.5431 67.84 71.3698 68.06 72.0631 68.5C72.7698 68.9267 73.3098 69.4933 73.6831 70.2C74.0565 70.9067 74.2431 71.6667 74.2431 72.48C74.2431 72.6267 74.2365 72.7733 74.2231 72.92C74.2231 73.0667 74.2231 73.2333 74.2231 73.42H66.3231C66.3631 74.18 66.5365 74.8133 66.8431 75.32C67.1631 75.8133 67.5565 76.1867 68.0231 76.44C68.5031 76.6933 69.0098 76.82 69.5431 76.82C70.2365 76.82 70.8165 76.66 71.2831 76.34C71.7498 76.02 72.0898 75.5867 72.3031 75.04H73.9631C73.6965 75.96 73.1831 76.7267 72.4231 77.34C71.6765 77.94 70.7165 78.24 69.5431 78.24ZM69.5431 69.26C68.7431 69.26 68.0298 69.5067 67.4031 70C66.7898 70.48 66.4365 71.1867 66.3431 72.12H72.5831C72.5431 71.2267 72.2365 70.5267 71.6631 70.02C71.0898 69.5133 70.3831 69.26 69.5431 69.26ZM78.9392 78L75.1792 68.08H76.9392L79.9192 76.38L82.9192 68.08H84.6392L80.8792 78H78.9392ZM90.4611 78.24C89.5144 78.24 88.6744 78.0267 87.9411 77.6C87.2078 77.16 86.6278 76.5533 86.2011 75.78C85.7878 75.0067 85.5811 74.0933 85.5811 73.04C85.5811 72 85.7878 71.0933 86.2011 70.32C86.6144 69.5333 87.1878 68.9267 87.9211 68.5C88.6678 68.06 89.5278 67.84 90.5011 67.84C91.4611 67.84 92.2878 68.06 92.9811 68.5C93.6878 68.9267 94.2278 69.4933 94.6011 70.2C94.9744 70.9067 95.1611 71.6667 95.1611 72.48C95.1611 72.6267 95.1544 72.7733 95.1411 72.92C95.1411 73.0667 95.1411 73.2333 95.1411 73.42H87.2411C87.2811 74.18 87.4544 74.8133 87.7611 75.32C88.0811 75.8133 88.4744 76.1867 88.9411 76.44C89.4211 76.6933 89.9278 76.82 90.4611 76.82C91.1544 76.82 91.7344 76.66 92.2011 76.34C92.6678 76.02 93.0078 75.5867 93.2211 75.04H94.8811C94.6144 75.96 94.1011 76.7267 93.3411 77.34C92.5944 77.94 91.6344 78.24 90.4611 78.24ZM90.4611 69.26C89.6611 69.26 88.9478 69.5067 88.3211 70C87.7078 70.48 87.3544 71.1867 87.2611 72.12H93.5011C93.4611 71.2267 93.1544 70.5267 92.5811 70.02C92.0078 69.5133 91.3011 69.26 90.4611 69.26ZM97.3878 78V68.08H98.9078L99.0478 69.98C99.3545 69.3267 99.8211 68.8067 100.448 68.42C101.074 68.0333 101.848 67.84 102.768 67.84V69.6H102.308C101.721 69.6 101.181 69.7067 100.688 69.92C100.194 70.12 99.8011 70.4667 99.5078 70.96C99.2145 71.4533 99.0678 72.1333 99.0678 73V78H97.3878ZM105.733 82.4L108.193 77.04H107.613L103.673 68.08H105.493L108.773 75.8L112.253 68.08H113.993L107.493 82.4H105.733ZM119.349 78.24C118.416 78.24 117.576 78.0267 116.829 77.6C116.083 77.1733 115.489 76.5733 115.049 75.8C114.623 75.0133 114.409 74.0933 114.409 73.04C114.409 71.9867 114.629 71.0733 115.069 70.3C115.509 69.5133 116.103 68.9067 116.849 68.48C117.609 68.0533 118.456 67.84 119.389 67.84C120.323 67.84 121.163 68.0533 121.909 68.48C122.656 68.9067 123.243 69.5133 123.669 70.3C124.109 71.0733 124.329 71.9867 124.329 73.04C124.329 74.0933 124.109 75.0133 123.669 75.8C123.229 76.5733 122.629 77.1733 121.869 77.6C121.123 78.0267 120.283 78.24 119.349 78.24ZM119.349 76.8C119.923 76.8 120.456 76.66 120.949 76.38C121.443 76.1 121.843 75.68 122.149 75.12C122.456 74.56 122.609 73.8667 122.609 73.04C122.609 72.2133 122.456 71.52 122.149 70.96C121.856 70.4 121.463 69.98 120.969 69.7C120.476 69.42 119.949 69.28 119.389 69.28C118.816 69.28 118.283 69.42 117.789 69.7C117.296 69.98 116.896 70.4 116.589 70.96C116.283 71.52 116.129 72.2133 116.129 73.04C116.129 73.8667 116.283 74.56 116.589 75.12C116.896 75.68 117.289 76.1 117.769 76.38C118.263 76.66 118.789 76.8 119.349 76.8ZM126.665 78V68.08H128.185L128.285 69.86C128.605 69.2333 129.065 68.74 129.665 68.38C130.265 68.02 130.945 67.84 131.705 67.84C132.878 67.84 133.812 68.2 134.505 68.92C135.212 69.6267 135.565 70.72 135.565 72.2V78H133.885V72.38C133.885 70.3133 133.032 69.28 131.325 69.28C130.472 69.28 129.758 69.5933 129.185 70.22C128.625 70.8333 128.345 71.7133 128.345 72.86V78H126.665ZM142.57 78.24C141.624 78.24 140.784 78.0267 140.05 77.6C139.317 77.16 138.737 76.5533 138.31 75.78C137.897 75.0067 137.69 74.0933 137.69 73.04C137.69 72 137.897 71.0933 138.31 70.32C138.724 69.5333 139.297 68.9267 140.03 68.5C140.777 68.06 141.637 67.84 142.61 67.84C143.57 67.84 144.397 68.06 145.09 68.5C145.797 68.9267 146.337 69.4933 146.71 70.2C147.084 70.9067 147.27 71.6667 147.27 72.48C147.27 72.6267 147.264 72.7733 147.25 72.92C147.25 73.0667 147.25 73.2333 147.25 73.42H139.35C139.39 74.18 139.564 74.8133 139.87 75.32C140.19 75.8133 140.584 76.1867 141.05 76.44C141.53 76.6933 142.037 76.82 142.57 76.82C143.264 76.82 143.844 76.66 144.31 76.34C144.777 76.02 145.117 75.5867 145.33 75.04H146.99C146.724 75.96 146.21 76.7267 145.45 77.34C144.704 77.94 143.744 78.24 142.57 78.24ZM142.57 69.26C141.77 69.26 141.057 69.5067 140.43 70C139.817 70.48 139.464 71.1867 139.37 72.12H145.61C145.57 71.2267 145.264 70.5267 144.69 70.02C144.117 69.5133 143.41 69.26 142.57 69.26ZM159.35 78.24C158.403 78.24 157.55 78.0267 156.79 77.6C156.043 77.16 155.45 76.5533 155.01 75.78C154.583 74.9933 154.37 74.08 154.37 73.04C154.37 72 154.583 71.0933 155.01 70.32C155.45 69.5333 156.043 68.9267 156.79 68.5C157.55 68.06 158.403 67.84 159.35 67.84C160.523 67.84 161.51 68.1467 162.31 68.76C163.123 69.3733 163.637 70.1933 163.85 71.22H162.13C161.997 70.6067 161.67 70.1333 161.15 69.8C160.63 69.4533 160.023 69.28 159.33 69.28C158.77 69.28 158.243 69.42 157.75 69.7C157.257 69.98 156.857 70.4 156.55 70.96C156.243 71.52 156.09 72.2133 156.09 73.04C156.09 73.8667 156.243 74.56 156.55 75.12C156.857 75.68 157.257 76.1067 157.75 76.4C158.243 76.68 158.77 76.82 159.33 76.82C160.023 76.82 160.63 76.6533 161.15 76.32C161.67 75.9733 161.997 75.4867 162.13 74.86H163.85C163.65 75.86 163.143 76.6733 162.33 77.3C161.517 77.9267 160.523 78.24 159.35 78.24ZM169.496 78.24C168.67 78.24 167.983 78.1 167.436 77.82C166.89 77.54 166.483 77.1667 166.216 76.7C165.95 76.2333 165.816 75.7267 165.816 75.18C165.816 74.1667 166.203 73.3867 166.976 72.84C167.75 72.2933 168.803 72.02 170.136 72.02H172.816V71.9C172.816 71.0333 172.59 70.38 172.136 69.94C171.683 69.4867 171.076 69.26 170.316 69.26C169.663 69.26 169.096 69.4267 168.616 69.76C168.15 70.08 167.856 70.5533 167.736 71.18H166.016C166.083 70.46 166.323 69.8533 166.736 69.36C167.163 68.8667 167.69 68.4933 168.316 68.24C168.943 67.9733 169.61 67.84 170.316 67.84C171.703 67.84 172.743 68.2133 173.436 68.96C174.143 69.6933 174.496 70.6733 174.496 71.9V78H172.996L172.896 76.22C172.616 76.78 172.203 77.26 171.656 77.66C171.123 78.0467 170.403 78.24 169.496 78.24ZM169.756 76.82C170.396 76.82 170.943 76.6533 171.396 76.32C171.863 75.9867 172.216 75.5533 172.456 75.02C172.696 74.4867 172.816 73.9267 172.816 73.34V73.32H170.276C169.29 73.32 168.59 73.4933 168.176 73.84C167.776 74.1733 167.576 74.5933 167.576 75.1C167.576 75.62 167.763 76.04 168.136 76.36C168.523 76.6667 169.063 76.82 169.756 76.82ZM177.017 78V68.08H178.537L178.637 69.86C178.957 69.2333 179.417 68.74 180.017 68.38C180.617 68.02 181.297 67.84 182.057 67.84C183.23 67.84 184.163 68.2 184.857 68.92C185.563 69.6267 185.917 70.72 185.917 72.2V78H184.237V72.38C184.237 70.3133 183.383 69.28 181.677 69.28C180.823 69.28 180.11 69.5933 179.537 70.22C178.977 70.8333 178.697 71.7133 178.697 72.86V78H177.017ZM197.555 78.24C196.368 78.24 195.382 77.94 194.595 77.34C193.808 76.74 193.348 75.9267 193.215 74.9H194.935C195.042 75.42 195.315 75.8733 195.755 76.26C196.208 76.6333 196.815 76.82 197.575 76.82C198.282 76.82 198.802 76.6733 199.135 76.38C199.468 76.0733 199.635 75.7133 199.635 75.3C199.635 74.7 199.415 74.3 198.975 74.1C198.548 73.9 197.942 73.72 197.155 73.56C196.622 73.4533 196.088 73.3 195.555 73.1C195.022 72.9 194.575 72.62 194.215 72.26C193.855 71.8867 193.675 71.4 193.675 70.8C193.675 69.9333 193.995 69.2267 194.635 68.68C195.288 68.12 196.168 67.84 197.275 67.84C198.328 67.84 199.188 68.1067 199.855 68.64C200.535 69.16 200.928 69.9067 201.035 70.88H199.375C199.308 70.3733 199.088 69.98 198.715 69.7C198.355 69.4067 197.868 69.26 197.255 69.26C196.655 69.26 196.188 69.3867 195.855 69.64C195.535 69.8933 195.375 70.2267 195.375 70.64C195.375 71.04 195.582 71.3533 195.995 71.58C196.422 71.8067 196.995 72 197.715 72.16C198.328 72.2933 198.908 72.46 199.455 72.66C200.015 72.8467 200.468 73.1333 200.815 73.52C201.175 73.8933 201.355 74.44 201.355 75.16C201.368 76.0533 201.028 76.7933 200.335 77.38C199.655 77.9533 198.728 78.24 197.555 78.24ZM203.755 78V63.6H205.435V69.78C205.768 69.1667 206.242 68.6933 206.855 68.36C207.468 68.0133 208.135 67.84 208.855 67.84C210.002 67.84 210.922 68.2 211.615 68.92C212.308 69.6267 212.655 70.72 212.655 72.2V78H210.995V72.38C210.995 70.3133 210.162 69.28 208.495 69.28C207.628 69.28 206.902 69.5933 206.315 70.22C205.728 70.8333 205.435 71.7133 205.435 72.86V78H203.755ZM218.5 78.24C217.674 78.24 216.987 78.1 216.44 77.82C215.894 77.54 215.487 77.1667 215.22 76.7C214.954 76.2333 214.82 75.7267 214.82 75.18C214.82 74.1667 215.207 73.3867 215.98 72.84C216.754 72.2933 217.807 72.02 219.14 72.02H221.82V71.9C221.82 71.0333 221.594 70.38 221.14 69.94C220.687 69.4867 220.08 69.26 219.32 69.26C218.667 69.26 218.1 69.4267 217.62 69.76C217.154 70.08 216.86 70.5533 216.74 71.18H215.02C215.087 70.46 215.327 69.8533 215.74 69.36C216.167 68.8667 216.694 68.4933 217.32 68.24C217.947 67.9733 218.614 67.84 219.32 67.84C220.707 67.84 221.747 68.2133 222.44 68.96C223.147 69.6933 223.5 70.6733 223.5 71.9V78H222L221.9 76.22C221.62 76.78 221.207 77.26 220.66 77.66C220.127 78.0467 219.407 78.24 218.5 78.24ZM218.76 76.82C219.4 76.82 219.947 76.6533 220.4 76.32C220.867 75.9867 221.22 75.5533 221.46 75.02C221.7 74.4867 221.82 73.9267 221.82 73.34V73.32H219.28C218.294 73.32 217.594 73.4933 217.18 73.84C216.78 74.1733 216.58 74.5933 216.58 75.1C216.58 75.62 216.767 76.04 217.14 76.36C217.527 76.6667 218.067 76.82 218.76 76.82ZM226.021 78V68.08H227.541L227.681 69.98C227.987 69.3267 228.454 68.8067 229.081 68.42C229.707 68.0333 230.481 67.84 231.401 67.84V69.6H230.941C230.354 69.6 229.814 69.7067 229.321 69.92C228.827 70.12 228.434 70.4667 228.141 70.96C227.847 71.4533 227.701 72.1333 227.701 73V78H226.021ZM237.375 78.24C236.428 78.24 235.588 78.0267 234.855 77.6C234.122 77.16 233.542 76.5533 233.115 75.78C232.702 75.0067 232.495 74.0933 232.495 73.04C232.495 72 232.702 71.0933 233.115 70.32C233.528 69.5333 234.102 68.9267 234.835 68.5C235.582 68.06 236.442 67.84 237.415 67.84C238.375 67.84 239.202 68.06 239.895 68.5C240.602 68.9267 241.142 69.4933 241.515 70.2C241.888 70.9067 242.075 71.6667 242.075 72.48C242.075 72.6267 242.068 72.7733 242.055 72.92C242.055 73.0667 242.055 73.2333 242.055 73.42H234.155C234.195 74.18 234.368 74.8133 234.675 75.32C234.995 75.8133 235.388 76.1867 235.855 76.44C236.335 76.6933 236.842 76.82 237.375 76.82C238.068 76.82 238.648 76.66 239.115 76.34C239.582 76.02 239.922 75.5867 240.135 75.04H241.795C241.528 75.96 241.015 76.7267 240.255 77.34C239.508 77.94 238.548 78.24 237.375 78.24ZM237.375 69.26C236.575 69.26 235.862 69.5067 235.235 70C234.622 70.48 234.268 71.1867 234.175 72.12H240.415C240.375 71.2267 240.068 70.5267 239.495 70.02C238.922 69.5133 238.215 69.26 237.375 69.26Z" fill="#262626"/>
</svg>
