<svg width="25" height="25" viewBox="0 0 25 25" fill="none" xmlns="http://www.w3.org/2000/svg">
<path d="M9.5 20.75H5C4.80109 20.75 4.61032 20.671 4.46967 20.5303C4.32902 20.3897 4.25 20.1989 4.25 20V15.8103C4.25009 15.6117 4.32899 15.4212 4.46938 15.2806L16.0306 3.71937C16.1713 3.57883 16.362 3.49988 16.5608 3.49988C16.7596 3.49988 16.9503 3.57883 17.0909 3.71937L21.2806 7.90625C21.4212 8.04689 21.5001 8.23758 21.5001 8.4364C21.5001 8.63523 21.4212 8.82592 21.2806 8.96656L9.5 20.75Z" stroke="#343330" stroke-width="1.5" stroke-linecap="round" stroke-linejoin="round"/>
<path d="M20.75 20.75H9.5" stroke="#343330" stroke-width="1.5" stroke-linecap="round" stroke-linejoin="round"/>
<path d="M13.25 6.5L18.5 11.75" stroke="#343330" stroke-width="1.5" stroke-linecap="round" stroke-linejoin="round"/>
</svg>
