<svg width="164" height="49" viewBox="0 0 164 49" fill="none" xmlns="http://www.w3.org/2000/svg">
<path d="M48.112 25.5703C46.976 25.5703 45.92 25.3623 44.944 24.9463C43.984 24.5303 43.152 23.9543 42.448 23.2183C41.76 22.4663 41.256 21.5943 40.936 20.6023L43.648 19.4263C44.08 20.4503 44.704 21.2583 45.52 21.8503C46.336 22.4263 47.256 22.7143 48.28 22.7143C48.856 22.7143 49.352 22.6263 49.768 22.4503C50.2 22.2583 50.528 22.0023 50.752 21.6823C50.992 21.3623 51.112 20.9783 51.112 20.5303C51.112 20.0023 50.952 19.5703 50.632 19.2343C50.328 18.8823 49.864 18.6103 49.24 18.4183L45.808 17.3143C44.416 16.8823 43.368 16.2343 42.664 15.3703C41.96 14.5063 41.608 13.4903 41.608 12.3223C41.608 11.2983 41.856 10.3943 42.352 9.61035C42.864 8.82635 43.568 8.21835 44.464 7.78635C45.376 7.33835 46.416 7.11435 47.584 7.11435C48.656 7.11435 49.64 7.30635 50.536 7.69035C51.432 8.05835 52.2 8.57835 52.84 9.25035C53.496 9.90635 53.984 10.6823 54.304 11.5783L51.616 12.7783C51.264 11.8823 50.736 11.1943 50.032 10.7143C49.328 10.2183 48.512 9.97035 47.584 9.97035C47.04 9.97035 46.56 10.0663 46.144 10.2583C45.728 10.4343 45.4 10.6903 45.16 11.0263C44.936 11.3463 44.824 11.7303 44.824 12.1783C44.824 12.6743 44.984 13.1143 45.304 13.4983C45.624 13.8663 46.112 14.1543 46.768 14.3623L50.056 15.3943C51.48 15.8583 52.544 16.4983 53.248 17.3143C53.968 18.1303 54.328 19.1383 54.328 20.3383C54.328 21.3623 54.064 22.2663 53.536 23.0503C53.008 23.8343 52.28 24.4503 51.352 24.8983C50.424 25.3463 49.344 25.5703 48.112 25.5703ZM56.0431 25.2823V12.2263H59.1871V25.2823H56.0431ZM56.0431 10.7623V7.40235H59.1871V10.7623H56.0431ZM67.4659 30.5623C66.4899 30.5623 65.5859 30.4023 64.7539 30.0823C63.9219 29.7623 63.2019 29.3143 62.5939 28.7383C62.0019 28.1783 61.5699 27.5143 61.2979 26.7463L64.2259 25.6423C64.4179 26.2503 64.7939 26.7383 65.3539 27.1063C65.9299 27.4903 66.6339 27.6823 67.4659 27.6823C68.1059 27.6823 68.6659 27.5623 69.1459 27.3223C69.6419 27.0823 70.0259 26.7303 70.2979 26.2663C70.5699 25.8183 70.7059 25.2743 70.7059 24.6343V21.6583L71.3059 22.3783C70.8579 23.1623 70.2579 23.7543 69.5059 24.1543C68.7539 24.5543 67.8979 24.7543 66.9379 24.7543C65.7219 24.7543 64.6339 24.4743 63.6739 23.9143C62.7139 23.3543 61.9619 22.5863 61.4179 21.6103C60.8739 20.6343 60.6019 19.5383 60.6019 18.3223C60.6019 17.0903 60.8739 15.9943 61.4179 15.0343C61.9619 14.0743 62.7059 13.3223 63.6499 12.7783C64.5939 12.2183 65.6659 11.9383 66.8659 11.9383C67.8419 11.9383 68.6979 12.1463 69.4339 12.5623C70.1859 12.9623 70.8099 13.5463 71.3059 14.3143L70.8739 15.1063V12.2263H73.8499V24.6343C73.8499 25.7703 73.5699 26.7863 73.0099 27.6823C72.4659 28.5783 71.7139 29.2823 70.7539 29.7943C69.8099 30.3063 68.7139 30.5623 67.4659 30.5623ZM67.3219 21.8503C67.9939 21.8503 68.5779 21.7063 69.0739 21.4183C69.5859 21.1143 69.9859 20.6983 70.2739 20.1703C70.5619 19.6423 70.7059 19.0343 70.7059 18.3463C70.7059 17.6743 70.5539 17.0743 70.2499 16.5463C69.9619 16.0023 69.5619 15.5783 69.0499 15.2743C68.5539 14.9703 67.9779 14.8183 67.3219 14.8183C66.6659 14.8183 66.0739 14.9703 65.5459 15.2743C65.0179 15.5783 64.6019 16.0023 64.2979 16.5463C64.0099 17.0743 63.8659 17.6743 63.8659 18.3463C63.8659 19.0183 64.0099 19.6183 64.2979 20.1463C64.6019 20.6743 65.0099 21.0903 65.5219 21.3943C66.0499 21.6983 66.6499 21.8503 67.3219 21.8503ZM75.8262 25.2823V12.2263H78.7782V14.7943L78.5382 14.3383C78.8422 13.5543 79.3382 12.9623 80.0262 12.5623C80.7302 12.1463 81.5462 11.9383 82.4742 11.9383C83.4342 11.9383 84.2822 12.1463 85.0182 12.5623C85.7702 12.9783 86.3542 13.5623 86.7702 14.3143C87.1862 15.0503 87.3942 15.9063 87.3942 16.8823V25.2823H84.2502V17.6263C84.2502 17.0503 84.1382 16.5543 83.9142 16.1383C83.6902 15.7223 83.3782 15.4023 82.9782 15.1783C82.5942 14.9383 82.1382 14.8183 81.6102 14.8183C81.0982 14.8183 80.6422 14.9383 80.2422 15.1783C79.8422 15.4023 79.5302 15.7223 79.3062 16.1383C79.0822 16.5543 78.9702 17.0503 78.9702 17.6263V25.2823H75.8262ZM99.5504 25.5703C98.1744 25.5703 96.9504 25.2823 95.8784 24.7063C94.8224 24.1303 93.9904 23.3383 93.3824 22.3303C92.7744 21.3223 92.4704 20.1783 92.4704 18.8983V7.40235H95.7344V18.7303C95.7344 19.4663 95.8944 20.1303 96.2144 20.7223C96.5504 21.3143 97.0064 21.7783 97.5824 22.1143C98.1584 22.4343 98.8144 22.5943 99.5504 22.5943C100.302 22.5943 100.958 22.4343 101.518 22.1143C102.094 21.7783 102.542 21.3143 102.862 20.7223C103.198 20.1303 103.366 19.4663 103.366 18.7303V7.40235H106.63V18.8983C106.63 20.1783 106.326 21.3223 105.718 22.3303C105.11 23.3383 104.27 24.1303 103.198 24.7063C102.142 25.2823 100.926 25.5703 99.5504 25.5703ZM108.665 30.0823V12.2263H111.617V14.8183L111.329 14.1703C111.777 13.4663 112.385 12.9223 113.153 12.5383C113.921 12.1383 114.809 11.9383 115.817 11.9383C117.049 11.9383 118.161 12.2423 119.153 12.8503C120.145 13.4583 120.929 14.2743 121.505 15.2983C122.097 16.3223 122.393 17.4743 122.393 18.7543C122.393 20.0183 122.105 21.1703 121.529 22.2103C120.953 23.2503 120.169 24.0743 119.177 24.6823C118.185 25.2743 117.057 25.5703 115.793 25.5703C114.849 25.5703 113.977 25.3863 113.177 25.0183C112.393 24.6343 111.769 24.0903 111.305 23.3863L111.809 22.7623V30.0823H108.665ZM115.433 22.6903C116.153 22.6903 116.793 22.5223 117.353 22.1863C117.913 21.8503 118.345 21.3863 118.649 20.7943C118.969 20.2023 119.129 19.5223 119.129 18.7543C119.129 17.9863 118.969 17.3143 118.649 16.7383C118.345 16.1463 117.913 15.6823 117.353 15.3463C116.793 14.9943 116.153 14.8183 115.433 14.8183C114.745 14.8183 114.121 14.9863 113.561 15.3223C113.017 15.6583 112.585 16.1303 112.265 16.7383C111.961 17.3303 111.809 18.0023 111.809 18.7543C111.809 19.5223 111.961 20.2023 112.265 20.7943C112.585 21.3863 113.017 21.8503 113.561 22.1863C114.121 22.5223 114.745 22.6903 115.433 22.6903Z" fill="#0047FF"/>
<path d="M17.5953 44.9852C16.9793 44.9852 16.4433 44.8732 15.9873 44.6492C15.5313 44.4252 15.1793 44.1132 14.9313 43.7132C14.6833 43.3132 14.5593 42.8492 14.5593 42.3212H15.6152C15.6152 42.6492 15.6913 42.9532 15.8433 43.2332C15.9953 43.5052 16.2153 43.7252 16.5033 43.8932C16.7993 44.0532 17.1633 44.1332 17.5953 44.1332C18.1633 44.1332 18.6033 43.9972 18.9153 43.7252C19.2273 43.4532 19.3833 43.1132 19.3833 42.7052C19.3833 42.3692 19.3113 42.1012 19.1673 41.9012C19.0233 41.6932 18.8273 41.5252 18.5793 41.3972C18.3393 41.2692 18.0593 41.1572 17.7393 41.0612C17.4273 40.9652 17.0993 40.8572 16.7553 40.7372C16.1073 40.5132 15.6273 40.2372 15.3153 39.9092C15.0033 39.5732 14.8473 39.1372 14.8473 38.6012C14.8393 38.1532 14.9433 37.7572 15.1593 37.4132C15.3753 37.0612 15.6793 36.7892 16.0713 36.5972C16.4713 36.3972 16.9433 36.2972 17.4873 36.2972C18.0233 36.2972 18.4873 36.3972 18.8793 36.5972C19.2793 36.7972 19.5873 37.0732 19.8033 37.4252C20.0273 37.7772 20.1433 38.1772 20.1513 38.6252H19.0953C19.0953 38.3932 19.0353 38.1652 18.9153 37.9412C18.7953 37.7092 18.6113 37.5212 18.3633 37.3772C18.1233 37.2332 17.8193 37.1612 17.4513 37.1612C16.9953 37.1532 16.6193 37.2692 16.3233 37.5092C16.0353 37.7492 15.8913 38.0812 15.8913 38.5052C15.8913 38.8652 15.9913 39.1412 16.1913 39.3332C16.3993 39.5252 16.6873 39.6852 17.0553 39.8132C17.4233 39.9332 17.8473 40.0732 18.3273 40.2332C18.7273 40.3772 19.0873 40.5452 19.4073 40.7372C19.7273 40.9292 19.9753 41.1772 20.1513 41.4812C20.3353 41.7852 20.4273 42.1732 20.4273 42.6452C20.4273 43.0452 20.3233 43.4252 20.1153 43.7852C19.9073 44.1372 19.5913 44.4252 19.1673 44.6492C18.7513 44.8732 18.2273 44.9852 17.5953 44.9852ZM24.5088 44.9852C23.9488 44.9852 23.4448 44.8572 22.9968 44.6012C22.5488 44.3452 22.1928 43.9852 21.9288 43.5212C21.6728 43.0492 21.5448 42.4972 21.5448 41.8652C21.5448 41.2332 21.6768 40.6852 21.9408 40.2212C22.2048 39.7492 22.5608 39.3852 23.0088 39.1292C23.4648 38.8732 23.9728 38.7452 24.5328 38.7452C25.0928 38.7452 25.5968 38.8732 26.0448 39.1292C26.4928 39.3852 26.8448 39.7492 27.1008 40.2212C27.3648 40.6852 27.4968 41.2332 27.4968 41.8652C27.4968 42.4972 27.3648 43.0492 27.1008 43.5212C26.8368 43.9852 26.4768 44.3452 26.0208 44.6012C25.5728 44.8572 25.0688 44.9852 24.5088 44.9852ZM24.5088 44.1212C24.8528 44.1212 25.1728 44.0372 25.4688 43.8692C25.7648 43.7012 26.0048 43.4492 26.1888 43.1132C26.3728 42.7772 26.4648 42.3612 26.4648 41.8652C26.4648 41.3692 26.3728 40.9532 26.1888 40.6172C26.0128 40.2812 25.7768 40.0292 25.4808 39.8612C25.1848 39.6932 24.8688 39.6092 24.5328 39.6092C24.1888 39.6092 23.8688 39.6932 23.5728 39.8612C23.2768 40.0292 23.0368 40.2812 22.8528 40.6172C22.6688 40.9532 22.5768 41.3692 22.5768 41.8652C22.5768 42.3612 22.6688 42.7772 22.8528 43.1132C23.0368 43.4492 23.2728 43.7012 23.5608 43.8692C23.8568 44.0372 24.1728 44.1212 24.5088 44.1212ZM32.7221 47.4812L34.1981 44.2652H33.8501L31.4861 38.8892H32.5781L34.5461 43.5212L36.6341 38.8892H37.6781L33.7781 47.4812H32.7221ZM40.8916 44.9852C40.3316 44.9852 39.8276 44.8572 39.3796 44.6012C38.9316 44.3452 38.5756 43.9852 38.3116 43.5212C38.0556 43.0492 37.9276 42.4972 37.9276 41.8652C37.9276 41.2332 38.0596 40.6852 38.3236 40.2212C38.5876 39.7492 38.9436 39.3852 39.3916 39.1292C39.8476 38.8732 40.3556 38.7452 40.9156 38.7452C41.4756 38.7452 41.9796 38.8732 42.4276 39.1292C42.8756 39.3852 43.2276 39.7492 43.4836 40.2212C43.7476 40.6852 43.8796 41.2332 43.8796 41.8652C43.8796 42.4972 43.7476 43.0492 43.4836 43.5212C43.2196 43.9852 42.8596 44.3452 42.4036 44.6012C41.9556 44.8572 41.4516 44.9852 40.8916 44.9852ZM40.8916 44.1212C41.2356 44.1212 41.5556 44.0372 41.8516 43.8692C42.1476 43.7012 42.3876 43.4492 42.5716 43.1132C42.7556 42.7772 42.8476 42.3612 42.8476 41.8652C42.8476 41.3692 42.7556 40.9532 42.5716 40.6172C42.3956 40.2812 42.1596 40.0292 41.8636 39.8612C41.5676 39.6932 41.2516 39.6092 40.9156 39.6092C40.5716 39.6092 40.2516 39.6932 39.9556 39.8612C39.6596 40.0292 39.4196 40.2812 39.2356 40.6172C39.0516 40.9532 38.9596 41.3692 38.9596 41.8652C38.9596 42.3612 39.0516 42.7772 39.2356 43.1132C39.4196 43.4492 39.6556 43.7012 39.9436 43.8692C40.2396 44.0372 40.5556 44.1212 40.8916 44.1212ZM47.4531 44.9852C46.7491 44.9852 46.1891 44.7732 45.7731 44.3492C45.3571 43.9172 45.1491 43.2572 45.1491 42.3692V38.8892H46.1571V42.2612C46.1571 43.5012 46.6651 44.1212 47.6811 44.1212C48.2011 44.1212 48.6291 43.9372 48.9651 43.5692C49.3091 43.1932 49.4811 42.6612 49.4811 41.9732V38.8892H50.4891V44.8412H49.5771L49.5051 43.7732C49.3211 44.1492 49.0451 44.4452 48.6771 44.6612C48.3171 44.8772 47.9091 44.9852 47.4531 44.9852ZM58.0601 44.9852C57.4921 44.9852 56.9801 44.8572 56.5241 44.6012C56.0761 44.3372 55.7201 43.9732 55.4561 43.5092C55.2001 43.0372 55.0721 42.4892 55.0721 41.8652C55.0721 41.2412 55.2001 40.6972 55.4561 40.2332C55.7201 39.7612 56.0761 39.3972 56.5241 39.1412C56.9801 38.8772 57.4921 38.7452 58.0601 38.7452C58.7641 38.7452 59.3561 38.9292 59.8361 39.2972C60.3241 39.6652 60.6321 40.1572 60.7601 40.7732H59.7281C59.6481 40.4052 59.4521 40.1212 59.1401 39.9212C58.8281 39.7132 58.4641 39.6092 58.0481 39.6092C57.7121 39.6092 57.3961 39.6932 57.1001 39.8612C56.8041 40.0292 56.5641 40.2812 56.3801 40.6172C56.1961 40.9532 56.1041 41.3692 56.1041 41.8652C56.1041 42.3612 56.1961 42.7772 56.3801 43.1132C56.5641 43.4492 56.8041 43.7052 57.1001 43.8812C57.3961 44.0492 57.7121 44.1332 58.0481 44.1332C58.4641 44.1332 58.8281 44.0332 59.1401 43.8332C59.4521 43.6252 59.6481 43.3332 59.7281 42.9572H60.7601C60.6401 43.5572 60.3361 44.0452 59.8481 44.4212C59.3601 44.7972 58.7641 44.9852 58.0601 44.9852ZM64.1478 44.9852C63.6518 44.9852 63.2398 44.9012 62.9118 44.7332C62.5838 44.5652 62.3398 44.3412 62.1798 44.0612C62.0198 43.7812 61.9398 43.4772 61.9398 43.1492C61.9398 42.5412 62.1718 42.0732 62.6358 41.7452C63.0998 41.4172 63.7318 41.2532 64.5318 41.2532H66.1398V41.1812C66.1398 40.6612 66.0038 40.2692 65.7318 40.0052C65.4598 39.7332 65.0958 39.5972 64.6398 39.5972C64.2478 39.5972 63.9078 39.6972 63.6198 39.8972C63.3398 40.0892 63.1638 40.3732 63.0918 40.7492H62.0598C62.0998 40.3172 62.2438 39.9532 62.4918 39.6572C62.7478 39.3612 63.0638 39.1372 63.4398 38.9852C63.8158 38.8252 64.2158 38.7452 64.6398 38.7452C65.4718 38.7452 66.0958 38.9692 66.5118 39.4172C66.9358 39.8572 67.1478 40.4452 67.1478 41.1812V44.8412H66.2478L66.1878 43.7732C66.0198 44.1092 65.7718 44.3972 65.4438 44.6372C65.1238 44.8692 64.6918 44.9852 64.1478 44.9852ZM64.3038 44.1332C64.6878 44.1332 65.0158 44.0332 65.2878 43.8332C65.5678 43.6332 65.7798 43.3732 65.9238 43.0532C66.0678 42.7332 66.1398 42.3972 66.1398 42.0452V42.0332H64.6158C64.0238 42.0332 63.6038 42.1372 63.3558 42.3452C63.1158 42.5452 62.9958 42.7972 62.9958 43.1012C62.9958 43.4132 63.1078 43.6652 63.3318 43.8572C63.5638 44.0412 63.8878 44.1332 64.3038 44.1332ZM68.66 44.8412V38.8892H69.572L69.632 39.9572C69.824 39.5812 70.1 39.2852 70.46 39.0692C70.82 38.8532 71.228 38.7452 71.684 38.7452C72.388 38.7452 72.948 38.9612 73.364 39.3932C73.788 39.8172 74 40.4732 74 41.3612V44.8412H72.992V41.4692C72.992 40.2292 72.48 39.6092 71.456 39.6092C70.944 39.6092 70.516 39.7972 70.172 40.1732C69.836 40.5412 69.668 41.0692 69.668 41.7572V44.8412H68.66ZM80.983 44.9852C80.271 44.9852 79.679 44.8052 79.207 44.4452C78.735 44.0852 78.459 43.5972 78.379 42.9812H79.411C79.475 43.2932 79.639 43.5652 79.903 43.7972C80.175 44.0212 80.539 44.1332 80.995 44.1332C81.419 44.1332 81.731 44.0452 81.931 43.8692C82.131 43.6852 82.231 43.4692 82.231 43.2212C82.231 42.8612 82.099 42.6212 81.835 42.5012C81.579 42.3812 81.215 42.2732 80.743 42.1772C80.423 42.1132 80.103 42.0212 79.783 41.9012C79.463 41.7812 79.195 41.6132 78.979 41.3972C78.763 41.1732 78.655 40.8812 78.655 40.5212C78.655 40.0012 78.847 39.5772 79.231 39.2492C79.623 38.9132 80.151 38.7452 80.815 38.7452C81.447 38.7452 81.963 38.9052 82.363 39.2252C82.771 39.5372 83.007 39.9852 83.071 40.5692H82.075C82.035 40.2652 81.903 40.0292 81.679 39.8612C81.463 39.6852 81.171 39.5972 80.803 39.5972C80.443 39.5972 80.163 39.6732 79.963 39.8252C79.771 39.9772 79.675 40.1772 79.675 40.4252C79.675 40.6652 79.799 40.8532 80.047 40.9892C80.303 41.1252 80.647 41.2412 81.079 41.3372C81.447 41.4172 81.795 41.5172 82.123 41.6372C82.459 41.7492 82.731 41.9212 82.939 42.1532C83.155 42.3772 83.263 42.7052 83.263 43.1372C83.271 43.6732 83.067 44.1172 82.651 44.4692C82.243 44.8132 81.687 44.9852 80.983 44.9852ZM86.7855 44.8412C86.2415 44.8412 85.8135 44.7092 85.5015 44.4452C85.1895 44.1812 85.0335 43.7052 85.0335 43.0172V39.7412H84.0015V38.8892H85.0335L85.1655 37.4612H86.0415V38.8892H87.7935V39.7412H86.0415V43.0172C86.0415 43.3932 86.1175 43.6492 86.2695 43.7852C86.4215 43.9132 86.6895 43.9772 87.0735 43.9772H87.6975V44.8412H86.7855ZM91.0541 44.9852C90.5581 44.9852 90.1461 44.9012 89.8181 44.7332C89.4901 44.5652 89.2461 44.3412 89.0861 44.0612C88.9261 43.7812 88.8461 43.4772 88.8461 43.1492C88.8461 42.5412 89.0781 42.0732 89.5421 41.7452C90.0061 41.4172 90.6381 41.2532 91.4381 41.2532H93.0461V41.1812C93.0461 40.6612 92.9101 40.2692 92.6381 40.0052C92.3661 39.7332 92.0021 39.5972 91.5461 39.5972C91.1541 39.5972 90.8141 39.6972 90.5261 39.8972C90.2461 40.0892 90.0701 40.3732 89.9981 40.7492H88.9661C89.0061 40.3172 89.1501 39.9532 89.3981 39.6572C89.6541 39.3612 89.9701 39.1372 90.3461 38.9852C90.7221 38.8252 91.1221 38.7452 91.5461 38.7452C92.3781 38.7452 93.0021 38.9692 93.4181 39.4172C93.8421 39.8572 94.0541 40.4452 94.0541 41.1812V44.8412H93.1541L93.0941 43.7732C92.9261 44.1092 92.6781 44.3972 92.3501 44.6372C92.0301 44.8692 91.5981 44.9852 91.0541 44.9852ZM91.2101 44.1332C91.5941 44.1332 91.9221 44.0332 92.1941 43.8332C92.4741 43.6332 92.6861 43.3732 92.8301 43.0532C92.9741 42.7332 93.0461 42.3972 93.0461 42.0452V42.0332H91.5221C90.9301 42.0332 90.5101 42.1372 90.2621 42.3452C90.0221 42.5452 89.9021 42.7972 89.9021 43.1012C89.9021 43.4132 90.0141 43.6652 90.2381 43.8572C90.4701 44.0412 90.7941 44.1332 91.2101 44.1332ZM95.5663 44.8412V38.8892H96.4783L96.5623 40.0292C96.7463 39.6372 97.0263 39.3252 97.4023 39.0932C97.7783 38.8612 98.2423 38.7452 98.7943 38.7452V39.8012H98.5183C98.1663 39.8012 97.8423 39.8652 97.5463 39.9932C97.2503 40.1132 97.0143 40.3212 96.8383 40.6172C96.6623 40.9132 96.5743 41.3212 96.5743 41.8412V44.8412H95.5663ZM102.278 44.8412C101.734 44.8412 101.306 44.7092 100.994 44.4452C100.682 44.1812 100.526 43.7052 100.526 43.0172V39.7412H99.4937V38.8892H100.526L100.658 37.4612H101.534V38.8892H103.286V39.7412H101.534V43.0172C101.534 43.3932 101.61 43.6492 101.762 43.7852C101.914 43.9132 102.182 43.9772 102.566 43.9772H103.19V44.8412H102.278ZM110.022 44.9852C109.31 44.9852 108.718 44.8052 108.246 44.4452C107.774 44.0852 107.498 43.5972 107.418 42.9812H108.45C108.514 43.2932 108.678 43.5652 108.942 43.7972C109.214 44.0212 109.578 44.1332 110.034 44.1332C110.458 44.1332 110.77 44.0452 110.97 43.8692C111.17 43.6852 111.27 43.4692 111.27 43.2212C111.27 42.8612 111.138 42.6212 110.874 42.5012C110.618 42.3812 110.254 42.2732 109.782 42.1772C109.462 42.1132 109.142 42.0212 108.822 41.9012C108.502 41.7812 108.234 41.6132 108.018 41.3972C107.802 41.1732 107.694 40.8812 107.694 40.5212C107.694 40.0012 107.886 39.5772 108.27 39.2492C108.662 38.9132 109.19 38.7452 109.854 38.7452C110.486 38.7452 111.002 38.9052 111.402 39.2252C111.81 39.5372 112.046 39.9852 112.11 40.5692H111.114C111.074 40.2652 110.942 40.0292 110.718 39.8612C110.502 39.6852 110.21 39.5972 109.842 39.5972C109.482 39.5972 109.202 39.6732 109.002 39.8252C108.81 39.9772 108.714 40.1772 108.714 40.4252C108.714 40.6652 108.838 40.8532 109.086 40.9892C109.342 41.1252 109.686 41.2412 110.118 41.3372C110.486 41.4172 110.834 41.5172 111.162 41.6372C111.498 41.7492 111.77 41.9212 111.978 42.1532C112.194 42.3772 112.302 42.7052 112.302 43.1372C112.31 43.6732 112.106 44.1172 111.69 44.4692C111.282 44.8132 110.726 44.9852 110.022 44.9852ZM113.742 44.8412V36.2012H114.75V39.9092C114.95 39.5412 115.234 39.2572 115.602 39.0572C115.97 38.8492 116.37 38.7452 116.802 38.7452C117.49 38.7452 118.042 38.9612 118.458 39.3932C118.874 39.8172 119.082 40.4732 119.082 41.3612V44.8412H118.086V41.4692C118.086 40.2292 117.586 39.6092 116.586 39.6092C116.066 39.6092 115.63 39.7972 115.278 40.1732C114.926 40.5412 114.75 41.0692 114.75 41.7572V44.8412H113.742ZM122.589 44.9852C122.093 44.9852 121.681 44.9012 121.353 44.7332C121.025 44.5652 120.781 44.3412 120.621 44.0612C120.461 43.7812 120.381 43.4772 120.381 43.1492C120.381 42.5412 120.613 42.0732 121.077 41.7452C121.541 41.4172 122.173 41.2532 122.973 41.2532H124.581V41.1812C124.581 40.6612 124.445 40.2692 124.173 40.0052C123.901 39.7332 123.537 39.5972 123.081 39.5972C122.689 39.5972 122.349 39.6972 122.061 39.8972C121.781 40.0892 121.605 40.3732 121.533 40.7492H120.501C120.541 40.3172 120.685 39.9532 120.933 39.6572C121.189 39.3612 121.505 39.1372 121.881 38.9852C122.257 38.8252 122.657 38.7452 123.081 38.7452C123.913 38.7452 124.537 38.9692 124.953 39.4172C125.377 39.8572 125.589 40.4452 125.589 41.1812V44.8412H124.689L124.629 43.7732C124.461 44.1092 124.213 44.3972 123.885 44.6372C123.565 44.8692 123.133 44.9852 122.589 44.9852ZM122.745 44.1332C123.129 44.1332 123.457 44.0332 123.729 43.8332C124.009 43.6332 124.221 43.3732 124.365 43.0532C124.509 42.7332 124.581 42.3972 124.581 42.0452V42.0332H123.057C122.465 42.0332 122.045 42.1372 121.797 42.3452C121.557 42.5452 121.437 42.7972 121.437 43.1012C121.437 43.4132 121.549 43.6652 121.773 43.8572C122.005 44.0412 122.329 44.1332 122.745 44.1332ZM127.101 44.8412V38.8892H128.013L128.097 40.0292C128.281 39.6372 128.561 39.3252 128.937 39.0932C129.313 38.8612 129.777 38.7452 130.329 38.7452V39.8012H130.053C129.701 39.8012 129.377 39.8652 129.081 39.9932C128.785 40.1132 128.549 40.3212 128.373 40.6172C128.197 40.9132 128.109 41.3212 128.109 41.8412V44.8412H127.101ZM132.073 37.5692C131.873 37.5692 131.705 37.5052 131.569 37.3772C131.441 37.2412 131.377 37.0732 131.377 36.8732C131.377 36.6812 131.441 36.5212 131.569 36.3932C131.705 36.2652 131.873 36.2012 132.073 36.2012C132.265 36.2012 132.429 36.2652 132.565 36.3932C132.701 36.5212 132.769 36.6812 132.769 36.8732C132.769 37.0732 132.701 37.2412 132.565 37.3772C132.429 37.5052 132.265 37.5692 132.073 37.5692ZM131.569 44.8412V38.8892H132.577V44.8412H131.569ZM134.332 44.8412V38.8892H135.244L135.304 39.9572C135.496 39.5812 135.772 39.2852 136.132 39.0692C136.492 38.8532 136.9 38.7452 137.356 38.7452C138.06 38.7452 138.62 38.9612 139.036 39.3932C139.46 39.8172 139.672 40.4732 139.672 41.3612V44.8412H138.664V41.4692C138.664 40.2292 138.152 39.6092 137.128 39.6092C136.616 39.6092 136.188 39.7972 135.844 40.1732C135.508 40.5412 135.34 41.0692 135.34 41.7572V44.8412H134.332ZM143.551 42.9692C143.215 42.9692 142.907 42.9252 142.627 42.8372L142.027 43.4012C142.115 43.4652 142.223 43.5212 142.351 43.5692C142.487 43.6092 142.679 43.6492 142.927 43.6892C143.175 43.7212 143.523 43.7572 143.971 43.7972C144.771 43.8532 145.343 44.0372 145.687 44.3492C146.031 44.6612 146.203 45.0692 146.203 45.5732C146.203 45.9172 146.107 46.2452 145.915 46.5572C145.731 46.8692 145.443 47.1252 145.051 47.3252C144.667 47.5252 144.171 47.6252 143.563 47.6252C143.027 47.6252 142.551 47.5532 142.135 47.4092C141.719 47.2732 141.395 47.0612 141.163 46.7732C140.931 46.4932 140.815 46.1372 140.815 45.7052C140.815 45.4812 140.875 45.2372 140.995 44.9732C141.115 44.7172 141.339 44.4732 141.667 44.2412C141.491 44.1692 141.339 44.0932 141.211 44.0132C141.091 43.9252 140.979 43.8292 140.875 43.7252V43.4492L141.895 42.4412C141.423 42.0412 141.187 41.5132 141.187 40.8572C141.187 40.4652 141.279 40.1092 141.463 39.7892C141.647 39.4692 141.915 39.2172 142.267 39.0332C142.619 38.8412 143.047 38.7452 143.551 38.7452C143.895 38.7452 144.207 38.7932 144.487 38.8892H146.683V39.6452L145.567 39.6932C145.799 40.0292 145.915 40.4172 145.915 40.8572C145.915 41.2492 145.819 41.6052 145.627 41.9252C145.443 42.2452 145.175 42.5012 144.823 42.6932C144.479 42.8772 144.055 42.9692 143.551 42.9692ZM143.551 42.1412C143.975 42.1412 144.311 42.0332 144.559 41.8172C144.815 41.5932 144.943 41.2732 144.943 40.8572C144.943 40.4492 144.815 40.1372 144.559 39.9212C144.311 39.6972 143.975 39.5852 143.551 39.5852C143.119 39.5852 142.775 39.6972 142.519 39.9212C142.271 40.1372 142.147 40.4492 142.147 40.8572C142.147 41.2732 142.271 41.5932 142.519 41.8172C142.775 42.0332 143.119 42.1412 143.551 42.1412ZM141.799 45.6092C141.799 46.0092 141.967 46.3052 142.303 46.4972C142.639 46.6972 143.059 46.7972 143.563 46.7972C144.059 46.7972 144.455 46.6892 144.751 46.4732C145.055 46.2572 145.207 45.9692 145.207 45.6092C145.207 45.3532 145.103 45.1292 144.895 44.9372C144.687 44.7532 144.303 44.6452 143.743 44.6132C143.303 44.5812 142.923 44.5412 142.603 44.4932C142.275 44.6692 142.059 44.8572 141.955 45.0572C141.851 45.2652 141.799 45.4492 141.799 45.6092ZM148.036 42.5132L147.916 36.4412H149.008L148.888 42.5132H148.036ZM148.492 44.9012C148.292 44.9012 148.124 44.8372 147.988 44.7092C147.86 44.5732 147.796 44.4092 147.796 44.2172C147.796 44.0252 147.86 43.8652 147.988 43.7372C148.124 43.6012 148.292 43.5332 148.492 43.5332C148.684 43.5332 148.844 43.6012 148.972 43.7372C149.108 43.8652 149.176 44.0252 149.176 44.2172C149.176 44.4092 149.108 44.5732 148.972 44.7092C148.844 44.8372 148.684 44.9012 148.492 44.9012Z" fill="#262626"/>
</svg>
