<svg width="164" height="49" viewBox="0 0 164 49" fill="none" xmlns="http://www.w3.org/2000/svg">
<path d="M8.112 25.5703C6.976 25.5703 5.92 25.3623 4.944 24.9463C3.984 24.5303 3.152 23.9543 2.448 23.2183C1.76 22.4663 1.256 21.5943 0.936 20.6023L3.648 19.4263C4.08 20.4503 4.704 21.2583 5.52 21.8503C6.336 22.4263 7.256 22.7143 8.28 22.7143C8.856 22.7143 9.352 22.6263 9.768 22.4503C10.2 22.2583 10.528 22.0023 10.752 21.6823C10.992 21.3623 11.112 20.9783 11.112 20.5303C11.112 20.0023 10.952 19.5703 10.632 19.2343C10.328 18.8823 9.864 18.6103 9.24 18.4183L5.808 17.3143C4.416 16.8823 3.368 16.2343 2.664 15.3703C1.96 14.5063 1.608 13.4903 1.608 12.3223C1.608 11.2983 1.856 10.3943 2.352 9.61035C2.864 8.82635 3.568 8.21835 4.464 7.78635C5.376 7.33835 6.416 7.11435 7.584 7.11435C8.656 7.11435 9.64 7.30635 10.536 7.69035C11.432 8.05835 12.2 8.57835 12.84 9.25035C13.496 9.90635 13.984 10.6823 14.304 11.5783L11.616 12.7783C11.264 11.8823 10.736 11.1943 10.032 10.7143C9.328 10.2183 8.512 9.97035 7.584 9.97035C7.04 9.97035 6.56 10.0663 6.144 10.2583C5.728 10.4343 5.4 10.6903 5.16 11.0263C4.936 11.3463 4.824 11.7303 4.824 12.1783C4.824 12.6743 4.984 13.1143 5.304 13.4983C5.624 13.8663 6.112 14.1543 6.768 14.3623L10.056 15.3943C11.48 15.8583 12.544 16.4983 13.248 17.3143C13.968 18.1303 14.328 19.1383 14.328 20.3383C14.328 21.3623 14.064 22.2663 13.536 23.0503C13.008 23.8343 12.28 24.4503 11.352 24.8983C10.424 25.3463 9.344 25.5703 8.112 25.5703ZM16.0431 25.2823V12.2263H19.1871V25.2823H16.0431ZM16.0431 10.7623V7.40235H19.1871V10.7623H16.0431ZM27.4659 30.5623C26.4899 30.5623 25.5859 30.4023 24.7539 30.0823C23.9219 29.7623 23.2019 29.3143 22.5939 28.7383C22.0019 28.1783 21.5699 27.5143 21.2979 26.7463L24.2259 25.6423C24.4179 26.2503 24.7939 26.7383 25.3539 27.1063C25.9299 27.4903 26.6339 27.6823 27.4659 27.6823C28.1059 27.6823 28.6659 27.5623 29.1459 27.3223C29.6419 27.0823 30.0259 26.7303 30.2979 26.2663C30.5699 25.8183 30.7059 25.2743 30.7059 24.6343V21.6583L31.3059 22.3783C30.8579 23.1623 30.2579 23.7543 29.5059 24.1543C28.7539 24.5543 27.8979 24.7543 26.9379 24.7543C25.7219 24.7543 24.6339 24.4743 23.6739 23.9143C22.7139 23.3543 21.9619 22.5863 21.4179 21.6103C20.8739 20.6343 20.6019 19.5383 20.6019 18.3223C20.6019 17.0903 20.8739 15.9943 21.4179 15.0343C21.9619 14.0743 22.7059 13.3223 23.6499 12.7783C24.5939 12.2183 25.6659 11.9383 26.8659 11.9383C27.8419 11.9383 28.6979 12.1463 29.4339 12.5623C30.1859 12.9623 30.8099 13.5463 31.3059 14.3143L30.8739 15.1063V12.2263H33.8499V24.6343C33.8499 25.7703 33.5699 26.7863 33.0099 27.6823C32.4659 28.5783 31.7139 29.2823 30.7539 29.7943C29.8099 30.3063 28.7139 30.5623 27.4659 30.5623ZM27.3219 21.8503C27.9939 21.8503 28.5779 21.7063 29.0739 21.4183C29.5859 21.1143 29.9859 20.6983 30.2739 20.1703C30.5619 19.6423 30.7059 19.0343 30.7059 18.3463C30.7059 17.6743 30.5539 17.0743 30.2499 16.5463C29.9619 16.0023 29.5619 15.5783 29.0499 15.2743C28.5539 14.9703 27.9779 14.8183 27.3219 14.8183C26.6659 14.8183 26.0739 14.9703 25.5459 15.2743C25.0179 15.5783 24.6019 16.0023 24.2979 16.5463C24.0099 17.0743 23.8659 17.6743 23.8659 18.3463C23.8659 19.0183 24.0099 19.6183 24.2979 20.1463C24.6019 20.6743 25.0099 21.0903 25.5219 21.3943C26.0499 21.6983 26.6499 21.8503 27.3219 21.8503ZM35.8262 25.2823V12.2263H38.7782V14.7943L38.5382 14.3383C38.8422 13.5543 39.3382 12.9623 40.0262 12.5623C40.7302 12.1463 41.5462 11.9383 42.4742 11.9383C43.4342 11.9383 44.2822 12.1463 45.0182 12.5623C45.7702 12.9783 46.3542 13.5623 46.7702 14.3143C47.1862 15.0503 47.3942 15.9063 47.3942 16.8823V25.2823H44.2502V17.6263C44.2502 17.0503 44.1382 16.5543 43.9142 16.1383C43.6902 15.7223 43.3782 15.4023 42.9782 15.1783C42.5942 14.9383 42.1382 14.8183 41.6102 14.8183C41.0982 14.8183 40.6422 14.9383 40.2422 15.1783C39.8422 15.4023 39.5302 15.7223 39.3062 16.1383C39.0822 16.5543 38.9702 17.0503 38.9702 17.6263V25.2823H35.8262ZM59.5504 25.5703C58.1744 25.5703 56.9504 25.2823 55.8784 24.7063C54.8224 24.1303 53.9904 23.3383 53.3824 22.3303C52.7744 21.3223 52.4704 20.1783 52.4704 18.8983V7.40235H55.7344V18.7303C55.7344 19.4663 55.8944 20.1303 56.2144 20.7223C56.5504 21.3143 57.0064 21.7783 57.5824 22.1143C58.1584 22.4343 58.8144 22.5943 59.5504 22.5943C60.3024 22.5943 60.9584 22.4343 61.5184 22.1143C62.0944 21.7783 62.5424 21.3143 62.8624 20.7223C63.1984 20.1303 63.3664 19.4663 63.3664 18.7303V7.40235H66.6304V18.8983C66.6304 20.1783 66.3264 21.3223 65.7184 22.3303C65.1104 23.3383 64.2704 24.1303 63.1984 24.7063C62.1424 25.2823 60.9264 25.5703 59.5504 25.5703ZM68.6649 30.0823V12.2263H71.6169V14.8183L71.3289 14.1703C71.7769 13.4663 72.3849 12.9223 73.1529 12.5383C73.9209 12.1383 74.8089 11.9383 75.8169 11.9383C77.0489 11.9383 78.1609 12.2423 79.1529 12.8503C80.1449 13.4583 80.9289 14.2743 81.5049 15.2983C82.0969 16.3223 82.3929 17.4743 82.3929 18.7543C82.3929 20.0183 82.1049 21.1703 81.5289 22.2103C80.9529 23.2503 80.1689 24.0743 79.1769 24.6823C78.1849 25.2743 77.0569 25.5703 75.7929 25.5703C74.8489 25.5703 73.9769 25.3863 73.1769 25.0183C72.3929 24.6343 71.7689 24.0903 71.3049 23.3863L71.8089 22.7623V30.0823H68.6649ZM75.4329 22.6903C76.1529 22.6903 76.7929 22.5223 77.3529 22.1863C77.9129 21.8503 78.3449 21.3863 78.6489 20.7943C78.9689 20.2023 79.1289 19.5223 79.1289 18.7543C79.1289 17.9863 78.9689 17.3143 78.6489 16.7383C78.3449 16.1463 77.9129 15.6823 77.3529 15.3463C76.7929 14.9943 76.1529 14.8183 75.4329 14.8183C74.7449 14.8183 74.1209 14.9863 73.5609 15.3223C73.0169 15.6583 72.5849 16.1303 72.2649 16.7383C71.9609 17.3303 71.8089 18.0023 71.8089 18.7543C71.8089 19.5223 71.9609 20.2023 72.2649 20.7943C72.5849 21.3863 73.0169 21.8503 73.5609 22.1863C74.1209 22.5223 74.7449 22.6903 75.4329 22.6903Z" fill="#0047FF"/>
<path d="M3.564 44.9852C2.948 44.9852 2.412 44.8732 1.956 44.6492C1.5 44.4252 1.148 44.1132 0.9 43.7132C0.652 43.3132 0.528 42.8492 0.528 42.3212H1.584C1.584 42.6492 1.66 42.9532 1.812 43.2332C1.964 43.5052 2.184 43.7252 2.472 43.8932C2.768 44.0532 3.132 44.1332 3.564 44.1332C4.132 44.1332 4.572 43.9972 4.884 43.7252C5.196 43.4532 5.352 43.1132 5.352 42.7052C5.352 42.3692 5.28 42.1012 5.136 41.9012C4.992 41.6932 4.796 41.5252 4.548 41.3972C4.308 41.2692 4.028 41.1572 3.708 41.0612C3.396 40.9652 3.068 40.8572 2.724 40.7372C2.076 40.5132 1.596 40.2372 1.284 39.9092C0.972 39.5732 0.816 39.1372 0.816 38.6012C0.808 38.1532 0.912 37.7572 1.128 37.4132C1.344 37.0612 1.648 36.7892 2.04 36.5972C2.44 36.3972 2.912 36.2972 3.456 36.2972C3.992 36.2972 4.456 36.3972 4.848 36.5972C5.248 36.7972 5.556 37.0732 5.772 37.4252C5.996 37.7772 6.112 38.1772 6.12 38.6252H5.064C5.064 38.3932 5.004 38.1652 4.884 37.9412C4.764 37.7092 4.58 37.5212 4.332 37.3772C4.092 37.2332 3.788 37.1612 3.42 37.1612C2.964 37.1532 2.588 37.2692 2.292 37.5092C2.004 37.7492 1.86 38.0812 1.86 38.5052C1.86 38.8652 1.96 39.1412 2.16 39.3332C2.368 39.5252 2.656 39.6852 3.024 39.8132C3.392 39.9332 3.816 40.0732 4.296 40.2332C4.696 40.3772 5.056 40.5452 5.376 40.7372C5.696 40.9292 5.944 41.1772 6.12 41.4812C6.304 41.7852 6.396 42.1732 6.396 42.6452C6.396 43.0452 6.292 43.4252 6.084 43.7852C5.876 44.1372 5.56 44.4252 5.136 44.6492C4.72 44.8732 4.196 44.9852 3.564 44.9852ZM10.4775 44.9852C9.9175 44.9852 9.4135 44.8572 8.9655 44.6012C8.5175 44.3452 8.1615 43.9852 7.8975 43.5212C7.6415 43.0492 7.5135 42.4972 7.5135 41.8652C7.5135 41.2332 7.6455 40.6852 7.9095 40.2212C8.1735 39.7492 8.5295 39.3852 8.9775 39.1292C9.4335 38.8732 9.9415 38.7452 10.5015 38.7452C11.0615 38.7452 11.5655 38.8732 12.0135 39.1292C12.4615 39.3852 12.8135 39.7492 13.0695 40.2212C13.3335 40.6852 13.4655 41.2332 13.4655 41.8652C13.4655 42.4972 13.3335 43.0492 13.0695 43.5212C12.8055 43.9852 12.4455 44.3452 11.9895 44.6012C11.5415 44.8572 11.0375 44.9852 10.4775 44.9852ZM10.4775 44.1212C10.8215 44.1212 11.1415 44.0372 11.4375 43.8692C11.7335 43.7012 11.9735 43.4492 12.1575 43.1132C12.3415 42.7772 12.4335 42.3612 12.4335 41.8652C12.4335 41.3692 12.3415 40.9532 12.1575 40.6172C11.9815 40.2812 11.7455 40.0292 11.4495 39.8612C11.1535 39.6932 10.8375 39.6092 10.5015 39.6092C10.1575 39.6092 9.8375 39.6932 9.5415 39.8612C9.2455 40.0292 9.0055 40.2812 8.8215 40.6172C8.6375 40.9532 8.5455 41.3692 8.5455 41.8652C8.5455 42.3612 8.6375 42.7772 8.8215 43.1132C9.0055 43.4492 9.2415 43.7012 9.5295 43.8692C9.8255 44.0372 10.1415 44.1212 10.4775 44.1212ZM18.6908 47.4812L20.1668 44.2652H19.8188L17.4548 38.8892H18.5468L20.5148 43.5212L22.6028 38.8892H23.6468L19.7468 47.4812H18.6908ZM26.8603 44.9852C26.3003 44.9852 25.7963 44.8572 25.3483 44.6012C24.9003 44.3452 24.5443 43.9852 24.2803 43.5212C24.0243 43.0492 23.8963 42.4972 23.8963 41.8652C23.8963 41.2332 24.0283 40.6852 24.2923 40.2212C24.5563 39.7492 24.9123 39.3852 25.3603 39.1292C25.8163 38.8732 26.3243 38.7452 26.8843 38.7452C27.4443 38.7452 27.9483 38.8732 28.3963 39.1292C28.8443 39.3852 29.1963 39.7492 29.4523 40.2212C29.7163 40.6852 29.8483 41.2332 29.8483 41.8652C29.8483 42.4972 29.7163 43.0492 29.4523 43.5212C29.1883 43.9852 28.8283 44.3452 28.3723 44.6012C27.9243 44.8572 27.4203 44.9852 26.8603 44.9852ZM26.8603 44.1212C27.2043 44.1212 27.5243 44.0372 27.8203 43.8692C28.1163 43.7012 28.3563 43.4492 28.5403 43.1132C28.7243 42.7772 28.8163 42.3612 28.8163 41.8652C28.8163 41.3692 28.7243 40.9532 28.5403 40.6172C28.3643 40.2812 28.1283 40.0292 27.8323 39.8612C27.5363 39.6932 27.2203 39.6092 26.8843 39.6092C26.5403 39.6092 26.2203 39.6932 25.9243 39.8612C25.6283 40.0292 25.3883 40.2812 25.2043 40.6172C25.0203 40.9532 24.9283 41.3692 24.9283 41.8652C24.9283 42.3612 25.0203 42.7772 25.2043 43.1132C25.3883 43.4492 25.6243 43.7012 25.9123 43.8692C26.2083 44.0372 26.5243 44.1212 26.8603 44.1212ZM33.4219 44.9852C32.7179 44.9852 32.1579 44.7732 31.7419 44.3492C31.3259 43.9172 31.1179 43.2572 31.1179 42.3692V38.8892H32.1259V42.2612C32.1259 43.5012 32.6339 44.1212 33.6499 44.1212C34.1699 44.1212 34.5979 43.9372 34.9339 43.5692C35.2779 43.1932 35.4499 42.6612 35.4499 41.9732V38.8892H36.4579V44.8412H35.5459L35.4739 43.7732C35.2899 44.1492 35.0139 44.4452 34.6459 44.6612C34.2859 44.8772 33.8779 44.9852 33.4219 44.9852ZM44.0288 44.9852C43.4608 44.9852 42.9488 44.8572 42.4928 44.6012C42.0448 44.3372 41.6888 43.9732 41.4248 43.5092C41.1688 43.0372 41.0408 42.4892 41.0408 41.8652C41.0408 41.2412 41.1688 40.6972 41.4248 40.2332C41.6888 39.7612 42.0448 39.3972 42.4928 39.1412C42.9488 38.8772 43.4608 38.7452 44.0288 38.7452C44.7328 38.7452 45.3248 38.9292 45.8048 39.2972C46.2928 39.6652 46.6008 40.1572 46.7288 40.7732H45.6968C45.6168 40.4052 45.4208 40.1212 45.1088 39.9212C44.7968 39.7132 44.4328 39.6092 44.0168 39.6092C43.6808 39.6092 43.3648 39.6932 43.0688 39.8612C42.7728 40.0292 42.5328 40.2812 42.3488 40.6172C42.1648 40.9532 42.0728 41.3692 42.0728 41.8652C42.0728 42.3612 42.1648 42.7772 42.3488 43.1132C42.5328 43.4492 42.7728 43.7052 43.0688 43.8812C43.3648 44.0492 43.6808 44.1332 44.0168 44.1332C44.4328 44.1332 44.7968 44.0332 45.1088 43.8332C45.4208 43.6252 45.6168 43.3332 45.6968 42.9572H46.7288C46.6088 43.5572 46.3048 44.0452 45.8168 44.4212C45.3288 44.7972 44.7328 44.9852 44.0288 44.9852ZM50.1166 44.9852C49.6206 44.9852 49.2086 44.9012 48.8806 44.7332C48.5526 44.5652 48.3086 44.3412 48.1486 44.0612C47.9886 43.7812 47.9086 43.4772 47.9086 43.1492C47.9086 42.5412 48.1406 42.0732 48.6046 41.7452C49.0686 41.4172 49.7006 41.2532 50.5006 41.2532H52.1086V41.1812C52.1086 40.6612 51.9726 40.2692 51.7006 40.0052C51.4286 39.7332 51.0646 39.5972 50.6086 39.5972C50.2166 39.5972 49.8766 39.6972 49.5886 39.8972C49.3086 40.0892 49.1326 40.3732 49.0606 40.7492H48.0286C48.0686 40.3172 48.2126 39.9532 48.4606 39.6572C48.7166 39.3612 49.0326 39.1372 49.4086 38.9852C49.7846 38.8252 50.1846 38.7452 50.6086 38.7452C51.4406 38.7452 52.0646 38.9692 52.4806 39.4172C52.9046 39.8572 53.1166 40.4452 53.1166 41.1812V44.8412H52.2166L52.1566 43.7732C51.9886 44.1092 51.7406 44.3972 51.4126 44.6372C51.0926 44.8692 50.6606 44.9852 50.1166 44.9852ZM50.2726 44.1332C50.6566 44.1332 50.9846 44.0332 51.2566 43.8332C51.5366 43.6332 51.7486 43.3732 51.8926 43.0532C52.0366 42.7332 52.1086 42.3972 52.1086 42.0452V42.0332H50.5846C49.9926 42.0332 49.5726 42.1372 49.3246 42.3452C49.0846 42.5452 48.9646 42.7972 48.9646 43.1012C48.9646 43.4132 49.0766 43.6652 49.3006 43.8572C49.5326 44.0412 49.8566 44.1332 50.2726 44.1332ZM54.6288 44.8412V38.8892H55.5408L55.6008 39.9572C55.7928 39.5812 56.0688 39.2852 56.4288 39.0692C56.7888 38.8532 57.1968 38.7452 57.6528 38.7452C58.3568 38.7452 58.9168 38.9612 59.3328 39.3932C59.7568 39.8172 59.9688 40.4732 59.9688 41.3612V44.8412H58.9608V41.4692C58.9608 40.2292 58.4488 39.6092 57.4248 39.6092C56.9128 39.6092 56.4848 39.7972 56.1408 40.1732C55.8048 40.5412 55.6368 41.0692 55.6368 41.7572V44.8412H54.6288ZM66.9518 44.9852C66.2398 44.9852 65.6478 44.8052 65.1758 44.4452C64.7038 44.0852 64.4278 43.5972 64.3478 42.9812H65.3798C65.4438 43.2932 65.6078 43.5652 65.8718 43.7972C66.1438 44.0212 66.5078 44.1332 66.9638 44.1332C67.3878 44.1332 67.6998 44.0452 67.8998 43.8692C68.0998 43.6852 68.1998 43.4692 68.1998 43.2212C68.1998 42.8612 68.0678 42.6212 67.8038 42.5012C67.5478 42.3812 67.1838 42.2732 66.7118 42.1772C66.3918 42.1132 66.0718 42.0212 65.7518 41.9012C65.4318 41.7812 65.1638 41.6132 64.9478 41.3972C64.7318 41.1732 64.6238 40.8812 64.6238 40.5212C64.6238 40.0012 64.8158 39.5772 65.1998 39.2492C65.5918 38.9132 66.1198 38.7452 66.7838 38.7452C67.4158 38.7452 67.9318 38.9052 68.3318 39.2252C68.7398 39.5372 68.9758 39.9852 69.0398 40.5692H68.0438C68.0038 40.2652 67.8718 40.0292 67.6478 39.8612C67.4318 39.6852 67.1398 39.5972 66.7718 39.5972C66.4118 39.5972 66.1318 39.6732 65.9318 39.8252C65.7398 39.9772 65.6438 40.1772 65.6438 40.4252C65.6438 40.6652 65.7678 40.8532 66.0158 40.9892C66.2718 41.1252 66.6158 41.2412 67.0478 41.3372C67.4158 41.4172 67.7638 41.5172 68.0918 41.6372C68.4278 41.7492 68.6998 41.9212 68.9078 42.1532C69.1238 42.3772 69.2318 42.7052 69.2318 43.1372C69.2398 43.6732 69.0358 44.1172 68.6198 44.4692C68.2118 44.8132 67.6558 44.9852 66.9518 44.9852ZM72.7542 44.8412C72.2102 44.8412 71.7822 44.7092 71.4702 44.4452C71.1582 44.1812 71.0022 43.7052 71.0022 43.0172V39.7412H69.9702V38.8892H71.0022L71.1342 37.4612H72.0102V38.8892H73.7622V39.7412H72.0102V43.0172C72.0102 43.3932 72.0862 43.6492 72.2382 43.7852C72.3902 43.9132 72.6582 43.9772 73.0422 43.9772H73.6662V44.8412H72.7542ZM77.0228 44.9852C76.5268 44.9852 76.1148 44.9012 75.7868 44.7332C75.4588 44.5652 75.2148 44.3412 75.0548 44.0612C74.8948 43.7812 74.8148 43.4772 74.8148 43.1492C74.8148 42.5412 75.0468 42.0732 75.5108 41.7452C75.9748 41.4172 76.6068 41.2532 77.4068 41.2532H79.0148V41.1812C79.0148 40.6612 78.8788 40.2692 78.6068 40.0052C78.3348 39.7332 77.9708 39.5972 77.5148 39.5972C77.1228 39.5972 76.7828 39.6972 76.4948 39.8972C76.2148 40.0892 76.0388 40.3732 75.9668 40.7492H74.9348C74.9748 40.3172 75.1188 39.9532 75.3668 39.6572C75.6228 39.3612 75.9388 39.1372 76.3148 38.9852C76.6908 38.8252 77.0908 38.7452 77.5148 38.7452C78.3468 38.7452 78.9708 38.9692 79.3868 39.4172C79.8108 39.8572 80.0228 40.4452 80.0228 41.1812V44.8412H79.1228L79.0628 43.7732C78.8948 44.1092 78.6468 44.3972 78.3188 44.6372C77.9988 44.8692 77.5668 44.9852 77.0228 44.9852ZM77.1788 44.1332C77.5628 44.1332 77.8908 44.0332 78.1628 43.8332C78.4428 43.6332 78.6548 43.3732 78.7988 43.0532C78.9428 42.7332 79.0148 42.3972 79.0148 42.0452V42.0332H77.4908C76.8988 42.0332 76.4788 42.1372 76.2308 42.3452C75.9908 42.5452 75.8708 42.7972 75.8708 43.1012C75.8708 43.4132 75.9828 43.6652 76.2068 43.8572C76.4388 44.0412 76.7628 44.1332 77.1788 44.1332ZM81.535 44.8412V38.8892H82.447L82.531 40.0292C82.715 39.6372 82.995 39.3252 83.371 39.0932C83.747 38.8612 84.211 38.7452 84.763 38.7452V39.8012H84.487C84.135 39.8012 83.811 39.8652 83.515 39.9932C83.219 40.1132 82.983 40.3212 82.807 40.6172C82.631 40.9132 82.543 41.3212 82.543 41.8412V44.8412H81.535ZM88.2464 44.8412C87.7024 44.8412 87.2744 44.7092 86.9624 44.4452C86.6504 44.1812 86.4944 43.7052 86.4944 43.0172V39.7412H85.4624V38.8892H86.4944L86.6264 37.4612H87.5024V38.8892H89.2544V39.7412H87.5024V43.0172C87.5024 43.3932 87.5784 43.6492 87.7304 43.7852C87.8824 43.9132 88.1504 43.9772 88.5344 43.9772H89.1584V44.8412H88.2464ZM95.9908 44.9852C95.2788 44.9852 94.6868 44.8052 94.2148 44.4452C93.7428 44.0852 93.4668 43.5972 93.3868 42.9812H94.4188C94.4828 43.2932 94.6468 43.5652 94.9108 43.7972C95.1828 44.0212 95.5468 44.1332 96.0028 44.1332C96.4268 44.1332 96.7388 44.0452 96.9388 43.8692C97.1388 43.6852 97.2388 43.4692 97.2388 43.2212C97.2388 42.8612 97.1068 42.6212 96.8428 42.5012C96.5868 42.3812 96.2228 42.2732 95.7508 42.1772C95.4308 42.1132 95.1108 42.0212 94.7908 41.9012C94.4708 41.7812 94.2028 41.6132 93.9868 41.3972C93.7708 41.1732 93.6628 40.8812 93.6628 40.5212C93.6628 40.0012 93.8548 39.5772 94.2388 39.2492C94.6308 38.9132 95.1588 38.7452 95.8228 38.7452C96.4548 38.7452 96.9708 38.9052 97.3708 39.2252C97.7788 39.5372 98.0148 39.9852 98.0788 40.5692H97.0828C97.0428 40.2652 96.9108 40.0292 96.6868 39.8612C96.4708 39.6852 96.1788 39.5972 95.8108 39.5972C95.4508 39.5972 95.1708 39.6732 94.9708 39.8252C94.7788 39.9772 94.6828 40.1772 94.6828 40.4252C94.6828 40.6652 94.8068 40.8532 95.0548 40.9892C95.3108 41.1252 95.6548 41.2412 96.0868 41.3372C96.4548 41.4172 96.8028 41.5172 97.1308 41.6372C97.4668 41.7492 97.7388 41.9212 97.9468 42.1532C98.1628 42.3772 98.2708 42.7052 98.2708 43.1372C98.2788 43.6732 98.0748 44.1172 97.6588 44.4692C97.2508 44.8132 96.6948 44.9852 95.9908 44.9852ZM99.7108 44.8412V36.2012H100.719V39.9092C100.919 39.5412 101.203 39.2572 101.571 39.0572C101.939 38.8492 102.339 38.7452 102.771 38.7452C103.459 38.7452 104.011 38.9612 104.427 39.3932C104.843 39.8172 105.051 40.4732 105.051 41.3612V44.8412H104.055V41.4692C104.055 40.2292 103.555 39.6092 102.555 39.6092C102.035 39.6092 101.599 39.7972 101.247 40.1732C100.895 40.5412 100.719 41.0692 100.719 41.7572V44.8412H99.7108ZM108.558 44.9852C108.062 44.9852 107.65 44.9012 107.322 44.7332C106.994 44.5652 106.75 44.3412 106.59 44.0612C106.43 43.7812 106.35 43.4772 106.35 43.1492C106.35 42.5412 106.582 42.0732 107.046 41.7452C107.51 41.4172 108.142 41.2532 108.942 41.2532H110.55V41.1812C110.55 40.6612 110.414 40.2692 110.142 40.0052C109.87 39.7332 109.506 39.5972 109.05 39.5972C108.658 39.5972 108.318 39.6972 108.03 39.8972C107.75 40.0892 107.574 40.3732 107.502 40.7492H106.47C106.51 40.3172 106.654 39.9532 106.902 39.6572C107.158 39.3612 107.474 39.1372 107.85 38.9852C108.226 38.8252 108.626 38.7452 109.05 38.7452C109.882 38.7452 110.506 38.9692 110.922 39.4172C111.346 39.8572 111.558 40.4452 111.558 41.1812V44.8412H110.658L110.598 43.7732C110.43 44.1092 110.182 44.3972 109.854 44.6372C109.534 44.8692 109.102 44.9852 108.558 44.9852ZM108.714 44.1332C109.098 44.1332 109.426 44.0332 109.698 43.8332C109.978 43.6332 110.19 43.3732 110.334 43.0532C110.478 42.7332 110.55 42.3972 110.55 42.0452V42.0332H109.026C108.434 42.0332 108.014 42.1372 107.766 42.3452C107.526 42.5452 107.406 42.7972 107.406 43.1012C107.406 43.4132 107.518 43.6652 107.742 43.8572C107.974 44.0412 108.298 44.1332 108.714 44.1332ZM113.07 44.8412V38.8892H113.982L114.066 40.0292C114.25 39.6372 114.53 39.3252 114.906 39.0932C115.282 38.8612 115.746 38.7452 116.298 38.7452V39.8012H116.022C115.67 39.8012 115.346 39.8652 115.05 39.9932C114.754 40.1132 114.518 40.3212 114.342 40.6172C114.166 40.9132 114.078 41.3212 114.078 41.8412V44.8412H113.07ZM118.042 37.5692C117.842 37.5692 117.674 37.5052 117.538 37.3772C117.41 37.2412 117.346 37.0732 117.346 36.8732C117.346 36.6812 117.41 36.5212 117.538 36.3932C117.674 36.2652 117.842 36.2012 118.042 36.2012C118.234 36.2012 118.398 36.2652 118.534 36.3932C118.67 36.5212 118.738 36.6812 118.738 36.8732C118.738 37.0732 118.67 37.2412 118.534 37.3772C118.398 37.5052 118.234 37.5692 118.042 37.5692ZM117.538 44.8412V38.8892H118.546V44.8412H117.538ZM120.301 44.8412V38.8892H121.213L121.273 39.9572C121.465 39.5812 121.741 39.2852 122.101 39.0692C122.461 38.8532 122.869 38.7452 123.325 38.7452C124.029 38.7452 124.589 38.9612 125.005 39.3932C125.429 39.8172 125.641 40.4732 125.641 41.3612V44.8412H124.633V41.4692C124.633 40.2292 124.121 39.6092 123.097 39.6092C122.585 39.6092 122.157 39.7972 121.813 40.1732C121.477 40.5412 121.309 41.0692 121.309 41.7572V44.8412H120.301ZM129.52 42.9692C129.184 42.9692 128.876 42.9252 128.596 42.8372L127.996 43.4012C128.084 43.4652 128.192 43.5212 128.32 43.5692C128.456 43.6092 128.648 43.6492 128.896 43.6892C129.144 43.7212 129.492 43.7572 129.94 43.7972C130.74 43.8532 131.312 44.0372 131.656 44.3492C132 44.6612 132.172 45.0692 132.172 45.5732C132.172 45.9172 132.076 46.2452 131.884 46.5572C131.7 46.8692 131.412 47.1252 131.02 47.3252C130.636 47.5252 130.14 47.6252 129.532 47.6252C128.996 47.6252 128.52 47.5532 128.104 47.4092C127.688 47.2732 127.364 47.0612 127.132 46.7732C126.9 46.4932 126.784 46.1372 126.784 45.7052C126.784 45.4812 126.844 45.2372 126.964 44.9732C127.084 44.7172 127.308 44.4732 127.636 44.2412C127.46 44.1692 127.308 44.0932 127.18 44.0132C127.06 43.9252 126.948 43.8292 126.844 43.7252V43.4492L127.864 42.4412C127.392 42.0412 127.156 41.5132 127.156 40.8572C127.156 40.4652 127.248 40.1092 127.432 39.7892C127.616 39.4692 127.884 39.2172 128.236 39.0332C128.588 38.8412 129.016 38.7452 129.52 38.7452C129.864 38.7452 130.176 38.7932 130.456 38.8892H132.652V39.6452L131.536 39.6932C131.768 40.0292 131.884 40.4172 131.884 40.8572C131.884 41.2492 131.788 41.6052 131.596 41.9252C131.412 42.2452 131.144 42.5012 130.792 42.6932C130.448 42.8772 130.024 42.9692 129.52 42.9692ZM129.52 42.1412C129.944 42.1412 130.28 42.0332 130.528 41.8172C130.784 41.5932 130.912 41.2732 130.912 40.8572C130.912 40.4492 130.784 40.1372 130.528 39.9212C130.28 39.6972 129.944 39.5852 129.52 39.5852C129.088 39.5852 128.744 39.6972 128.488 39.9212C128.24 40.1372 128.116 40.4492 128.116 40.8572C128.116 41.2732 128.24 41.5932 128.488 41.8172C128.744 42.0332 129.088 42.1412 129.52 42.1412ZM127.768 45.6092C127.768 46.0092 127.936 46.3052 128.272 46.4972C128.608 46.6972 129.028 46.7972 129.532 46.7972C130.028 46.7972 130.424 46.6892 130.72 46.4732C131.024 46.2572 131.176 45.9692 131.176 45.6092C131.176 45.3532 131.072 45.1292 130.864 44.9372C130.656 44.7532 130.272 44.6452 129.712 44.6132C129.272 44.5812 128.892 44.5412 128.572 44.4932C128.244 44.6692 128.028 44.8572 127.924 45.0572C127.82 45.2652 127.768 45.4492 127.768 45.6092ZM134.005 42.5132L133.885 36.4412H134.977L134.857 42.5132H134.005ZM134.461 44.9012C134.261 44.9012 134.093 44.8372 133.957 44.7092C133.829 44.5732 133.765 44.4092 133.765 44.2172C133.765 44.0252 133.829 43.8652 133.957 43.7372C134.093 43.6012 134.261 43.5332 134.461 43.5332C134.653 43.5332 134.813 43.6012 134.941 43.7372C135.077 43.8652 135.145 44.0252 135.145 44.2172C135.145 44.4092 135.077 44.5732 134.941 44.7092C134.813 44.8372 134.653 44.9012 134.461 44.9012Z" fill="#262626"/>
</svg>
