<svg width="360" height="800" viewBox="0 0 360 800" fill="none" xmlns="http://www.w3.org/2000/svg">
<rect width="360" height="800" fill="white"/>
<g filter="url(#filter0_d_55_7660)">
<g filter="url(#filter1_i_55_7660)">
<path d="M104.537 389V239H173.774C191.679 239 205.313 242.643 214.676 249.929C224.203 257.071 228.967 266.286 228.967 277.571C228.967 287 226.01 294.571 220.096 300.286C214.347 305.857 207.284 309.643 198.906 311.643C208.762 313.357 216.893 317.643 223.3 324.5C229.706 331.214 232.909 339.071 232.909 348.071C232.909 359.929 227.981 369.714 218.125 377.429C208.269 385.143 194.307 389 176.238 389H104.537Z" fill="#FF7777"/>
</g>
</g>
<g filter="url(#filter2_d_55_7660)">
<g filter="url(#filter3_i_55_7660)">
<path d="M113.628 389V239H182.865C200.77 239 214.404 242.643 223.767 249.929C233.294 257.071 238.058 266.286 238.058 277.571C238.058 287 235.101 294.571 229.187 300.286C223.438 305.857 216.375 309.643 207.997 311.643C217.853 313.357 225.984 317.643 232.391 324.5C238.797 331.214 242 339.071 242 348.071C242 359.929 237.072 369.714 227.216 377.429C217.36 385.143 203.398 389 185.329 389H113.628Z" fill="#0047FF"/>
</g>
</g>
<g filter="url(#filter4_i_55_7660)">
<path d="M126.128 389V239H195.365C213.27 239 226.904 242.643 236.267 249.929C245.794 257.071 250.558 266.286 250.558 277.571C250.558 287 247.601 294.571 241.687 300.286C235.938 305.857 228.875 309.643 220.497 311.643C230.353 313.357 238.484 317.643 244.891 324.5C251.297 331.214 254.5 339.071 254.5 348.071C254.5 359.929 249.572 369.714 239.716 377.429C229.86 385.143 215.898 389 197.829 389H126.128Z" fill="white"/>
</g>
<g filter="url(#filter5_i_55_7660)">
<path d="M134.845 277.244C132.901 279.188 132.901 282.34 134.845 284.284L166.526 315.965C168.47 317.909 171.622 317.909 173.566 315.965C175.511 314.021 175.511 310.869 173.566 308.925L145.405 280.764L173.566 252.603C175.511 250.659 175.511 247.507 173.566 245.563C171.622 243.619 168.47 243.619 166.526 245.563L134.845 277.244ZM251.506 275.786H138.365V285.742H251.506V275.786Z" fill="#0047FF"/>
</g>
<g filter="url(#filter6_i_55_7660)">
<path d="M239.573 352.941C241.37 351.144 241.37 348.23 239.573 346.432L210.283 317.143C208.486 315.346 205.572 315.346 203.775 317.143C201.977 318.94 201.977 321.855 203.775 323.652L229.81 349.687L203.775 375.721C201.977 377.519 201.977 380.433 203.775 382.23C205.572 384.028 208.486 384.028 210.283 382.23L239.573 352.941ZM126.091 354.289L236.318 354.289L236.318 345.084L126.091 345.084L126.091 354.289Z" fill="#0047FF"/>
</g>
<path d="M96.524 457V425.71H109.712C111.784 425.71 113.548 426.074 115.004 426.802C116.488 427.502 117.622 428.51 118.406 429.826C119.218 431.114 119.624 432.682 119.624 434.53C119.624 435.958 119.232 437.302 118.448 438.562C117.692 439.794 116.474 440.816 114.794 441.628V438.982C116.334 439.57 117.552 440.298 118.448 441.166C119.344 442.034 119.974 443 120.338 444.064C120.702 445.128 120.884 446.248 120.884 447.424C120.884 450.42 119.89 452.772 117.902 454.48C115.942 456.16 113.212 457 109.712 457H96.524ZM102.236 451.96H110.3C111.784 451.96 112.96 451.554 113.828 450.742C114.724 449.902 115.172 448.796 115.172 447.424C115.172 446.052 114.724 444.946 113.828 444.106C112.96 443.266 111.784 442.846 110.3 442.846H102.236V451.96ZM102.236 437.848H110.006C111.182 437.848 112.12 437.512 112.82 436.84C113.52 436.14 113.87 435.244 113.87 434.152C113.87 433.06 113.52 432.192 112.82 431.548C112.12 430.904 111.182 430.582 110.006 430.582H102.236V437.848ZM130.351 457.504C128.755 457.504 127.369 457.238 126.193 456.706C125.017 456.174 124.107 455.418 123.463 454.438C122.819 453.43 122.497 452.268 122.497 450.952C122.497 449.692 122.777 448.572 123.337 447.592C123.897 446.584 124.765 445.744 125.941 445.072C127.117 444.4 128.601 443.924 130.393 443.644L137.869 442.426V446.626L131.443 447.718C130.351 447.914 129.539 448.264 129.007 448.768C128.475 449.272 128.209 449.93 128.209 450.742C128.209 451.526 128.503 452.156 129.091 452.632C129.707 453.08 130.463 453.304 131.359 453.304C132.507 453.304 133.515 453.066 134.383 452.59C135.279 452.086 135.965 451.4 136.441 450.532C136.945 449.664 137.197 448.712 137.197 447.676V441.796C137.197 440.816 136.805 440.004 136.021 439.36C135.265 438.688 134.257 438.352 132.997 438.352C131.821 438.352 130.771 438.674 129.847 439.318C128.951 439.934 128.293 440.76 127.873 441.796L123.379 439.612C123.827 438.408 124.527 437.372 125.479 436.504C126.459 435.608 127.607 434.908 128.923 434.404C130.239 433.9 131.667 433.648 133.207 433.648C135.083 433.648 136.735 433.998 138.163 434.698C139.591 435.37 140.697 436.322 141.481 437.554C142.293 438.758 142.699 440.172 142.699 441.796V457H137.491V453.094L138.667 453.01C138.079 453.99 137.379 454.816 136.567 455.488C135.755 456.132 134.831 456.636 133.795 457C132.759 457.336 131.611 457.504 130.351 457.504ZM157.192 466.24C155.484 466.24 153.902 465.96 152.446 465.4C150.99 464.84 149.73 464.056 148.666 463.048C147.63 462.068 146.874 460.906 146.398 459.562L151.522 457.63C151.858 458.694 152.516 459.548 153.496 460.192C154.504 460.864 155.736 461.2 157.192 461.2C158.312 461.2 159.292 460.99 160.132 460.57C161 460.15 161.672 459.534 162.148 458.722C162.624 457.938 162.862 456.986 162.862 455.866V450.658L163.912 451.918C163.128 453.29 162.078 454.326 160.762 455.026C159.446 455.726 157.948 456.076 156.268 456.076C154.14 456.076 152.236 455.586 150.556 454.606C148.876 453.626 147.56 452.282 146.608 450.574C145.656 448.866 145.18 446.948 145.18 444.82C145.18 442.664 145.656 440.746 146.608 439.066C147.56 437.386 148.862 436.07 150.514 435.118C152.166 434.138 154.042 433.648 156.142 433.648C157.85 433.648 159.348 434.012 160.636 434.74C161.952 435.44 163.044 436.462 163.912 437.806L163.156 439.192V434.152H168.364V455.866C168.364 457.854 167.874 459.632 166.894 461.2C165.942 462.768 164.626 464 162.946 464.896C161.294 465.792 159.376 466.24 157.192 466.24ZM156.94 450.994C158.116 450.994 159.138 450.742 160.006 450.238C160.902 449.706 161.602 448.978 162.106 448.054C162.61 447.13 162.862 446.066 162.862 444.862C162.862 443.686 162.596 442.636 162.064 441.712C161.56 440.76 160.86 440.018 159.964 439.486C159.096 438.954 158.088 438.688 156.94 438.688C155.792 438.688 154.756 438.954 153.832 439.486C152.908 440.018 152.18 440.76 151.648 441.712C151.144 442.636 150.892 443.686 150.892 444.862C150.892 446.038 151.144 447.088 151.648 448.012C152.18 448.936 152.894 449.664 153.79 450.196C154.714 450.728 155.764 450.994 156.94 450.994ZM171.823 457V434.152H177.325V457H171.823ZM171.823 431.59V425.71H177.325V431.59H171.823ZM181.187 457V425.71H194.375C196.447 425.71 198.211 426.074 199.667 426.802C201.151 427.502 202.285 428.51 203.069 429.826C203.881 431.114 204.287 432.682 204.287 434.53C204.287 435.958 203.895 437.302 203.111 438.562C202.355 439.794 201.137 440.816 199.457 441.628V438.982C200.997 439.57 202.215 440.298 203.111 441.166C204.007 442.034 204.637 443 205.001 444.064C205.365 445.128 205.547 446.248 205.547 447.424C205.547 450.42 204.553 452.772 202.565 454.48C200.605 456.16 197.875 457 194.375 457H181.187ZM186.899 451.96H194.963C196.447 451.96 197.623 451.554 198.491 450.742C199.387 449.902 199.835 448.796 199.835 447.424C199.835 446.052 199.387 444.946 198.491 444.106C197.623 443.266 196.447 442.846 194.963 442.846H186.899V451.96ZM186.899 437.848H194.669C195.845 437.848 196.783 437.512 197.483 436.84C198.183 436.14 198.533 435.244 198.533 434.152C198.533 433.06 198.183 432.192 197.483 431.548C196.783 430.904 195.845 430.582 194.669 430.582H186.899V437.848ZM215.014 457.504C213.418 457.504 212.032 457.238 210.856 456.706C209.68 456.174 208.77 455.418 208.126 454.438C207.482 453.43 207.16 452.268 207.16 450.952C207.16 449.692 207.44 448.572 208 447.592C208.56 446.584 209.428 445.744 210.604 445.072C211.78 444.4 213.264 443.924 215.056 443.644L222.532 442.426V446.626L216.106 447.718C215.014 447.914 214.202 448.264 213.67 448.768C213.138 449.272 212.872 449.93 212.872 450.742C212.872 451.526 213.166 452.156 213.754 452.632C214.37 453.08 215.126 453.304 216.022 453.304C217.17 453.304 218.178 453.066 219.046 452.59C219.942 452.086 220.628 451.4 221.104 450.532C221.608 449.664 221.86 448.712 221.86 447.676V441.796C221.86 440.816 221.468 440.004 220.684 439.36C219.928 438.688 218.92 438.352 217.66 438.352C216.484 438.352 215.434 438.674 214.51 439.318C213.614 439.934 212.956 440.76 212.536 441.796L208.042 439.612C208.49 438.408 209.19 437.372 210.142 436.504C211.122 435.608 212.27 434.908 213.586 434.404C214.902 433.9 216.33 433.648 217.87 433.648C219.746 433.648 221.398 433.998 222.826 434.698C224.254 435.37 225.36 436.322 226.144 437.554C226.956 438.758 227.362 440.172 227.362 441.796V457H222.154V453.094L223.33 453.01C222.742 453.99 222.042 454.816 221.23 455.488C220.418 456.132 219.494 456.636 218.458 457C217.422 457.336 216.274 457.504 215.014 457.504ZM241.855 466.24C240.147 466.24 238.565 465.96 237.109 465.4C235.653 464.84 234.393 464.056 233.329 463.048C232.293 462.068 231.537 460.906 231.061 459.562L236.185 457.63C236.521 458.694 237.179 459.548 238.159 460.192C239.167 460.864 240.399 461.2 241.855 461.2C242.975 461.2 243.955 460.99 244.795 460.57C245.663 460.15 246.335 459.534 246.811 458.722C247.287 457.938 247.525 456.986 247.525 455.866V450.658L248.575 451.918C247.791 453.29 246.741 454.326 245.425 455.026C244.109 455.726 242.611 456.076 240.931 456.076C238.803 456.076 236.899 455.586 235.219 454.606C233.539 453.626 232.223 452.282 231.271 450.574C230.319 448.866 229.843 446.948 229.843 444.82C229.843 442.664 230.319 440.746 231.271 439.066C232.223 437.386 233.525 436.07 235.177 435.118C236.829 434.138 238.705 433.648 240.805 433.648C242.513 433.648 244.011 434.012 245.299 434.74C246.615 435.44 247.707 436.462 248.575 437.806L247.819 439.192V434.152H253.027V455.866C253.027 457.854 252.537 459.632 251.557 461.2C250.605 462.768 249.289 464 247.609 464.896C245.957 465.792 244.039 466.24 241.855 466.24ZM241.603 450.994C242.779 450.994 243.801 450.742 244.669 450.238C245.565 449.706 246.265 448.978 246.769 448.054C247.273 447.13 247.525 446.066 247.525 444.862C247.525 443.686 247.259 442.636 246.727 441.712C246.223 440.76 245.523 440.018 244.627 439.486C243.759 438.954 242.751 438.688 241.603 438.688C240.455 438.688 239.419 438.954 238.495 439.486C237.571 440.018 236.843 440.76 236.311 441.712C235.807 442.636 235.555 443.686 235.555 444.862C235.555 446.038 235.807 447.088 236.311 448.012C236.843 448.936 237.557 449.664 238.453 450.196C239.377 450.728 240.427 450.994 241.603 450.994ZM256.486 457V434.152H261.988V457H256.486ZM256.486 431.59V425.71H261.988V431.59H256.486Z" fill="#0047FF"/>
<path d="M68.5581 491V477H70.2381L77.6981 488.22V477H79.3781V491H77.6981L70.2381 479.78V491H68.5581ZM86.7672 491.24C85.8339 491.24 84.9939 491.027 84.2472 490.6C83.5005 490.173 82.9072 489.573 82.4672 488.8C82.0405 488.013 81.8272 487.093 81.8272 486.04C81.8272 484.987 82.0472 484.073 82.4872 483.3C82.9272 482.513 83.5205 481.907 84.2672 481.48C85.0272 481.053 85.8739 480.84 86.8072 480.84C87.7405 480.84 88.5805 481.053 89.3272 481.48C90.0739 481.907 90.6605 482.513 91.0872 483.3C91.5272 484.073 91.7472 484.987 91.7472 486.04C91.7472 487.093 91.5272 488.013 91.0872 488.8C90.6472 489.573 90.0472 490.173 89.2872 490.6C88.5405 491.027 87.7005 491.24 86.7672 491.24ZM86.7672 489.8C87.3405 489.8 87.8739 489.66 88.3672 489.38C88.8605 489.1 89.2605 488.68 89.5672 488.12C89.8739 487.56 90.0272 486.867 90.0272 486.04C90.0272 485.213 89.8739 484.52 89.5672 483.96C89.2739 483.4 88.8805 482.98 88.3872 482.7C87.8939 482.42 87.3672 482.28 86.8072 482.28C86.2339 482.28 85.7005 482.42 85.2072 482.7C84.7139 482.98 84.3139 483.4 84.0072 483.96C83.7005 484.52 83.5472 485.213 83.5472 486.04C83.5472 486.867 83.7005 487.56 84.0072 488.12C84.3139 488.68 84.7072 489.1 85.1872 489.38C85.6805 489.66 86.2072 489.8 86.7672 489.8ZM95.712 491L92.812 481.08H94.492L96.592 488.86L98.912 481.08H100.812L103.152 488.86L105.232 481.08H106.932L104.032 491H102.312L99.872 482.82L97.432 491H95.712ZM118.543 491.24C117.596 491.24 116.756 491.027 116.023 490.6C115.29 490.16 114.71 489.553 114.283 488.78C113.87 488.007 113.663 487.093 113.663 486.04C113.663 485 113.87 484.093 114.283 483.32C114.696 482.533 115.27 481.927 116.003 481.5C116.75 481.06 117.61 480.84 118.583 480.84C119.543 480.84 120.37 481.06 121.063 481.5C121.77 481.927 122.31 482.493 122.683 483.2C123.056 483.907 123.243 484.667 123.243 485.48C123.243 485.627 123.236 485.773 123.223 485.92C123.223 486.067 123.223 486.233 123.223 486.42H115.323C115.363 487.18 115.536 487.813 115.843 488.32C116.163 488.813 116.556 489.187 117.023 489.44C117.503 489.693 118.01 489.82 118.543 489.82C119.236 489.82 119.816 489.66 120.283 489.34C120.75 489.02 121.09 488.587 121.303 488.04H122.963C122.696 488.96 122.183 489.727 121.423 490.34C120.676 490.94 119.716 491.24 118.543 491.24ZM118.543 482.26C117.743 482.26 117.03 482.507 116.403 483C115.79 483.48 115.436 484.187 115.343 485.12H121.583C121.543 484.227 121.236 483.527 120.663 483.02C120.09 482.513 119.383 482.26 118.543 482.26ZM127.939 491L124.179 481.08H125.939L128.919 489.38L131.919 481.08H133.639L129.879 491H127.939ZM139.461 491.24C138.514 491.24 137.674 491.027 136.941 490.6C136.208 490.16 135.628 489.553 135.201 488.78C134.788 488.007 134.581 487.093 134.581 486.04C134.581 485 134.788 484.093 135.201 483.32C135.614 482.533 136.188 481.927 136.921 481.5C137.668 481.06 138.528 480.84 139.501 480.84C140.461 480.84 141.288 481.06 141.981 481.5C142.688 481.927 143.228 482.493 143.601 483.2C143.974 483.907 144.161 484.667 144.161 485.48C144.161 485.627 144.154 485.773 144.141 485.92C144.141 486.067 144.141 486.233 144.141 486.42H136.241C136.281 487.18 136.454 487.813 136.761 488.32C137.081 488.813 137.474 489.187 137.941 489.44C138.421 489.693 138.928 489.82 139.461 489.82C140.154 489.82 140.734 489.66 141.201 489.34C141.668 489.02 142.008 488.587 142.221 488.04H143.881C143.614 488.96 143.101 489.727 142.341 490.34C141.594 490.94 140.634 491.24 139.461 491.24ZM139.461 482.26C138.661 482.26 137.948 482.507 137.321 483C136.708 483.48 136.354 484.187 136.261 485.12H142.501C142.461 484.227 142.154 483.527 141.581 483.02C141.008 482.513 140.301 482.26 139.461 482.26ZM146.388 491V481.08H147.908L148.048 482.98C148.354 482.327 148.821 481.807 149.448 481.42C150.074 481.033 150.848 480.84 151.768 480.84V482.6H151.308C150.721 482.6 150.181 482.707 149.688 482.92C149.194 483.12 148.801 483.467 148.508 483.96C148.214 484.453 148.068 485.133 148.068 486V491H146.388ZM154.733 495.4L157.193 490.04H156.613L152.673 481.08H154.493L157.773 488.8L161.253 481.08H162.993L156.493 495.4H154.733ZM168.349 491.24C167.416 491.24 166.576 491.027 165.829 490.6C165.083 490.173 164.489 489.573 164.049 488.8C163.623 488.013 163.409 487.093 163.409 486.04C163.409 484.987 163.629 484.073 164.069 483.3C164.509 482.513 165.103 481.907 165.849 481.48C166.609 481.053 167.456 480.84 168.389 480.84C169.323 480.84 170.163 481.053 170.909 481.48C171.656 481.907 172.243 482.513 172.669 483.3C173.109 484.073 173.329 484.987 173.329 486.04C173.329 487.093 173.109 488.013 172.669 488.8C172.229 489.573 171.629 490.173 170.869 490.6C170.123 491.027 169.283 491.24 168.349 491.24ZM168.349 489.8C168.923 489.8 169.456 489.66 169.949 489.38C170.443 489.1 170.843 488.68 171.149 488.12C171.456 487.56 171.609 486.867 171.609 486.04C171.609 485.213 171.456 484.52 171.149 483.96C170.856 483.4 170.463 482.98 169.969 482.7C169.476 482.42 168.949 482.28 168.389 482.28C167.816 482.28 167.283 482.42 166.789 482.7C166.296 482.98 165.896 483.4 165.589 483.96C165.283 484.52 165.129 485.213 165.129 486.04C165.129 486.867 165.283 487.56 165.589 488.12C165.896 488.68 166.289 489.1 166.769 489.38C167.263 489.66 167.789 489.8 168.349 489.8ZM175.665 491V481.08H177.185L177.285 482.86C177.605 482.233 178.065 481.74 178.665 481.38C179.265 481.02 179.945 480.84 180.705 480.84C181.878 480.84 182.812 481.2 183.505 481.92C184.212 482.627 184.565 483.72 184.565 485.2V491H182.885V485.38C182.885 483.313 182.032 482.28 180.325 482.28C179.472 482.28 178.758 482.593 178.185 483.22C177.625 483.833 177.345 484.713 177.345 485.86V491H175.665ZM191.57 491.24C190.624 491.24 189.784 491.027 189.05 490.6C188.317 490.16 187.737 489.553 187.31 488.78C186.897 488.007 186.69 487.093 186.69 486.04C186.69 485 186.897 484.093 187.31 483.32C187.724 482.533 188.297 481.927 189.03 481.5C189.777 481.06 190.637 480.84 191.61 480.84C192.57 480.84 193.397 481.06 194.09 481.5C194.797 481.927 195.337 482.493 195.71 483.2C196.084 483.907 196.27 484.667 196.27 485.48C196.27 485.627 196.264 485.773 196.25 485.92C196.25 486.067 196.25 486.233 196.25 486.42H188.35C188.39 487.18 188.564 487.813 188.87 488.32C189.19 488.813 189.584 489.187 190.05 489.44C190.53 489.693 191.037 489.82 191.57 489.82C192.264 489.82 192.844 489.66 193.31 489.34C193.777 489.02 194.117 488.587 194.33 488.04H195.99C195.724 488.96 195.21 489.727 194.45 490.34C193.704 490.94 192.744 491.24 191.57 491.24ZM191.57 482.26C190.77 482.26 190.057 482.507 189.43 483C188.817 483.48 188.464 484.187 188.37 485.12H194.61C194.57 484.227 194.264 483.527 193.69 483.02C193.117 482.513 192.41 482.26 191.57 482.26ZM208.35 491.24C207.403 491.24 206.55 491.027 205.79 490.6C205.043 490.16 204.45 489.553 204.01 488.78C203.583 487.993 203.37 487.08 203.37 486.04C203.37 485 203.583 484.093 204.01 483.32C204.45 482.533 205.043 481.927 205.79 481.5C206.55 481.06 207.403 480.84 208.35 480.84C209.523 480.84 210.51 481.147 211.31 481.76C212.123 482.373 212.637 483.193 212.85 484.22H211.13C210.997 483.607 210.67 483.133 210.15 482.8C209.63 482.453 209.023 482.28 208.33 482.28C207.77 482.28 207.243 482.42 206.75 482.7C206.257 482.98 205.857 483.4 205.55 483.96C205.243 484.52 205.09 485.213 205.09 486.04C205.09 486.867 205.243 487.56 205.55 488.12C205.857 488.68 206.257 489.107 206.75 489.4C207.243 489.68 207.77 489.82 208.33 489.82C209.023 489.82 209.63 489.653 210.15 489.32C210.67 488.973 210.997 488.487 211.13 487.86H212.85C212.65 488.86 212.143 489.673 211.33 490.3C210.517 490.927 209.523 491.24 208.35 491.24ZM218.496 491.24C217.67 491.24 216.983 491.1 216.436 490.82C215.89 490.54 215.483 490.167 215.216 489.7C214.95 489.233 214.816 488.727 214.816 488.18C214.816 487.167 215.203 486.387 215.976 485.84C216.75 485.293 217.803 485.02 219.136 485.02H221.816V484.9C221.816 484.033 221.59 483.38 221.136 482.94C220.683 482.487 220.076 482.26 219.316 482.26C218.663 482.26 218.096 482.427 217.616 482.76C217.15 483.08 216.856 483.553 216.736 484.18H215.016C215.083 483.46 215.323 482.853 215.736 482.36C216.163 481.867 216.69 481.493 217.316 481.24C217.943 480.973 218.61 480.84 219.316 480.84C220.703 480.84 221.743 481.213 222.436 481.96C223.143 482.693 223.496 483.673 223.496 484.9V491H221.996L221.896 489.22C221.616 489.78 221.203 490.26 220.656 490.66C220.123 491.047 219.403 491.24 218.496 491.24ZM218.756 489.82C219.396 489.82 219.943 489.653 220.396 489.32C220.863 488.987 221.216 488.553 221.456 488.02C221.696 487.487 221.816 486.927 221.816 486.34V486.32H219.276C218.29 486.32 217.59 486.493 217.176 486.84C216.776 487.173 216.576 487.593 216.576 488.1C216.576 488.62 216.763 489.04 217.136 489.36C217.523 489.667 218.063 489.82 218.756 489.82ZM226.017 491V481.08H227.537L227.637 482.86C227.957 482.233 228.417 481.74 229.017 481.38C229.617 481.02 230.297 480.84 231.057 480.84C232.23 480.84 233.163 481.2 233.857 481.92C234.563 482.627 234.917 483.72 234.917 485.2V491H233.237V485.38C233.237 483.313 232.383 482.28 230.677 482.28C229.823 482.28 229.11 482.593 228.537 483.22C227.977 483.833 227.697 484.713 227.697 485.86V491H226.017ZM246.555 491.24C245.368 491.24 244.382 490.94 243.595 490.34C242.808 489.74 242.348 488.927 242.215 487.9H243.935C244.042 488.42 244.315 488.873 244.755 489.26C245.208 489.633 245.815 489.82 246.575 489.82C247.282 489.82 247.802 489.673 248.135 489.38C248.468 489.073 248.635 488.713 248.635 488.3C248.635 487.7 248.415 487.3 247.975 487.1C247.548 486.9 246.942 486.72 246.155 486.56C245.622 486.453 245.088 486.3 244.555 486.1C244.022 485.9 243.575 485.62 243.215 485.26C242.855 484.887 242.675 484.4 242.675 483.8C242.675 482.933 242.995 482.227 243.635 481.68C244.288 481.12 245.168 480.84 246.275 480.84C247.328 480.84 248.188 481.107 248.855 481.64C249.535 482.16 249.928 482.907 250.035 483.88H248.375C248.308 483.373 248.088 482.98 247.715 482.7C247.355 482.407 246.868 482.26 246.255 482.26C245.655 482.26 245.188 482.387 244.855 482.64C244.535 482.893 244.375 483.227 244.375 483.64C244.375 484.04 244.582 484.353 244.995 484.58C245.422 484.807 245.995 485 246.715 485.16C247.328 485.293 247.908 485.46 248.455 485.66C249.015 485.847 249.468 486.133 249.815 486.52C250.175 486.893 250.355 487.44 250.355 488.16C250.368 489.053 250.028 489.793 249.335 490.38C248.655 490.953 247.728 491.24 246.555 491.24ZM252.755 491V476.6H254.435V482.78C254.768 482.167 255.242 481.693 255.855 481.36C256.468 481.013 257.135 480.84 257.855 480.84C259.002 480.84 259.922 481.2 260.615 481.92C261.308 482.627 261.655 483.72 261.655 485.2V491H259.995V485.38C259.995 483.313 259.162 482.28 257.495 482.28C256.628 482.28 255.902 482.593 255.315 483.22C254.728 483.833 254.435 484.713 254.435 485.86V491H252.755ZM267.5 491.24C266.674 491.24 265.987 491.1 265.44 490.82C264.894 490.54 264.487 490.167 264.22 489.7C263.954 489.233 263.82 488.727 263.82 488.18C263.82 487.167 264.207 486.387 264.98 485.84C265.754 485.293 266.807 485.02 268.14 485.02H270.82V484.9C270.82 484.033 270.594 483.38 270.14 482.94C269.687 482.487 269.08 482.26 268.32 482.26C267.667 482.26 267.1 482.427 266.62 482.76C266.154 483.08 265.86 483.553 265.74 484.18H264.02C264.087 483.46 264.327 482.853 264.74 482.36C265.167 481.867 265.694 481.493 266.32 481.24C266.947 480.973 267.614 480.84 268.32 480.84C269.707 480.84 270.747 481.213 271.44 481.96C272.147 482.693 272.5 483.673 272.5 484.9V491H271L270.9 489.22C270.62 489.78 270.207 490.26 269.66 490.66C269.127 491.047 268.407 491.24 267.5 491.24ZM267.76 489.82C268.4 489.82 268.947 489.653 269.4 489.32C269.867 488.987 270.22 488.553 270.46 488.02C270.7 487.487 270.82 486.927 270.82 486.34V486.32H268.28C267.294 486.32 266.594 486.493 266.18 486.84C265.78 487.173 265.58 487.593 265.58 488.1C265.58 488.62 265.767 489.04 266.14 489.36C266.527 489.667 267.067 489.82 267.76 489.82ZM275.021 491V481.08H276.541L276.681 482.98C276.987 482.327 277.454 481.807 278.081 481.42C278.707 481.033 279.481 480.84 280.401 480.84V482.6H279.941C279.354 482.6 278.814 482.707 278.321 482.92C277.827 483.12 277.434 483.467 277.141 483.96C276.847 484.453 276.701 485.133 276.701 486V491H275.021ZM286.375 491.24C285.428 491.24 284.588 491.027 283.855 490.6C283.122 490.16 282.542 489.553 282.115 488.78C281.702 488.007 281.495 487.093 281.495 486.04C281.495 485 281.702 484.093 282.115 483.32C282.528 482.533 283.102 481.927 283.835 481.5C284.582 481.06 285.442 480.84 286.415 480.84C287.375 480.84 288.202 481.06 288.895 481.5C289.602 481.927 290.142 482.493 290.515 483.2C290.888 483.907 291.075 484.667 291.075 485.48C291.075 485.627 291.068 485.773 291.055 485.92C291.055 486.067 291.055 486.233 291.055 486.42H283.155C283.195 487.18 283.368 487.813 283.675 488.32C283.995 488.813 284.388 489.187 284.855 489.44C285.335 489.693 285.842 489.82 286.375 489.82C287.068 489.82 287.648 489.66 288.115 489.34C288.582 489.02 288.922 488.587 289.135 488.04H290.795C290.528 488.96 290.015 489.727 289.255 490.34C288.508 490.94 287.548 491.24 286.375 491.24ZM286.375 482.26C285.575 482.26 284.862 482.507 284.235 483C283.622 483.48 283.268 484.187 283.175 485.12H289.415C289.375 484.227 289.068 483.527 288.495 483.02C287.922 482.513 287.215 482.26 286.375 482.26Z" fill="#262626"/>
<defs>
<filter id="filter0_d_55_7660" x="100.537" y="239" width="136.372" height="158" filterUnits="userSpaceOnUse" color-interpolation-filters="sRGB">
<feFlood flood-opacity="0" result="BackgroundImageFix"/>
<feColorMatrix in="SourceAlpha" type="matrix" values="0 0 0 0 0 0 0 0 0 0 0 0 0 0 0 0 0 0 127 0" result="hardAlpha"/>
<feOffset dy="4"/>
<feGaussianBlur stdDeviation="2"/>
<feComposite in2="hardAlpha" operator="out"/>
<feColorMatrix type="matrix" values="0 0 0 0 0 0 0 0 0 0 0 0 0 0 0 0 0 0 0.25 0"/>
<feBlend mode="normal" in2="BackgroundImageFix" result="effect1_dropShadow_55_7660"/>
<feBlend mode="normal" in="SourceGraphic" in2="effect1_dropShadow_55_7660" result="shape"/>
</filter>
<filter id="filter1_i_55_7660" x="104.537" y="239" width="128.372" height="154" filterUnits="userSpaceOnUse" color-interpolation-filters="sRGB">
<feFlood flood-opacity="0" result="BackgroundImageFix"/>
<feBlend mode="normal" in="SourceGraphic" in2="BackgroundImageFix" result="shape"/>
<feColorMatrix in="SourceAlpha" type="matrix" values="0 0 0 0 0 0 0 0 0 0 0 0 0 0 0 0 0 0 127 0" result="hardAlpha"/>
<feOffset dy="4"/>
<feGaussianBlur stdDeviation="2"/>
<feComposite in2="hardAlpha" operator="arithmetic" k2="-1" k3="1"/>
<feColorMatrix type="matrix" values="0 0 0 0 0 0 0 0 0 0 0 0 0 0 0 0 0 0 0.25 0"/>
<feBlend mode="normal" in2="shape" result="effect1_innerShadow_55_7660"/>
</filter>
<filter id="filter2_d_55_7660" x="109.628" y="239" width="136.372" height="158" filterUnits="userSpaceOnUse" color-interpolation-filters="sRGB">
<feFlood flood-opacity="0" result="BackgroundImageFix"/>
<feColorMatrix in="SourceAlpha" type="matrix" values="0 0 0 0 0 0 0 0 0 0 0 0 0 0 0 0 0 0 127 0" result="hardAlpha"/>
<feOffset dy="4"/>
<feGaussianBlur stdDeviation="2"/>
<feComposite in2="hardAlpha" operator="out"/>
<feColorMatrix type="matrix" values="0 0 0 0 0 0 0 0 0 0 0 0 0 0 0 0 0 0 0.25 0"/>
<feBlend mode="normal" in2="BackgroundImageFix" result="effect1_dropShadow_55_7660"/>
<feBlend mode="normal" in="SourceGraphic" in2="effect1_dropShadow_55_7660" result="shape"/>
</filter>
<filter id="filter3_i_55_7660" x="113.628" y="239" width="128.372" height="154" filterUnits="userSpaceOnUse" color-interpolation-filters="sRGB">
<feFlood flood-opacity="0" result="BackgroundImageFix"/>
<feBlend mode="normal" in="SourceGraphic" in2="BackgroundImageFix" result="shape"/>
<feColorMatrix in="SourceAlpha" type="matrix" values="0 0 0 0 0 0 0 0 0 0 0 0 0 0 0 0 0 0 127 0" result="hardAlpha"/>
<feOffset dy="4"/>
<feGaussianBlur stdDeviation="2"/>
<feComposite in2="hardAlpha" operator="arithmetic" k2="-1" k3="1"/>
<feColorMatrix type="matrix" values="0 0 0 0 0 0 0 0 0 0 0 0 0 0 0 0 0 0 0.25 0"/>
<feBlend mode="normal" in2="shape" result="effect1_innerShadow_55_7660"/>
</filter>
<filter id="filter4_i_55_7660" x="126.128" y="239" width="128.372" height="154" filterUnits="userSpaceOnUse" color-interpolation-filters="sRGB">
<feFlood flood-opacity="0" result="BackgroundImageFix"/>
<feBlend mode="normal" in="SourceGraphic" in2="BackgroundImageFix" result="shape"/>
<feColorMatrix in="SourceAlpha" type="matrix" values="0 0 0 0 0 0 0 0 0 0 0 0 0 0 0 0 0 0 127 0" result="hardAlpha"/>
<feOffset dy="4"/>
<feGaussianBlur stdDeviation="2"/>
<feComposite in2="hardAlpha" operator="arithmetic" k2="-1" k3="1"/>
<feColorMatrix type="matrix" values="0 0 0 0 0 0 0 0 0 0 0 0 0 0 0 0 0 0 0.25 0"/>
<feBlend mode="normal" in2="shape" result="effect1_innerShadow_55_7660"/>
</filter>
<filter id="filter5_i_55_7660" x="133.387" y="244.105" width="118.119" height="77.3185" filterUnits="userSpaceOnUse" color-interpolation-filters="sRGB">
<feFlood flood-opacity="0" result="BackgroundImageFix"/>
<feBlend mode="normal" in="SourceGraphic" in2="BackgroundImageFix" result="shape"/>
<feColorMatrix in="SourceAlpha" type="matrix" values="0 0 0 0 0 0 0 0 0 0 0 0 0 0 0 0 0 0 127 0" result="hardAlpha"/>
<feOffset dy="4"/>
<feGaussianBlur stdDeviation="2"/>
<feComposite in2="hardAlpha" operator="arithmetic" k2="-1" k3="1"/>
<feColorMatrix type="matrix" values="0 0 0 0 0 0 0 0 0 0 0 0 0 0 0 0 0 0 0.25 0"/>
<feBlend mode="normal" in2="shape" result="effect1_innerShadow_55_7660"/>
</filter>
<filter id="filter6_i_55_7660" x="126.091" y="315.795" width="114.83" height="71.783" filterUnits="userSpaceOnUse" color-interpolation-filters="sRGB">
<feFlood flood-opacity="0" result="BackgroundImageFix"/>
<feBlend mode="normal" in="SourceGraphic" in2="BackgroundImageFix" result="shape"/>
<feColorMatrix in="SourceAlpha" type="matrix" values="0 0 0 0 0 0 0 0 0 0 0 0 0 0 0 0 0 0 127 0" result="hardAlpha"/>
<feOffset dy="4"/>
<feGaussianBlur stdDeviation="2"/>
<feComposite in2="hardAlpha" operator="arithmetic" k2="-1" k3="1"/>
<feColorMatrix type="matrix" values="0 0 0 0 0 0 0 0 0 0 0 0 0 0 0 0 0 0 0.25 0"/>
<feBlend mode="normal" in2="shape" result="effect1_innerShadow_55_7660"/>
</filter>
</defs>
</svg>
